<mxfile host="app.diagrams.net" modified="2024-01-28T10:42:05.963Z" agent="Mozilla/5.0 (Macintosh; Intel Mac OS X 10_15_7) AppleWebKit/537.36 (KHTML, like Gecko) Chrome/121.0.0.0 Safari/537.36" etag="t_4hdPAr03oxNHE24ScQ" version="23.0.2" type="device">
  <diagram id="A0CCW89jXXGskW4tIgY8" name="Page-1">
    <mxGraphModel dx="1138" dy="724" grid="1" gridSize="10" guides="1" tooltips="1" connect="1" arrows="1" fold="1" page="1" pageScale="1" pageWidth="1169" pageHeight="827" math="0" shadow="0">
      <root>
        <mxCell id="0" />
        <mxCell id="1" parent="0" />
        <mxCell id="1TfECa-dX_d4Ddrjt1kj-38" value="" style="fillColor=#F6F6F6;strokeColor=none;shadow=0;gradientColor=none;fontSize=14;align=left;spacing=10;fontColor=#717171;9E9E9E;verticalAlign=top;spacingTop=-4;fontStyle=0;spacingLeft=40;html=1;rounded=1;dashed=0;fontFamily=Helvetica;" parent="1" vertex="1">
          <mxGeometry x="10" width="1080" height="540" as="geometry" />
        </mxCell>
        <mxCell id="1TfECa-dX_d4Ddrjt1kj-31" value="" style="shape=rect;fillColor=#FCE7CD;strokeColor=none;fontSize=12;html=1;whiteSpace=wrap;align=left;verticalAlign=top;spacing=5;rounded=0;shadow=0;fontColor=#000000;fontFamily=Helvetica;" parent="1" vertex="1">
          <mxGeometry x="589" y="40" width="446.74" height="446.74" as="geometry" />
        </mxCell>
        <mxCell id="1TfECa-dX_d4Ddrjt1kj-45" value="" style="edgeStyle=orthogonalEdgeStyle;rounded=1;orthogonalLoop=1;jettySize=auto;html=1;fontFamily=Helvetica;fontSize=18;fontColor=#333333;strokeWidth=2;" parent="1" source="1TfECa-dX_d4Ddrjt1kj-20" target="1TfECa-dX_d4Ddrjt1kj-31" edge="1">
          <mxGeometry relative="1" as="geometry" />
        </mxCell>
        <mxCell id="1TfECa-dX_d4Ddrjt1kj-20" value="" style="shape=rect;fillColor=#B1DDF0;strokeColor=none;fontSize=12;html=1;whiteSpace=wrap;align=left;verticalAlign=top;spacing=5;rounded=0;shadow=0;fontColor=#000000;fontFamily=Helvetica;" parent="1" vertex="1">
          <mxGeometry x="60" y="40" width="446.74" height="446.74" as="geometry" />
        </mxCell>
        <mxCell id="4CRZ8gmeou8eefTgOgz0-7" value="" style="edgeStyle=orthogonalEdgeStyle;rounded=0;orthogonalLoop=1;jettySize=auto;html=1;" edge="1" parent="1" source="1TfECa-dX_d4Ddrjt1kj-1" target="1TfECa-dX_d4Ddrjt1kj-8">
          <mxGeometry relative="1" as="geometry" />
        </mxCell>
        <mxCell id="1TfECa-dX_d4Ddrjt1kj-1" value="&lt;font style=&quot;font-size: 14px;&quot;&gt;Obtain journals and institutions in transformative agreements&lt;/font&gt;" style="rounded=1;whiteSpace=wrap;html=1;fillColor=#f5f5f5;fontColor=#333333;strokeColor=#666666;strokeWidth=2;fontFamily=Helvetica;" parent="1" vertex="1">
          <mxGeometry x="299" y="80" width="190" height="80" as="geometry" />
        </mxCell>
        <mxCell id="4CRZ8gmeou8eefTgOgz0-8" value="" style="edgeStyle=orthogonalEdgeStyle;rounded=0;orthogonalLoop=1;jettySize=auto;html=1;" edge="1" parent="1" source="1TfECa-dX_d4Ddrjt1kj-8" target="1TfECa-dX_d4Ddrjt1kj-10">
          <mxGeometry relative="1" as="geometry" />
        </mxCell>
        <mxCell id="1TfECa-dX_d4Ddrjt1kj-8" value="&lt;font style=&quot;font-size: 14px;&quot;&gt;Disambiguate journal titles by interlinking ISSN variants&lt;/font&gt;" style="rounded=1;whiteSpace=wrap;html=1;fillColor=#f5f5f5;fontColor=#333333;strokeColor=#666666;strokeWidth=2;fontFamily=Helvetica;" parent="1" vertex="1">
          <mxGeometry x="299" y="191.25" width="190" height="66" as="geometry" />
        </mxCell>
        <mxCell id="4CRZ8gmeou8eefTgOgz0-9" value="" style="edgeStyle=orthogonalEdgeStyle;rounded=0;orthogonalLoop=1;jettySize=auto;html=1;" edge="1" parent="1" source="1TfECa-dX_d4Ddrjt1kj-10" target="1TfECa-dX_d4Ddrjt1kj-12">
          <mxGeometry relative="1" as="geometry" />
        </mxCell>
        <mxCell id="1TfECa-dX_d4Ddrjt1kj-10" value="&lt;font style=&quot;font-size: 14px;&quot;&gt;Determine publisher&lt;/font&gt;" style="rounded=1;whiteSpace=wrap;html=1;fillColor=#f5f5f5;fontColor=#333333;strokeColor=#666666;strokeWidth=2;fontFamily=Helvetica;" parent="1" vertex="1">
          <mxGeometry x="299" y="286.09" width="190" height="60" as="geometry" />
        </mxCell>
        <mxCell id="1TfECa-dX_d4Ddrjt1kj-12" value="&lt;font style=&quot;font-size: 14px;&quot;&gt;Exclude full OA journals&lt;/font&gt;" style="rounded=1;whiteSpace=wrap;html=1;fillColor=#f5f5f5;fontColor=#333333;strokeColor=#666666;strokeWidth=2;fontFamily=Helvetica;" parent="1" vertex="1">
          <mxGeometry x="299" y="383" width="190" height="61.38" as="geometry" />
        </mxCell>
        <mxCell id="1TfECa-dX_d4Ddrjt1kj-14" value="" style="shape=image;verticalLabelPosition=bottom;labelBackgroundColor=default;verticalAlign=top;aspect=fixed;imageAspect=0;image=data:image/png,iVBORw0KGgoAAAANSUhEUgAAAeQAAABcCAYAAAC/QMZVAAAMbWlDQ1BJQ0MgUHJvZmlsZQAASImVVwdYU8kWnluSkJDQAghICb0jUgNICaEFkF4EGyEJJJQYE4KKvSwquHYRxYquiii2lWYBsSuLYu+LBRVlXdTFhsqbkICu+8r3zvfNvX/OnPlPuTO59wCg+YErkeShWgDkiwukCeHBjDFp6QzSU0AA2oACbIArlyeTsOLiogGUwfvf5d0NgCjuV50VXP+c/6+iwxfIeAAg4yDO5Mt4+RA3A4Bv4EmkBQAQFXrLKQUSBZ4Dsa4UBgjxagXOVuJdCpypxEcHbJIS2BBfBkCNyuVKswHQuAf1jEJeNuTR+Ayxq5gvEgOg6QRxAE/I5UOsiN0pP3+SApdDbAftJRDDeAAz8zvO7L/xZw7xc7nZQ1iZ14CohYhkkjzutP+zNP9b8vPkgz5s4KAKpREJivxhDW/lTopSYCrE3eLMmFhFrSH+IOIr6w4AShHKI5KV9qgxT8aG9QP6ELvyuSFREBtDHCbOi4lW6TOzRGEciOFuQaeKCjhJEBtAvEggC01U2WyRTkpQ+UJrs6Rslkp/jisd8Kvw9UCem8xS8b8RCjgqfkyjSJiUCjEFYqtCUUoMxBoQu8hyE6NUNqOKhOyYQRupPEERvxXECQJxeLCSHyvMkoYlqOxL8mWD+WJbhCJOjAofLBAmRSjrg53icQfih7lglwViVvIgj0A2JnowF74gJFSZO/ZcIE5OVPF8kBQEJyjX4hRJXpzKHrcQ5IUr9BYQe8gKE1Vr8ZQCuDmV/HiWpCAuSRknXpTDjYxTxoMvB9GADUIAA8jhyASTQA4QtXXXdcNfypkwwAVSkA0EwFmlGVyROjAjhtdEUAT+gEgAZEPrggdmBaAQ6r8MaZVXZ5A1MFs4sCIXPIU4H0SBPPhbPrBKPOQtBTyBGtE/vHPh4MF48+BQzP97/aD2m4YFNdEqjXzQI0Nz0JIYSgwhRhDDiPa4ER6A++HR8BoEhxvOxH0G8/hmT3hKaCc8IlwndBBuTxTNk/4Q5WjQAfnDVLXI/L4WuA3k9MSDcX/IDplxfdwIOOMe0A8LD4SePaGWrYpbURXGD9x/y+C7p6GyI7uSUfIwchDZ7seVGg4ankMsilp/Xx9lrJlD9WYPzfzon/1d9fnwHvWjJbYIO4SdxU5g57GjWB1gYE1YPdaKHVPgod31ZGB3DXpLGIgnF/KI/uGPq/KpqKTMtdq1y/Wzcq5AMLVAcfDYkyTTpKJsYQGDBd8OAgZHzHNxYri5urkBoHjXKP++3sYPvEMQ/dZvuvm/A+Df1N/ff+SbLrIJgAPe8Pg3fNPZMQHQVgfgXANPLi1U6nDFhQD/JTThSTMEpsAS2MF83IAX8ANBIBREgliQBNLABFhlIdznUjAFzABzQTEoBcvBGrAebAbbwC6wFxwEdeAoOAHOgIvgMrgO7sLd0wlegh7wDvQhCEJCaAgdMUTMEGvEEXFDmEgAEopEIwlIGpKBZCNiRI7MQOYjpchKZD2yFalCDiANyAnkPNKO3EYeIl3IG+QTiqFUVBc1QW3QESgTZaFRaBI6Hs1GJ6NF6AJ0KVqOVqJ70Fr0BHoRvY52oC/RXgxg6pg+Zo45Y0yMjcVi6VgWJsVmYSVYGVaJ1WCN8DlfxTqwbuwjTsTpOAN3hjs4Ak/GefhkfBa+BF+P78Jr8VP4Vfwh3oN/JdAIxgRHgi+BQxhDyCZMIRQTygg7CIcJp+FZ6iS8IxKJ+kRbojc8i2nEHOJ04hLiRuI+YjOxnfiY2EsikQxJjiR/UiyJSyogFZPWkfaQmkhXSJ2kD2rqamZqbmphaulqYrV5amVqu9WOq11Re6bWR9YiW5N9ybFkPnkaeRl5O7mRfIncSe6jaFNsKf6UJEoOZS6lnFJDOU25R3mrrq5uoe6jHq8uUp+jXq6+X/2c+kP1j1QdqgOVTR1HlVOXUndSm6m3qW9pNJoNLYiWTiugLaVV0U7SHtA+aNA1XDQ4GnyN2RoVGrUaVzReaZI1rTVZmhM0izTLNA9pXtLs1iJr2Wixtbhas7QqtBq0bmr1atO1R2rHaudrL9HerX1e+7kOScdGJ1SHr7NAZ5vOSZ3HdIxuSWfTefT59O300/ROXaKurS5HN0e3VHevbptuj56Onodeit5UvQq9Y3od+pi+jT5HP09/mf5B/Rv6n4aZDGMNEwxbPKxm2JVh7w2GGwQZCAxKDPYZXDf4ZMgwDDXMNVxhWGd43wg3cjCKN5pitMnotFH3cN3hfsN5w0uGHxx+xxg1djBOMJ5uvM241bjXxNQk3ERiss7kpEm3qb5pkGmO6WrT46ZdZnSzADOR2WqzJrMXDD0Gi5HHKGecYvSYG5tHmMvNt5q3mfdZ2FokW8yz2Gdx35JiybTMslxt2WLZY2VmNdpqhlW11R1rsjXTWmi91vqs9XsbW5tUm4U2dTbPbQ1sObZFttW29+xodoF2k+0q7a7ZE+2Z9rn2G+0vO6AOng5ChwqHS46oo5ejyHGjY7sTwcnHSexU6XTTmerMci50rnZ+6KLvEu0yz6XO5dUIqxHpI1aMODviq6una57rdte7I3VGRo6cN7Jx5Bs3BzeeW4XbNXeae5j7bPd699cejh4Cj00etzzpnqM9F3q2eH7x8vaSetV4dXlbeWd4b/C+ydRlxjGXMM/5EHyCfWb7HPX56OvlW+B70PdPP2e/XL/dfs9H2Y4SjNo+6rG/hT/Xf6t/RwAjICNgS0BHoHkgN7Ay8FGQZRA/aEfQM5Y9K4e1h/Uq2DVYGnw4+D3blz2T3RyChYSHlIS0heqEJoeuD30QZhGWHVYd1hPuGT49vDmCEBEVsSLiJseEw+NUcXoivSNnRp6KokYlRq2PehTtEC2NbhyNjo4cvWr0vRjrGHFMXSyI5cSuir0fZxs3Oe5IPDE+Lr4i/mnCyIQZCWcT6YkTE3cnvksKTlqWdDfZLlme3JKimTIupSrlfWpI6srUjjEjxswcczHNKE2UVp9OSk9J35HeOzZ07JqxneM8xxWPuzHedvzU8ecnGE3Im3BsouZE7sRDGYSM1IzdGZ+5sdxKbm8mJ3NDZg+PzVvLe8kP4q/mdwn8BSsFz7L8s1ZmPc/2z16V3SUMFJYJu0Vs0XrR65yInM0573Njc3fm9uel5u3LV8vPyG8Q64hzxacmmU6aOqld4igplnRM9p28ZnKPNEq6Q4bIxsvqC3ThR32r3E7+k/xhYUBhReGHKSlTDk3Vniqe2jrNYdriac+Kwop+mY5P501vmWE+Y+6MhzNZM7fOQmZlzmqZbTl7wezOOeFzds2lzM2d+9s813kr5/01P3V+4wKTBXMWPP4p/KfqYo1iafHNhX4LNy/CF4kWtS12X7xu8dcSfsmFUtfSstLPS3hLLvw88ufyn/uXZi1tW+a1bNNy4nLx8hsrAlfsWqm9smjl41WjV9WuZqwuWf3Xmolrzpd5lG1eS1krX9tRHl1ev85q3fJ1n9cL11+vCK7Yt8F4w+IN7zfyN17ZFLSpZrPJ5tLNn7aIttzaGr61ttKmsmwbcVvhtqfbU7af/YX5S9UOox2lO77sFO/s2JWw61SVd1XVbuPdy6rRanl1155xey7vDdlbX+Ncs3Wf/r7S/WC/fP+LAxkHbhyMOthyiHmo5lfrXzccph8uqUVqp9X21AnrOurT6tsbIhtaGv0aDx9xObLzqPnRimN6x5YdpxxfcLy/qaipt1nS3H0i+8Tjloktd0+OOXntVPypttNRp8+dCTtz8izrbNM5/3NHz/ueb7jAvFB30etibatn6+HfPH873ObVVnvJ+1L9ZZ/Lje2j2o9fCbxy4mrI1TPXONcuXo+53n4j+catm+Nudtzi33p+O+/26zuFd/ruzrlHuFdyX+t+2QPjB5W/2/++r8Or49jDkIetjxIf3X3Me/zyiezJ584FT2lPy56ZPat67vb8aFdY1+UXY190vpS87Osu/kP7jw2v7F79+mfQn609Y3o6X0tf979Z8tbw7c6/PP5q6Y3rffAu/13f+5IPhh92fWR+PPsp9dOzvimfSZ/Lv9h/afwa9fVef35/v4Qr5Q58CmBwoFlZALzZCQAtDQA67NsoY5W94IAgyv51AIH/hJX94oB4AVADv9/ju+HXzU0A9m+H7Rfk14S9ahwNgCQfgLq7Dw2VyLLc3ZRcVNinEB7097+FPRtpFQBflvf391X293/ZBoOFvWOzWNmDKoQIe4YtoV8y8zPBvxFlf/pdjj/egSICD/Dj/V8iQ5DbRtvzzwAAAIplWElmTU0AKgAAAAgABAEaAAUAAAABAAAAPgEbAAUAAAABAAAARgEoAAMAAAABAAIAAIdpAAQAAAABAAAATgAAAAAAAACQAAAAAQAAAJAAAAABAAOShgAHAAAAEgAAAHigAgAEAAAAAQAAAeSgAwAEAAAAAQAAAFwAAAAAQVNDSUkAAABTY3JlZW5zaG90rfSVLAAAAAlwSFlzAAAWJQAAFiUBSVIk8AAAAdVpVFh0WE1MOmNvbS5hZG9iZS54bXAAAAAAADx4OnhtcG1ldGEgeG1sbnM6eD0iYWRvYmU6bnM6bWV0YS8iIHg6eG1wdGs9IlhNUCBDb3JlIDYuMC4wIj4KICAgPHJkZjpSREYgeG1sbnM6cmRmPSJodHRwOi8vd3d3LnczLm9yZy8xOTk5LzAyLzIyLXJkZi1zeW50YXgtbnMjIj4KICAgICAgPHJkZjpEZXNjcmlwdGlvbiByZGY6YWJvdXQ9IiIKICAgICAgICAgICAgeG1sbnM6ZXhpZj0iaHR0cDovL25zLmFkb2JlLmNvbS9leGlmLzEuMC8iPgogICAgICAgICA8ZXhpZjpQaXhlbFlEaW1lbnNpb24+OTI8L2V4aWY6UGl4ZWxZRGltZW5zaW9uPgogICAgICAgICA8ZXhpZjpQaXhlbFhEaW1lbnNpb24+NDg0PC9leGlmOlBpeGVsWERpbWVuc2lvbj4KICAgICAgICAgPGV4aWY6VXNlckNvbW1lbnQ+U2NyZWVuc2hvdDwvZXhpZjpVc2VyQ29tbWVudD4KICAgICAgPC9yZGY6RGVzY3JpcHRpb24+CiAgIDwvcmRmOlJERj4KPC94OnhtcG1ldGE+CnbjyV8AAAAcaURPVAAAAAIAAAAAAAAALgAAACgAAAAuAAAALgAADjTff2wWAAAOAElEQVR4Aeydd6wVRRvGX5qEEor0UJQiVeAPWgA1CIQOhq4UaYJKM4oU6VFKAKUqzdCLAiIdRFBQhIAFpIOaSIwiVQhV+EA+n9U9zM6Z2VMu59691+dNyNmdnZ2d/c0780zbS7oKFSrcExoJkAAJkAAJkECKEkhHQU5R/nw4CZAACZAACTgEKMh0BBIgARIgARIIAAEKcgAKgVkgARIgARIgAQoyfYAESIAESIAEAkCAghyAQmAWSIAESIAESICCTB8gARIgARIggQAQoCAHoBCYBRIgARIgARKgINMHSIAESIAESCAABCjIASgEZoEESIAESIAEKMj0ARIgARIgARIIAAEKcgAKgVkgARIgARIgAQoyfYAESIAESIAEAkCAghyAQmAWSIAESIAESICCTB8gARIgARIggQAQoCAHoBCYBRIgARIgARKgINMHSIAESIAESCAABCjIASgEZoEESIAESIAEKMj0ARIgARIgARIIAAEKcgAKgVkgARIgARIgAQoyfYAESIAESIAEAkCAghyAQmAWSIAESIAESICCTB8gARIgARIggQAQoCAHoBCYBRIgARIgARKgINMHSIAESIAESCAABCjIASgEZoEESIAESIAEKMj0ARIgARIgARIIAAEKcgAKgVkgARIgARIggWQX5M5lMjrUK+bJIJXzppeDF/5yzpee/J/ze+jiP+csGhIgARIgARL4LxFINkGGEHcqkykiWwjzkpN3IsZjBBIgARIgARJISwQSLsiV8qR3hBij4WgNo2YIM0fL0RJjPBIgARIggdROIKGCDDGeVDtz3Iw4Wo4bHW8kARIgARJIZQQSKsgTa2V21ol1Ju56MUbCGDm768l6PJw3XH/TFMwwEiABEiABEkhTBBImyKY1Y7+paNvUNkfJacrf+DIkQAIkQAIWAgkRZNNUNcR40J5blmzcDzYJOUX5Ph8ekQAJkAAJpE0CySbIA3ffinqT1tYWWTy0KcgeHDwhARIgARJIgwQSIsj62nG0o2OXrz5KjvV+N53k/s2ePbvkzp1bLl++LFevXk3ux/N5aZhA5syZJWfOnI5v3b59Ow2/qf3V0qdP7zBAjEuXLtkj8kogCaRLl05y5col2bJlkwsXLsiff/6ZsHyivuTNm9d5xh9//CH37t1L2LMeZMLJIsixjI7xcqYp70Rs7ho1apSUL1/ew3P8+PHy/fffe8JsJ+XKlZO2bdtKtWrVJH/+/I6juXHhbGfOnJEDBw7IRx99JAcPHnQv+f42aNBAevTo4Ynz2Wefydy5cz1hppP3339fcuTI4bn08ssvCxxSNVSMDz/8UA3yHN+8eVOuXLni/Pvxxx/lm2++kRMnTshff/n/0Ra/dD/99FOZN2+e5zmmk8aNG0vXrl09l1566aWoG+CpU6dKpUqVPPfjBO8wePDgsHBTgO09nn/+ebl1K/KyiynNWMMefvhhadasmdSpU0cef/xxyZo1q5MEGpbz58/L6dOn5fDhw7Jx40Y5evRoWPLwa/i3aj/99JMMGzZMDTIejxkzRh577DHPNaQFH9DNVIf0OPo5/EsvYz2Oe16rVi2pX7++1K5dWwoVKiQQZRjSAINffvlFPv/8c9m2bZtcu3bNvS30a8pfpDres2dP55mhRP4+QH147bXXQh1tU7pqfNOx6b1tvubeH29ddO83/b799ttStGhR06WYwvr16yfnzp2z3oOyeuKJJ6R169ZStmxZyZcvnzz00EOh+GCKNvKLL75w2sjffvstdC3WgwIFCkirVq2kbt26jp9A+F27c+eOk0/4/+rVq2Xnzp1y9+5d97L111Y2iWwHEiLI+pRzrIIMQg8iDSvpfy8sXLhQqlat6onWu3dv+fLLLz1h+gkaKzRaFSpU0C9Zz3/44QcZMWKEsfFUb3ruuefCGs2PP/5YRo4cqUYzHiPfaMhVq1evnpw9e1YNEjgaGvNYDJVlxowZsmnTJmtv0y9djOpatGghv/76q+9jO3fuHCacqGR+Fd9NEJ2i7du3hxptNxy/qJQQN8xeRDLbe8BXEtmrd/P11FNPOf6ll6V7Xf/9+eefBSKzZ8+e0KXq1avL/PnzQ+c4OHLkiDz77LOeMNPJBx98IBUrVvRc6tKli3z33XeeMJyY6lBYJC3g+vXrUqNGDS3Ue4rZJtSXpk2bei9YztBRQtkPGTLE45+m/PnVcdQXdOrgA66hEwTxQUPumild95rt1/TeNl+zpYHwaOqi3/3r1q2TkiVL+kWJ6lqjRo2s9blhw4YycOBAKViwYFRpobOP9gtlHsvsBwYgo0ePdjpQbmct0gMxOp88ebKsX7/eN6qtbBLZDlCQYxTkp59+WiZMmBAasfiWqHYRjcbQoUNl69at2pX7p0EVZDeH6GFidGAymwO7cTGS6d+/v3tq/E2KIKPnOmjQIGO6CHzzzTdl5cqV1uvuBdt7JLIi4tmZMmVyRmGdOnXyCIKbL79fjEJOnjwZipKaBRkzHBMnTpQiRYqE3ieaA8wkvfLKK56oJuG0CXKJEiUEnRFMqao2e/Zseffdd9UgMaXriWA4eVCC7CbtVxfdOKbfRAoy6g74YmYuHkNno2/fvoKZuUj26KOPynvvvSePPPJIpKjG6+iwovNlm/lLiXYgIYKMKWfV4vmLW0EcIdesWVPmzJljHIGp7+t3jN42HA7TNCYLuiAjz+iQLFmyJCz7NgdWI77wwguyd+9eNchznBRBXrFihWfWAhVN7TXv379fINqRzPYeiRRkPHPBggVhMzaR8orrppFvahVkTFHPmjVLMmTIEM2re+KYhNYknKZ4GJFjGQeNvGq7du2SPn36hDXapnTV+0zHD1qQ8QxbXTQ93w1LpCBjJuHFF190HxXXL/bfPPPMM76zYnny5BG8hzo1Hc/DUI6YwjdZirQDf0+7BnK1O2iCjE0CcABTrx1reIsXL5bjx4/LxYsXnR4b1pexHopGXLfff//dcbgbN27olyQlBfmNN95w1laweQjrPZg6xdqPblj3wZSUvg5jc2D1fqzjYDSn3+vGiVeQ0ZBiPVW1NWvWSMuWLUNB6AxhjR78/cz2HokUZPjKpEmTwrKFdTZ0NA4dOuSs4WJavnTp0lKlShXnXbAmhxkLjJZUS0lBxl4B1AWbYfkA08u6ofOEMjNNp+7evVt27NjhcECDDQZlypRx6ljx4sWdMoVP6qMdk3Dqgozynj59umD2SzUsr7Rr185ZP1bDcWxKN573tvlaUuuinl/1HJxQx3WrXLmy0y6p4SjHVatWqUGhYyxfoZPhGpbyEDdjxn/+AyE3HPUOsxe4durUKUG7h7JDG4kllMKFC7tRQ7+m2Y7Qxb8PUFdQZ3TD0taiRYvk66+/dnwCG7vQhmEwBZHXDf7Svn17o7/ayiaR7UBCRsj6S9vOMZK2jZ6DJsgY1WJzkW7Lli1z1u/0cJyjl4/GEpsNdEPlnTJlih6cooJscrSOHTsKGgfdOnTo4DSOarjNgdU4OMZ6J7iZLF5BRiOLf65B8CG+n3zyiTMV7IaDeaTNZbb3MPFx003KL0R1w4YNYQ0Tpu/gc1gjNhl29KORwTS83rlLSUHWBc+Ud1MYNkialkOwWRGCiYbdZHhXCAw2dulmEk49f7rvIA3sFYDvq8sAatrRpKvGtx3H4mux1EXb8/zC4Utjx471RAHTV1991RNmO4EQoqOoGgQPy0iohybDPomZM2c6Gxf16/D9r776Sg929h+Y6jA2zvbq1cvTSVBvbtOmjbNGrc++oLOL9ky3WMpGvzfe82QVZHzOZPszmfi06fDFu85/xwiRDpogY91X78lh5263bt0iskeDgh6aaujJYQOJ3sik5AjZJjibN2+WYsWKqdmXAQMGhK2FmxwYYoFRhmoY9TVp0sS4wSpeQcboWJ1u/Pbbb52dvFhiwA5d17A2pY6a3XD11/QeuG7jo94bzzF2HL/++uueW7HfACOAaDazeW789yS1CXKWLFlky5Ytzqcq6vv4dXjVeLbjSMKJjX7YrIgyVw2bw/QZF/V6pHTVuH7HsfpatHXR75m2a0kRZLSNpr0xEFv88zN8QYAZE/0LEbyraU8IOg36aBdtCjaZ4dfPsINe32eA+PiiAaN31WItG/XeeI+TRZD174ojZRbirP/vUPHs1I70nGgrFabHsNNZNzSkaPgjGSq9vikE90Cojh075rk9iIKMNb0nn3zSk8/hw4fL2rVrPWEmB0aPFRu58OmOapiGfeutt9Qg5zgeQcYnPvpmrXfeecdZkzXxhCD7bRoxvQcylyhBNnX28Kkcdo/Ga6lNkLEDf9y4cZ7XxSwHGtlISwyem7QTvzqODhzWjbF+rFo0nQC/dNW0Ih3H6mvR1sVIzzVdT4ogm0bv+AwNn6yZPkfTn48d2djJrxqWJvDZlLq8hWUN7L/B7JBq0Qg/4uM+TIern18hHOvIKFPVYi0b9d54jxMqyKbviePNaEoKMr4L1qdtsA6G6RnVWWzvBidCDxDrf6pBpLGDUzWTgCTXZ082wcHIRf9u0SRqJgdGbxTr6kuXLlVf01nrwxQSPgdTLR5BNlXm5s2bO1O9+HZVn8rEjMW0adPUx3qOTe+BCDY+nptjPMHeBHTq8EzV3PyrYbEcpzZBhp9g9KIapjn1mQP1ejTHNuHct2+fszZfqlQpTzL4tAv1HfXbz2zpRvpkUk8zVl+Lti7qz4nmPCmCjHYM4qka1nG7d++uBlmP0TkyzUjon9thB/7y5cvD0ol2cIQbTevP8Af97z/EWjZhmYoj4P8AAAD//7WRT1AAABUJSURBVO2dBdQdNdPHU6G0OLQUOFiLFf1wKO58uBanuMPBi7s7xR0Kxd3d3eVDi3yUF6ctWmih9va3kHuSubN7d6/0ueXOnPM8u8kmk2Qi/yQzyW23wAILjHMNoL69Orpte01SN879XvjT/d+wsXXjB6MBAwa4JZZYIuK51157uWeffTbyO+aYY9zmm28e+Q0ePNitt956kV+W49JLL3XLL798FOSuu+5yRx99dOS31VZbuSOPPDLyu/POOx15qETke7rppouCrbbaau7777+P/Nq1a+fefffdyA8Hshg5cmTkv8UWW5Tl8Y8//nC9e/d2Y8fG9aHxPeyww9z999/vTj/9dLfuuutGvF999VW30047RX59+/Z1hx56aOS36qqruh9++CHy84727du7xx9/3HXv3t17OVk3t912m5tvvvlK37/++mu31lpruXHj9KavlYPImnxKTKt8mXvuuR3tIKTffvvNLbPMMqFX4felllrKXX311VE82sGNN94Y+WmOrbfe2s0wwwzRp+2339698cYbkR8OrQ8h788++6wsrPd4/vnnkzrybp7nnnuuW2ONNUIvd9ppp7nrr78+8ivq0PJHH19hhRUcfS0k2hj9fOjQoaG3+q7xrabcRdpakb6oZrqC54YbbuhOPvnkKNRjjz3mDjjggMhPc9x3332uZ8+e0Sfkcfzxx0d+WQ7a16STThoFOfzwwx28PdFvzzrrLO8sPVdZZRU3ZMiQkjvrZeeddy4r01dffZWMCWG8InUTxqvlvV0jAPl/urZ3Zy4XC9Zn8vpBo5LXd4aOTQCWsAt3a+8W6tohefpw8tmWgNy/f3+3+uqrR1kC/OjYeemEE05wm2yySRRc49GWgExDHTVqlJtmmmkSgGOAXHrppaM847j22mvdmWeeWeavNWDKfeuttyYD/AMPPOA6d+4cxaOz0+k9FQVkDXgYLMNOu+eee7q9997bJ5E8Seett96K/LxDKwffGgHItCvaV0iffPKJ23jjjUOvwu+aXAozCSIUAeQgmvrar18/99BDD0XfmJQwOQlp//33TyZboV/Rdw04b7rppjIwhi+TQyaJeUjjWymeVu60tlZrX6yUF+17LYD8wgsvuKmnnjpiSx9ETnmJNjHrrLNGwSWPbbbZxgHSIbFAoL3nJRZSTPZCGjFihFtyySVDL5dWN40YB3zCDQHkRzbo4vlHT8B44KDRkV/oAJxZVQPQktoSkAcOHOgWXXTRKEv4serLS/vss4/bY489ouDvvfee23LLLSO/tgTkKCMpjtdff90xWIwZM6YshNaAAW4AHGICIycxrFY32GAD9+effyZhtA6XtUJmBr7pppsmcf2/7bbbzr355pve6eaZZx7HLkNIN998szvppJNCr9K7Vg4+NqIj7rLLLg7gCUmbqIXf87xPTICMvGlXcnXEivD999/PU9zUMEWA8+KLL3b85aEifD2/IoDs42Q9s/piVry0b9UCcseOHZPJLfUY0r777uuefPLJ0CvznXFi8cUXj8Jcc8017uyzzy75wXO33XYruXn56KOPXJ8+fSK/LAeLjKuuuqosiOzfE3Ic8JmpOyBrW9Wshg958e8B1yec9dR4VALzLH5p37ROBWAwIIakhZMNJQyvvWuA/M477zgAKKRmBuQnnnjCHXfcce6nn34Ks1x61xrwBRdc4C677LIkDAMuq+QZZ5yxFIeXMAxbhnJ7Pg2QJ5lkEvfMM8+4qaaaqsTvxx9/dCuvvHLZdvojjzziZp555lI4ykC4vBMLIsoOW2JWwwtgDCiHhJz322+/0Kvw+8QEyJ06dYomUL6w7Ch9/PHH3lnVU+u7aYz++uuvZHL3+eefpwUp+Rfh6yPVE5Ar9UWfZpFntYDcoUOHpP54hqSNpeF3+a4B8pVXXhntIGmTem1hI3mHbg2QUV/Rv/3CgPDaeIZ/I8YB+EJ1B2Rtdfy/9474O7UC/+vFJytJrVNpjejEE08s20IsOmieccYZbp111omyAzhJfWmzArLU5UQF+cehNWC56kAGyCIktovYRkLHyWr5lFNOCT+7NEDG//zzz4/Canp5AiBntqlD0uqa71o58G9ER9xhhx3cwQcfDPsSNWrLevjw4artQCnhf14WWmghN8UUU0TeRbassU8YNmxYFD90MJmV+mi2iiebbLIwWLJzgH1ALaT18Sx+rDp33HHHVPsCH1fjW02509qaT0d75umLWrxKftUCMnwffvhhN8sss0RJFLUBeOqpp9z0008f8WABcPvtt5f81l9/fXfqqaeW3LwUtbnYbLPN3LHHHhvxwH6A8SSktLppxDjg060rIGu646yt5m6d27mhI3XDmgmxStY6lTZI77rrrmUrlk8//dRttNFGXo4Vn7fccosbr6+PwmHodeGFF0Z+GiCngUwUcbwDYxn0vyEVMer65ptvkoGIFYvsGOiB0QdnkdaAJSATH0OdRRZZJGLlJydrrrmmO+ecc6JvaYCMfgkjj5AAHXRKkrp06eKmnHLKyBtjM4zOJGnlIEwjOqI2AWGWTlppRmcyv5pbWyHnXUmgYwWUQyoCyFofCnlp73IHgzAYemlbi1r8ND+tjxMWQ6FHH3002Z2RcRms77jjDukduTW+1ZQ7ra3V2hejzOZ01ALIV1xxRZkhIu1IGomlZYXJmKa/Rz32yiuvlKIxbmiGfhjppe3clSL/88IEmIlwSEwQaeMhpdVNI8YBn25dAfmMZSeN9L9pW9Ub9uzo+szV0XXv0s4NHzXO3Td4jBvw4d/GXj5jPPPyC+MUec/bqTTLPgZNjACkpXFa+i+99FIZIGBNfc8990RRtNnb008/7djyziIAhwZNIwpJA7NKDQ1AZhIw++yzl1gBDuhuKEcaaXw1QGZigg5X5nXbbbdNtp+lHk8rw+STT56oFqTeMS1vmj8rczqytCzXykH8RnRErNXZlpOkTaRkmCz3xAbI1113nVtsscWiIuU9XRBFEg6tj4dAz24Mk6KQfv31V8dKLGuVr/GtJyD7tlZtXwzLk/e9FkDWTqIwVrCYyUO9evVSJ0FM0JmceOratWuipvJu/2TsePvtt70z83neeec5+ldId999tzvqqKNCrwm6U+YTnuCAvPqsHVy/RTv59EvPmz4e7QZ8FIOyXCWnAXyJScGXvJ1qwQUXTABEskff+cEHH0jvMnePHj2Soz/ygzQ+4jsgz5ZeSOjRpIV2+J33+eefP7FmDv2ZLGCMJvWkeQBHA4pvv/022bpnFaqRxlcDZOJiUCV3GJAlBhxyVaQBsmYpqeWpkt8hhxziHnzwwSiYVg4C+EEyClyjA6vzF1980THwhlTUICaMy/vEBsiajcWHH37omKDWQpX6+LTTTpv0TWkhjMUvOt80qsQ3LZ70z9PWqumLMp087loAmW3+gw46KEoGew5OEaCbr0TaQoQTHxh5yUXPa6+95liAhBQaj4b+8h09N7sxWXYsPk6euvFh6/WsKyBLva+2XX32+ONQC463ppb021/jXJ+H4zOwEpCJU40+Wqbl3Xk7FcZDbG+GRkHwQL8lLWQ97/DJtg2NPSR0FmuvvXZkRMB3BojnnnsuDJqE4QgSDTyNOCaDrjskTS/C97wNDR2QPGudtX2u8U0DZLbE2aaWekPOLspBWAPkSy65JFndhuWt5h2jMHkkSisHvBsByPC9/PLL3bLLLstriTSDv9LHHC8TGyAvvPDC7oYbbigr2e677+44UlMt5enjWt8hPU5FoAbSKA9fLZ70y9vWivZFmU4edy2APMccczhWmdwLEBL6Xq1ewzCAJOOrPPKUNr5qdxqkjadhOryzCJCnK9j9w0p70KBBUfC8dRNFqtExwQH51rU6u6k7xduqvgxbPzrSDQt0yppOui0AmfxpxgT4V5qZUdHopKjckKSxQvgNkGBrJqQsHS4TBfQ18lIQbRsGnnkbGvzoKKEVM/HTtuY0vmmADB9NN4+/JAnITFrYxpdWnWw5sQ2dRoC/nLSMHj06sbb++eefS9G0cvCxUYCsWZaTnmZjgL8kJoysJkKa2ABZu+CF8rArg76P43FZRHzqTe4G5QFO4hFOHrkhTUBKqjTIRx6+Wfn13/K2taJ90fMv8qwFkElHM36lPzKxkUZ8Pl/UGwAp1QasismPZvEOcGMDwHGrkABwVumyDfgw7CJyWY40WPT2Kz6cf+atGx++Hs+GArJ2VOnk3p3cEt07lOX9hxHjXN/H4hVyMwEyDQdDD3l5AQXBOASTfc7DoVtGrznXXHMlVr3cTkXFhjR48OCkAcqtGB+GRsUWkCQsuzlCxC1IpDPbbLMlxjc0+J7ilhzialvi+BdpaEwomDyExGyUmSa6tpA0vlmAzDYtHUvuPIQ8eZeAzNltqe/Ju72Jxea8884bJeEvL/GeWjn4BnAi9yz6/fff3XfffZcVpOwbEwv0pXPOOWfZN+qcQYTzuEweyBuGe9Q9t3mtuOKKiY5NWmq3JSAjz7QBmALS7rWBlr6ine3n5iz07Ayc3nCHPsZtYgyyK620UnILHn0GY8uQ8gInsqd/y0Ge+OElM563xreacqe1NW3yV6Qv+nwWedYKyGwDU0fSroMJDTYj9L0vv/wyAUxAEZsBJuXyjgfyXMl+gP4v73AgHv2EHSfsabC+ZtxmfEHlxw102J6ERJ9iF5CbuiSl1U2jxgHSrysgSyMsDZCXmqGDO3HpWF9GRi59b5S76/9H81oiya+tdMg+Q3T8iy66yDvVJ42AxkZlppG8nUqGo0EzOPTo0UN+StxssdDIpR4lDMwk4cADDwy9Su9pDU0bBAiLwY3sNJqFssY3C5DJkHZTVSmj/7xIQNYuaqmUjufJ9jQ3d4UkLSy1coThs965CAH9b1HS9IQhD0AMlQW7FVLfrNV1WwJymG/tnUmLdgMcYbWzqCEP4qKTZJdEEpPEagEZXpz9lkZIyJ0BmMl2SBogh9+1d63caW2t1r6opV/Jr1ZAhr9mwRymizw5BSFXqWEYJr0cj5RX/oZh2EHkqFXWGIi8sdGQO2khH66Slccs/fe0uvHfs57VjgN1BeS8Ot/eM3ZwG8/R0fWapr37z/Cx7qEvxoz/i8GYwjYbIJMnGgoWhVkNinAa0UDQJ997773a58gP836AkBleUWL1wfGpIsZXpKENAviz2md2K1cPDGCs4DxpDTgPUGLEJq+t8zx5hoDMbJeOSFohMWjmMbDTjN+Y4GDNyfYopJUjTCvrvdqOCE9059xtXrTO/02AzECLfQD1VJRqBWQmwpx6kOdpWXXRnwATT20ByKSdty/6fBZ51gOQGSOY9HJcqWg7Jq9ffPFFcmcAR/QqEW2EHRVtd7BSXPo8kz8srqW6x8dti3Gg4YCsrZJ9gbOeGrhrRmJZPCp9045acLQHq9csmmmmmZLD6QBYXsIkn8spKunCQn78IAJHo+SZ3TCMfGflik4mDYwJn9bQ0gCZONqNUhwLYRD024ga3zyAzJEHjLnSOnAIyNpVk8yk5TEG8qwReWQSEf4YBeHCozBaOTReml8tgAw/dmEw4JFnprW0vN+/CZApE6seBlrqvQjVCsiktdxyy5VulgvTlpdctBUgk6c8fTHMe973egCyT4uxBIMuxsq8xDY1cbLsQCQvVsCclGBCnpdQuR1xxBHu5ZdfzozSFuNAXQGZ0klLa/yKAqmmO4ZPPQ264IfFsNQJ511pAR6EZWXFdi6GNZLQTwDE/HgCRlfhDFuGTXPTKDB4IK0e47ew5fEM4rFNThroYzkSUInSGloWILN6YGUv9b2sVr3+UuObB5DJL4Zv0rralyMEZK3OuHRFGmv5uNpTOzMZHi3TyqHx0fxqBWR4AkgYEaIj4x5ujWhL/DgGxm0Ys6CbC2li3bIOy8CEFL0f9wCkbU2iX8YIEjlwOoE+F5IGnGlGiT6eduEM26z0Q28foPH18dOetW5Ze755+qIPW+RZT0AmXSaV/GAHdg60Y/qVJBYOXPwBGFOP1RK/pMed9thVpO1ecgMe1yJjk/HLL79UTKotxoG6A7K2skX3y0o5788nyq1qJFftSjtN6gAoK2HZ0dFp+k6XFlf6w4OZIJaQNAYaGatGtkC1W6Nk/CJuAJkLOzDsYYXKgMRfmmVhEd4WtvkkgL4Y4yUMZmhntCt0ydR5JQOz5itN9TlCZ0wf69atW7KC8nLgyfajUXNLgPGKdkw9MqHgVAN/GFPVc+xCX8yigXRIkz5CG2FVzLPZqe6ATIE1QMW/EqhqYE68ehtzwVM7yA6QsmVVzwZCWkYmAZOAScAkYBKoJIGGADKJalvXPjMA7LvDxiRA639qkZ9dTKOiW96SDzNrdHPob1kZc96QI0FyC4UtX/lbm5KXuU0CJgGTgEnAJNAICTQMkNP0wEULUSsYk17aLUBhXtj2YtXMr70YmQRMAiYBk4BJYEJLoGGA7AuStn3tv6c9i+qd0/jgnweQud5N/qxXFk/7ZhIwCZgETAImgXpKoOGATGZZLbMl7benKxWgkq65Unz5PQuQ/Xm0/v37l1loSj7mNgmYBEwCJgGTQKMkMEEA2WfeAzPuEJy9Thn/gYPiYwv41UpYJbP65Q5UTPE5JjRkyJDkHBp6Y65dNDIJmARMAiYBk0BbSmCCAnJbFtTSNgmYBEwCJgGTQDNLwAC5mWvH8mYSMAmYBEwCLSMBA+SWqWorqEnAJGASMAk0swQMkJu5dixvJgGTgEnAJNAyEjBAbpmqtoKaBEwCJgGTQDNLwAC5mWvH8mYSMAmYBEwCLSMBA+SWqWorqEnAJGASMAk0swQMkJu5dixvJgGTgEnAJNAyEjBAbpmqtoKaBEwCJgGTQDNLwAC5mWvH8mYSMAmYBEwCLSMBA+SWqWorqEnAJGASMAk0swQMkJu5dixvJgGTgEnAJNAyEjBAbpmqtoKaBEwCJgGTQDNLwAC5mWvH8mYSMAmYBEwCLSMBA+SWqWorqEnAJGASMAk0swQMkJu5dixvJgGTgEnAJNAyEjBAbpmqtoKaBEwCJgGTQDNLwAC5mWvH8mYSMAmYBEwCLSMBA+SWqWorqEnAJGASMAk0swQMkJu5dixvJgGTgEnAJNAyEjBAbpmqtoKaBEwCJgGTQDNLwAC5mWvH8mYSMAmYBEwCLSMBA+SWqWorqEnAJGASMAk0swQMkJu5dixvJgGTgEnAJNAyEvgvNMopidbEhNkAAAAASUVORK5CYII=;fontFamily=Helvetica;rounded=1;" parent="1" vertex="1">
          <mxGeometry x="100" y="93.3" width="175.74" height="33.4" as="geometry" />
        </mxCell>
        <mxCell id="1TfECa-dX_d4Ddrjt1kj-15" value="" style="shape=image;verticalLabelPosition=bottom;labelBackgroundColor=default;verticalAlign=top;aspect=fixed;imageAspect=0;image=data:image/svg+xml,PHN2ZyB4bWxuczp4bGluaz0iaHR0cDovL3d3dy53My5vcmcvMTk5OS94bGluayIgeG1sbnM9Imh0dHA6Ly93d3cudzMub3JnLzIwMDAvc3ZnIiB4bWw6c3BhY2U9InByZXNlcnZlIiBzdHlsZT0iZW5hYmxlLWJhY2tncm91bmQ6bmV3IDAgMCA3MDMgMjAyLjY7IiB2aWV3Qm94PSIwIDAgNzAzIDIwMi42IiB5PSIwcHgiIHg9IjBweCIgdmVyc2lvbj0iMS4xIj4mI3hhOzxzdHlsZSB0eXBlPSJ0ZXh0L2NzcyI+JiN4YTsJLnN0MHtmaWxsOiM4RjFCNTk7fSYjeGE7PC9zdHlsZT4mI3hhOzxnIGlkPSJJU1NOX3g1Rl9MT0dPIj4mI3hhOwk8Zz4mI3hhOwkJPHBvbHlnb24gcG9pbnRzPSIwLDMuMSAwLDE5OS4zIDM0LDE5OS4zIDM0LDMuMSAwLDMuMSIgY2xhc3M9InN0MCIvPiYjeGE7CQk8Zz4mI3hhOwkJCTxwYXRoIGQ9Ik0xMDYuNywwLjFjLTguOSwwLTE3LjIsMy4zLTIyLjksOS44Yy01LjcsNi4yLTguNSwxNC41LTguNSwyNC44YzAsOS4xLDIsMTcsNiwyMy41YzIuMSwzLjUsNS41LDgsMTAuMiwxMy41JiMxMDsmIzk7JiM5OyYjOTsmIzk7YzQuNyw1LjUsMTAuOSwxMi4yLDE4LjQsMTkuOWMxMy44LDE0LjUsMjMuMiwyNy4xLDI4LjIsMzcuN2M1LDEwLjMsNy41LDIyLjgsNy41LDM3LjdjMCwxMi0yLDIyLjctNS45LDMyLjImIzEwOyYjOTsmIzk7JiM5OyYjOTtjNi43LDIuNywxMS45LDMuMywxOC4xLDMuM2M5LjIsMCwxOC41LTMuMiwyMy43LTkuNWM1LjItNi40LDcuOC0xNSw3LjgtMjUuOWMwLTkuNS0yLTE4LTYtMjUuNWMtMi4xLTMuNi01LTcuNy04LjctMTIuNCYjMTA7JiM5OyYjOTsmIzk7JiM5O2MtMy43LTQuNy04LjMtOS45LTEzLjktMTUuNmMtOC42LTguOC0xNS43LTE2LjYtMjEuNC0yMy4zYy01LjctNi44LTkuOS0xMi43LTEyLjYtMTcuN2MtNS4yLTkuOS03LjgtMjIuNC03LjgtMzcuNSYjMTA7JiM5OyYjOTsmIzk7JiM5O2MwLTEyLDEuOC0yMi41LDUuMy0zMS42QzExNy43LDAuNSwxMTIuNCwwLjEsMTA2LjcsMC4xeiIgY2xhc3M9InN0MCIvPiYjeGE7CQkJPHBhdGggZD0iTTE4Mi44LDAuMWMtOC45LDAtMTYuMiwzLjMtMjEuOSw5LjhjLTUuNyw2LjItOC41LDE0LjUtOC41LDI0LjhjMCw5LjEsMiwxNyw2LDIzLjVjMi4xLDMuNSw1LjUsOCwxMC4yLDEzLjUmIzEwOyYjOTsmIzk7JiM5OyYjOTtjNC43LDUuNSwxMC45LDEyLjIsMTguNCwxOS45YzMuMiwzLjQsNi4yLDYuNyw5LDkuOVYzLjFsMCwwQzE5MS4zLDEuMSwxODYuOSwwLjEsMTgyLjgsMC4xeiIgY2xhc3M9InN0MCIvPiYjeGE7CQkJPHBhdGggZD0iTTY3LjksMTk5LjZjNC44LDEuOSw5LjQsMi45LDEzLjksMi45YzkuMiwwLDE3LjUtMy4yLDIyLjctOS41YzUuMi02LjQsNy44LTE1LDcuOC0yNS45YzAtOS41LTItMTgtNi0yNS41JiMxMDsmIzk7JiM5OyYjOTsmIzk7Yy0yLjEtMy42LTUtNy43LTguNy0xMi40Yy0zLjctNC43LTguMy05LjktMTMuOS0xNS42Yy02LTYuMi0xMS4zLTExLjgtMTUuOS0xN1YxOTkuNnoiIGNsYXNzPSJzdDAiLz4mI3hhOwkJCTxnPiYjeGE7CQkJCTxwb2x5Z29uIHBvaW50cz0iMjgzLjUsMy4xIDIyOC4xLDMuMSAyODMuNSwxMjcuNCIgY2xhc3M9InN0MCIvPiYjeGE7CQkJCTxwb2x5Z29uIHBvaW50cz0iMjI4LDc1LjYgMjI4LDE5OS4zIDI4Mi41LDE5OS4zIiBjbGFzcz0ic3QwIi8+JiN4YTsJCQk8L2c+JiN4YTsJCTwvZz4mI3hhOwk8L2c+JiN4YTs8L2c+JiN4YTs8ZyBpZD0iSVNTTl94NUZfVEVYVF8xXyI+JiN4YTsJPGc+JiN4YTsJCTxnPiYjeGE7CQkJPHBhdGggZD0iTTMyNy43LDE5OS4zdi0wLjljMi41LTAuMiwyLjgtMC40LDIuOC0zVjE4M2MwLTIuNi0wLjMtMi44LTIuOC0zdi0wLjloOC40djAuOWMtMi41LDAuMi0yLjgsMC40LTIuOCwzdjEyLjMmIzEwOyYjOTsmIzk7JiM5OyYjOTtjMCwyLjYsMC4zLDIuOCwyLjgsM3YwLjlIMzI3Ljd6IiBjbGFzcz0ic3QwIi8+JiN4YTsJCTwvZz4mI3hhOwkJPGc+JiN4YTsJCQk8cGF0aCBkPSJNMzU5LjgsMTgwYy0xLjcsMC4xLTIuNSwwLjUtMi42LDEuOWMtMC4xLDEtMC4yLDIuNC0wLjIsNS4ydjEyLjVIMzU2bC0xMy4yLTE2LjFoLTAuMXY3LjYmIzEwOyYjOTsmIzk7JiM5OyYjOTtjMCwyLjgsMC4xLDQuMywwLjIsNS4yYzAuMiwxLjUsMC44LDIsMywyLjF2MC45aC03LjR2LTAuOWMxLjgtMC4xLDIuNS0wLjUsMi43LTJjMC4xLTEsMC4yLTIuNSwwLjItNS4zdi02LjgmIzEwOyYjOTsmIzk7JiM5OyYjOTtjMC0yLjItMC4xLTIuNC0wLjctMy4yYy0wLjYtMC44LTEuMy0xLTIuNy0xLjF2LTAuOWg0LjhsMTIuOCwxNS4yaDAuMXYtNy4yYzAtMi44LTAuMS00LjMtMC4yLTUuMmMtMC4yLTEuNC0wLjktMS44LTMuMS0xLjkmIzEwOyYjOTsmIzk7JiM5OyYjOTt2LTAuOWg3LjRWMTgweiIgY2xhc3M9InN0MCIvPiYjeGE7CQkJPHBhdGggZD0iTTM3OC4zLDE4NGMtMC4zLTEuNS0wLjctMi4zLTEuMS0yLjljLTAuNS0wLjctMS4xLTAuOS0zLjMtMC45aC0ydjE1LjJjMCwyLjUsMC4yLDIuOCwzLjIsM3YwLjloLTkuMXYtMC45JiMxMDsmIzk7JiM5OyYjOTsmIzk7YzIuOC0wLjIsMy0wLjUsMy0zdi0xNS4yaC0xLjhjLTIuNiwwLTMuMiwwLjMtMy42LDFjLTAuNCwwLjUtMC43LDEuNC0xLDIuOGgtMWMwLjEtMS45LDAuMy00LDAuNC01LjdoMC43JiMxMDsmIzk7JiM5OyYjOTsmIzk7YzAuNCwwLjcsMC44LDAuOCwxLjcsMC44aDEyLjNjMC44LDAsMS4xLTAuMiwxLjYtMC44aDAuN2MwLDEuNCwwLjIsMy44LDAuMyw1LjZMMzc4LjMsMTg0eiIgY2xhc3M9InN0MCIvPiYjeGE7CQkJPHBhdGggZD0iTTM5Ny4yLDE5NC4zYy0wLjIsMS4xLTAuOCw0LTEuMSw0LjlIMzgxdi0wLjljMi44LTAuMiwzLjEtMC41LDMuMS0zdi0xMi4zYzAtMi44LTAuMy0yLjktMi42LTMuMXYtMC45aDE0JiMxMDsmIzk7JiM5OyYjOTsmIzk7YzAsMC43LDAuMiwyLjksMC4zLDQuNWwtMSwwLjJjLTAuMy0xLjMtMC42LTItMS0yLjZjLTAuNS0wLjctMS4zLTAuOS0zLjQtMC45SDM4OGMtMSwwLTEuMSwwLjEtMS4xLDF2N2gyLjhjMi44LDAsMy0wLjIsMy40LTIuMyYjMTA7JiM5OyYjOTsmIzk7JiM5O2gwLjl2NmgtMC45Yy0wLjQtMi4yLTAuNy0yLjQtMy40LTIuNGgtMi44djUuN2MwLDEuNSwwLjIsMi4yLDAuNywyLjVjMC42LDAuNCwxLjcsMC40LDMuMiwwLjRjMi4yLDAsMy4xLTAuMywzLjgtMSYjMTA7JiM5OyYjOTsmIzk7JiM5O2MwLjYtMC43LDEuMS0xLjcsMS42LTNMMzk3LjIsMTk0LjN6IiBjbGFzcz0ic3QwIi8+JiN4YTsJCQk8cGF0aCBkPSJNNDE3LjYsMTk5LjVjLTAuMywwLTAuNywwLTEuMSwwYy0yLjYtMC4xLTMuOS0wLjgtNS4zLTIuOWMtMS0xLjUtMi4xLTMuNC0zLTQuOWMtMC42LTAuOS0xLjEtMS4zLTIuNi0xLjMmIzEwOyYjOTsmIzk7JiM5OyYjOTtoLTAuOXY0LjljMCwyLjYsMC4zLDIuOCwyLjcsM3YwLjloLTguNHYtMC45YzIuNS0wLjIsMi44LTAuNCwyLjgtM1YxODNjMC0yLjYtMC4zLTIuOC0yLjctM3YtMC45aDcuOWMyLjQsMCwzLjksMC4zLDUuMSwxLjEmIzEwOyYjOTsmIzk7JiM5OyYjOTtjMS4zLDAuOCwyLjEsMi4yLDIuMSw0LjFjMCwyLjctMS43LDQuMy0zLjksNS4zYzAuNSwxLDEuOCwzLjEsMi43LDQuNWMxLjEsMS42LDEuOCwyLjUsMi41LDMuM2MwLjgsMC45LDEuNSwxLjIsMi4yLDEuNCYjMTA7JiM5OyYjOTsmIzk7JiM5O0w0MTcuNiwxOTkuNXogTTQwNi4xLDE4OS40YzEuNSwwLDIuNS0wLjIsMy4zLTAuOWMxLjEtMC45LDEuNi0yLjIsMS42LTMuOGMwLTMuNC0yLjEtNC42LTQuNC00LjZjLTAuOSwwLTEuNCwwLjEtMS42LDAuMyYjMTA7JiM5OyYjOTsmIzk7JiM5O2MtMC4yLDAuMi0wLjMsMC41LTAuMywxLjN2Ny42SDQwNi4xeiIgY2xhc3M9InN0MCIvPiYjeGE7CQkJPHBhdGggZD0iTTQ0MCwxODBjLTEuNywwLjEtMi41LDAuNS0yLjYsMS45Yy0wLjEsMS0wLjIsMi40LTAuMiw1LjJ2MTIuNWgtMS4xTDQyMywxODMuNGgtMC4xdjcuNiYjMTA7JiM5OyYjOTsmIzk7JiM5O2MwLDIuOCwwLjEsNC4zLDAuMiw1LjJjMC4yLDEuNSwwLjgsMiwzLDIuMXYwLjloLTcuNHYtMC45YzEuOC0wLjEsMi41LTAuNSwyLjctMmMwLjEtMSwwLjItMi41LDAuMi01LjN2LTYuOCYjMTA7JiM5OyYjOTsmIzk7JiM5O2MwLTIuMi0wLjEtMi40LTAuNy0zLjJjLTAuNi0wLjgtMS4zLTEtMi43LTEuMXYtMC45aDQuOGwxMi44LDE1LjJoMC4xdi03LjJjMC0yLjgtMC4xLTQuMy0wLjItNS4yYy0wLjItMS40LTAuOS0xLjgtMy4xLTEuOSYjMTA7JiM5OyYjOTsmIzk7JiM5O3YtMC45aDcuNFYxODB6IiBjbGFzcz0ic3QwIi8+JiN4YTsJCTwvZz4mI3hhOwkJPGc+JiN4YTsJCQk8cGF0aCBkPSJNNDUyLjgsMTk5LjN2LTAuOWMxLjktMC4yLDIuMi0wLjUsMS44LTEuOGMtMC40LTEuMi0xLTIuOC0xLjYtNC42aC02LjVjLTAuNSwxLjMtMC45LDIuNi0xLjMsMy45JiMxMDsmIzk7JiM5OyYjOTsmIzk7Yy0wLjYsMS45LTAuNCwyLjIsMS45LDIuNXYwLjloLTYuOHYtMC45YzItMC4zLDIuNC0wLjUsMy41LTMuMmw2LjQtMTYuMmwxLjEtMC4zYzEuOSw1LjMsNCwxMS4yLDYsMTYuNmMxLDIuNywxLjQsMywzLjQsMy4ydjAuOSYjMTA7JiM5OyYjOTsmIzk7JiM5O0g0NTIuOHogTTQ0OS45LDE4M0w0NDkuOSwxODNjLTEuMSwyLjYtMiw1LjItMi45LDcuN2g1LjZMNDQ5LjksMTgzeiIgY2xhc3M9InN0MCIvPiYjeGE7CQk8L2c+JiN4YTsJCTxnPiYjeGE7CQkJPHBhdGggZD0iTTQ3Ni45LDE4NGMtMC4zLTEuNS0wLjctMi4zLTEuMS0yLjljLTAuNS0wLjctMS4xLTAuOS0zLjMtMC45aC0ydjE1LjJjMCwyLjUsMC4yLDIuOCwzLjIsM3YwLjloLTkuMXYtMC45JiMxMDsmIzk7JiM5OyYjOTsmIzk7YzIuOC0wLjIsMy0wLjUsMy0zdi0xNS4yaC0xLjhjLTIuNiwwLTMuMiwwLjMtMy42LDFjLTAuNCwwLjUtMC43LDEuNC0xLDIuOGgtMWMwLjEtMS45LDAuMy00LDAuNC01LjdoMC43JiMxMDsmIzk7JiM5OyYjOTsmIzk7YzAuNCwwLjcsMC44LDAuOCwxLjcsMC44aDEyLjNjMC44LDAsMS4xLTAuMiwxLjYtMC44aDAuN2MwLDEuNCwwLjIsMy44LDAuMyw1LjZMNDc2LjksMTg0eiIgY2xhc3M9InN0MCIvPiYjeGE7CQkJPHBhdGggZD0iTTQ3OS45LDE5OS4zdi0wLjljMi41LTAuMiwyLjgtMC40LDIuOC0zVjE4M2MwLTIuNi0wLjMtMi44LTIuOC0zdi0wLjloOC40djAuOWMtMi41LDAuMi0yLjgsMC40LTIuOCwzdjEyLjMmIzEwOyYjOTsmIzk7JiM5OyYjOTtjMCwyLjYsMC4zLDIuOCwyLjgsM3YwLjlINDc5Ljl6IiBjbGFzcz0ic3QwIi8+JiN4YTsJCQk8cGF0aCBkPSJNNTExLjMsMTg4LjljMCw2LjctNC43LDEwLjgtMTAuNCwxMC44Yy01LjcsMC0xMC4yLTQuNC0xMC4yLTEwLjRjMC01LjUsMy45LTEwLjcsMTAuNS0xMC43JiMxMDsmIzk7JiM5OyYjOTsmIzk7QzUwNi42LDE3OC42LDUxMS4zLDE4Mi43LDUxMS4zLDE4OC45eiBNNDk0LjIsMTg4LjVjMCw1LjcsMywxMCw3LjQsMTBjMy40LDAsNi4zLTIuOSw2LjMtOC44YzAtNi41LTMuMi0xMC03LjItMTAmIzEwOyYjOTsmIzk7JiM5OyYjOTtDNDk3LjIsMTc5LjgsNDk0LjIsMTgyLjgsNDk0LjIsMTg4LjV6IiBjbGFzcz0ic3QwIi8+JiN4YTsJCQk8cGF0aCBkPSJNNTM0LjksMTgwYy0xLjcsMC4xLTIuNSwwLjUtMi42LDEuOWMtMC4xLDEtMC4yLDIuNC0wLjIsNS4ydjEyLjVINTMxbC0xMy4yLTE2LjFoLTAuMXY3LjYmIzEwOyYjOTsmIzk7JiM5OyYjOTtjMCwyLjgsMC4xLDQuMywwLjIsNS4yYzAuMiwxLjUsMC44LDIsMywyLjF2MC45aC03LjR2LTAuOWMxLjgtMC4xLDIuNS0wLjUsMi43LTJjMC4xLTEsMC4yLTIuNSwwLjItNS4zdi02LjgmIzEwOyYjOTsmIzk7JiM5OyYjOTtjMC0yLjItMC4xLTIuNC0wLjctMy4yYy0wLjYtMC44LTEuMy0xLTIuNy0xLjF2LTAuOWg0LjhsMTIuOCwxNS4yaDAuMXYtNy4yYzAtMi44LTAuMS00LjMtMC4yLTUuMmMtMC4yLTEuNC0wLjktMS44LTMuMS0xLjkmIzEwOyYjOTsmIzk7JiM5OyYjOTt2LTAuOWg3LjRWMTgweiIgY2xhc3M9InN0MCIvPiYjeGE7CQk8L2c+JiN4YTsJCTxnPiYjeGE7CQkJPHBhdGggZD0iTTU0Ny42LDE5OS4zdi0wLjljMS45LTAuMiwyLjItMC41LDEuOC0xLjhjLTAuNC0xLjItMS0yLjgtMS42LTQuNmgtNi41Yy0wLjUsMS4zLTAuOSwyLjYtMS4zLDMuOSYjMTA7JiM5OyYjOTsmIzk7JiM5O2MtMC42LDEuOS0wLjQsMi4yLDEuOSwyLjV2MC45aC02Ljh2LTAuOWMyLTAuMywyLjQtMC41LDMuNS0zLjJsNi40LTE2LjJsMS4xLTAuM2MxLjksNS4zLDQsMTEuMiw2LDE2LjZjMSwyLjcsMS40LDMsMy40LDMuMnYwLjkmIzEwOyYjOTsmIzk7JiM5OyYjOTtINTQ3LjZ6IE01NDQuNywxODNMNTQ0LjcsMTgzYy0xLjEsMi42LTIsNS4yLTIuOSw3LjdoNS42TDU0NC43LDE4M3oiIGNsYXNzPSJzdDAiLz4mI3hhOwkJPC9nPiYjeGE7CQk8Zz4mI3hhOwkJCTxwYXRoIGQ9Ik01NzIuNiwxOTQuM2MtMC4yLDEtMC44LDQtMS4xLDQuOWgtMTQuM3YtMC45YzIuNi0wLjIsMi45LTAuNCwyLjktM1YxODNjMC0yLjYtMC4yLTIuOC0yLjctM3YtMC45aDguNHYwLjkmIzEwOyYjOTsmIzk7JiM5OyYjOTtjLTIuNCwwLjItMi43LDAuMy0yLjcsM3YxMi4yYzAsMS42LDAuMiwyLjIsMC43LDIuNWMwLjYsMC4zLDEuNiwwLjQsMi45LDAuNGMxLjYsMCwyLjctMC4yLDMuNC0xYzAuNi0wLjYsMS4xLTEuNiwxLjYtMy4xJiMxMDsmIzk7JiM5OyYjOTsmIzk7TDU3Mi42LDE5NC4zeiIgY2xhc3M9InN0MCIvPiYjeGE7CQk8L2c+JiN4YTsJCTxnPiYjeGE7CQkJPHBhdGggZD0iTTYwMC4xLDE5NC4xYy0wLjQsMS40LTEuMiwzLjgtMS44LDQuOGMtMC45LDAuMi0zLjUsMC44LTUuNywwLjhjLTcuOCwwLTExLjItNS40LTExLjItMTAuMyYjMTA7JiM5OyYjOTsmIzk7JiM5O2MwLTYuNSw1LTEwLjgsMTIuMS0xMC44YzIuNSwwLDQuNywwLjcsNS41LDAuOGMwLjIsMS43LDAuNSwzLDAuNiw0LjhsLTEsMC4yYy0wLjgtMy40LTIuOC00LjYtNi00LjZjLTUuMSwwLTcuOCw0LjMtNy44LDkmIzEwOyYjOTsmIzk7JiM5OyYjOTtjMCw1LjgsMy4zLDkuNyw4LDkuN2MzLjEsMCw0LjctMS43LDYuMy00LjhMNjAwLjEsMTk0LjF6IiBjbGFzcz0ic3QwIi8+JiN4YTsJCTwvZz4mI3hhOwkJPGc+JiN4YTsJCQk8cGF0aCBkPSJNNjE3LjksMTk0LjNjLTAuMiwxLjEtMC44LDQtMS4xLDQuOWgtMTUuMnYtMC45YzIuOC0wLjIsMy4xLTAuNSwzLjEtM3YtMTIuM2MwLTIuOC0wLjMtMi45LTIuNi0zLjF2LTAuOWgxNCYjMTA7JiM5OyYjOTsmIzk7JiM5O2MwLDAuNywwLjIsMi45LDAuMyw0LjVsLTEsMC4yYy0wLjMtMS4zLTAuNi0yLTEtMi42Yy0wLjUtMC43LTEuMy0wLjktMy40LTAuOWgtMi4yYy0xLDAtMS4xLDAuMS0xLjEsMXY3aDIuOCYjMTA7JiM5OyYjOTsmIzk7JiM5O2MyLjgsMCwzLTAuMiwzLjQtMi4zaDAuOXY2aC0wLjljLTAuNC0yLjItMC43LTIuNC0zLjQtMi40aC0yLjh2NS43YzAsMS41LDAuMiwyLjIsMC43LDIuNWMwLjYsMC40LDEuNywwLjQsMy4yLDAuNCYjMTA7JiM5OyYjOTsmIzk7JiM5O2MyLjIsMCwzLjEtMC4zLDMuOC0xYzAuNi0wLjcsMS4xLTEuNywxLjYtM0w2MTcuOSwxOTQuM3oiIGNsYXNzPSJzdDAiLz4mI3hhOwkJCTxwYXRoIGQ9Ik02NDEuMSwxODBjLTEuNywwLjEtMi41LDAuNS0yLjYsMS45Yy0wLjEsMS0wLjIsMi40LTAuMiw1LjJ2MTIuNWgtMS4xbC0xMy4yLTE2LjFINjI0djcuNiYjMTA7JiM5OyYjOTsmIzk7JiM5O2MwLDIuOCwwLjEsNC4zLDAuMiw1LjJjMC4yLDEuNSwwLjgsMiwzLDIuMXYwLjloLTcuNHYtMC45YzEuOC0wLjEsMi41LTAuNSwyLjctMmMwLjEtMSwwLjItMi41LDAuMi01LjN2LTYuOCYjMTA7JiM5OyYjOTsmIzk7JiM5O2MwLTIuMi0wLjEtMi40LTAuNy0zLjJjLTAuNi0wLjgtMS4zLTEtMi43LTEuMXYtMC45aDQuOGwxMi44LDE1LjJoMC4xdi03LjJjMC0yLjgtMC4xLTQuMy0wLjItNS4yYy0wLjItMS40LTAuOS0xLjgtMy4xLTEuOSYjMTA7JiM5OyYjOTsmIzk7JiM5O3YtMC45aDcuNFYxODB6IiBjbGFzcz0ic3QwIi8+JiN4YTsJCQk8cGF0aCBkPSJNNjU5LjUsMTg0Yy0wLjMtMS41LTAuNy0yLjMtMS4xLTIuOWMtMC41LTAuNy0xLjEtMC45LTMuMy0wLjloLTIuMXYxNS4yYzAsMi41LDAuMywyLjgsMy4yLDN2MC45aC05LjF2LTAuOSYjMTA7JiM5OyYjOTsmIzk7JiM5O2MyLjgtMC4yLDMtMC41LDMtM3YtMTUuMmgtMS44Yy0yLjYsMC0zLjIsMC4zLTMuNiwxYy0wLjQsMC41LTAuNywxLjQtMSwyLjhoLTFjMC4xLTEuOSwwLjMtNCwwLjQtNS43aDAuNyYjMTA7JiM5OyYjOTsmIzk7JiM5O2MwLjQsMC43LDAuOCwwLjgsMS43LDAuOGgxMi4zYzAuOCwwLDEuMS0wLjIsMS42LTAuOGgwLjdjMCwxLjQsMC4yLDMuOCwwLjMsNS42TDY1OS41LDE4NHoiIGNsYXNzPSJzdDAiLz4mI3hhOwkJCTxwYXRoIGQ9Ik02ODEsMTk5LjVjLTAuMywwLTAuNywwLTEuMSwwYy0yLjYtMC4xLTMuOS0wLjgtNS4zLTIuOWMtMS0xLjUtMi4xLTMuNC0zLTQuOWMtMC42LTAuOS0xLjEtMS4zLTIuNi0xLjMmIzEwOyYjOTsmIzk7JiM5OyYjOTtoLTAuOXY0LjljMCwyLjYsMC4zLDIuOCwyLjcsM3YwLjloLTguNHYtMC45YzIuNS0wLjIsMi44LTAuNCwyLjgtM1YxODNjMC0yLjYtMC4zLTIuOC0yLjctM3YtMC45aDcuOWMyLjQsMCwzLjksMC4zLDUuMSwxLjEmIzEwOyYjOTsmIzk7JiM5OyYjOTtjMS4zLDAuOCwyLjEsMi4yLDIuMSw0LjFjMCwyLjctMS43LDQuMy0zLjksNS4zYzAuNSwxLDEuOCwzLjEsMi43LDQuNWMxLjEsMS42LDEuOCwyLjUsMi41LDMuM2MwLjgsMC45LDEuNSwxLjIsMi4yLDEuNCYjMTA7JiM5OyYjOTsmIzk7JiM5O0w2ODEsMTk5LjV6IE02NjkuNSwxODkuNGMxLjUsMCwyLjUtMC4yLDMuMy0wLjljMS4xLTAuOSwxLjYtMi4yLDEuNi0zLjhjMC0zLjQtMi4xLTQuNi00LjQtNC42Yy0wLjksMC0xLjQsMC4xLTEuNiwwLjMmIzEwOyYjOTsmIzk7JiM5OyYjOTtjLTAuMiwwLjItMC4zLDAuNS0wLjMsMS4zdjcuNkg2NjkuNXoiIGNsYXNzPSJzdDAiLz4mI3hhOwkJCTxwYXRoIGQ9Ik02OTguMSwxOTQuM2MtMC4yLDEuMS0wLjgsNC0xLjEsNC45aC0xNS4ydi0wLjljMi44LTAuMiwzLjEtMC41LDMuMS0zdi0xMi4zYzAtMi44LTAuMy0yLjktMi42LTMuMXYtMC45aDE0JiMxMDsmIzk7JiM5OyYjOTsmIzk7YzAsMC43LDAuMiwyLjksMC4zLDQuNWwtMSwwLjJjLTAuMy0xLjMtMC42LTItMS0yLjZjLTAuNS0wLjctMS4zLTAuOS0zLjQtMC45aC0yLjJjLTEsMC0xLjEsMC4xLTEuMSwxdjdoMi44JiMxMDsmIzk7JiM5OyYjOTsmIzk7YzIuOCwwLDMtMC4yLDMuNC0yLjNoMC45djZINjk0Yy0wLjQtMi4yLTAuNy0yLjQtMy40LTIuNGgtMi44djUuN2MwLDEuNSwwLjIsMi4yLDAuNywyLjVjMC42LDAuNCwxLjcsMC40LDMuMiwwLjQmIzEwOyYjOTsmIzk7JiM5OyYjOTtjMi4yLDAsMy4xLTAuMywzLjgtMWMwLjYtMC43LDEuMS0xLjcsMS42LTNMNjk4LjEsMTk0LjN6IiBjbGFzcz0ic3QwIi8+JiN4YTsJCTwvZz4mI3hhOwkJPGc+JiN4YTsJCQk8cGF0aCBkPSJNMzI3LjcsMjMuM3YtMC45YzIuNS0wLjIsMi44LTAuNCwyLjgtM1Y3YzAtMi42LTAuMy0yLjgtMi44LTNWMy4xaDguNFY0Yy0yLjUsMC4yLTIuOCwwLjQtMi44LDN2MTIuMyYjMTA7JiM5OyYjOTsmIzk7JiM5O2MwLDIuNiwwLjMsMi44LDIuOCwzdjAuOUgzMjcuN3oiLz4mI3hhOwkJPC9nPiYjeGE7CQk8Zz4mI3hhOwkJCTxwYXRoIGQ9Ik0zNjAuNSw0Yy0xLjcsMC4xLTIuNSwwLjUtMi42LDEuOWMtMC4xLDEtMC4yLDIuNC0wLjIsNS4ydjEyLjVoLTEuMUwzNDMuNCw3LjRoLTAuMXY3LjZjMCwyLjgsMC4xLDQuMywwLjIsNS4yJiMxMDsmIzk7JiM5OyYjOTsmIzk7YzAuMiwxLjUsMC44LDIsMywyLjF2MC45aC03LjR2LTAuOWMxLjgtMC4xLDIuNS0wLjUsMi43LTJjMC4xLTEsMC4yLTIuNSwwLjItNS4zVjguM2MwLTIuMi0wLjEtMi40LTAuNy0zLjImIzEwOyYjOTsmIzk7JiM5OyYjOTtjLTAuNi0wLjgtMS4zLTEtMi43LTEuMlYzLjFoNC44bDEyLjgsMTUuMmgwLjF2LTcuMmMwLTIuOC0wLjEtNC4zLTAuMi01LjJjLTAuMi0xLjQtMC45LTEuOC0zLjEtMS45VjMuMWg3LjRWNHoiLz4mI3hhOwkJCTxwYXRoIGQ9Ik0zNzguOSw4Yy0wLjMtMS41LTAuNy0yLjMtMS4xLTIuOWMtMC41LTAuNy0xLjEtMC45LTMuMy0wLjloLTIuMXYxNS4yYzAsMi41LDAuMiwyLjgsMy4yLDN2MC45aC05LjF2LTAuOSYjMTA7JiM5OyYjOTsmIzk7JiM5O2MyLjgtMC4yLDMtMC41LDMtM1Y0LjJoLTEuOGMtMi42LDAtMy4yLDAuMy0zLjYsMWMtMC40LDAuNS0wLjcsMS40LTEsMi44aC0xYzAuMS0xLjksMC4zLTQsMC40LTUuN2gwLjdjMC40LDAuNywwLjgsMC44LDEuNywwLjgmIzEwOyYjOTsmIzk7JiM5OyYjOTtoMTIuM2MwLjgsMCwxLjEtMC4yLDEuNi0wLjhoMC43YzAsMS40LDAuMiwzLjgsMC4zLDUuNkwzNzguOSw4eiIvPiYjeGE7CQkJPHBhdGggZD0iTTM5Ny44LDE4LjNjLTAuMiwxLjEtMC44LDQtMS4xLDQuOWgtMTUuMnYtMC45YzIuOC0wLjIsMy4xLTAuNSwzLjEtM1Y3LjFjMC0yLjgtMC4zLTIuOS0yLjYtMy4xVjMuMWgxNCYjMTA7JiM5OyYjOTsmIzk7JiM5O2MwLDAuNywwLjIsMi45LDAuMyw0LjVsLTEsMC4yYy0wLjMtMS4zLTAuNi0yLTEtMi42Yy0wLjUtMC43LTEuMy0wLjktMy40LTAuOWgtMi4yYy0xLDAtMS4xLDAuMS0xLjEsMXY3aDIuOCYjMTA7JiM5OyYjOTsmIzk7JiM5O2MyLjgsMCwzLTAuMywzLjQtMi4zaDAuOXY2aC0wLjljLTAuNC0yLjItMC43LTIuNC0zLjQtMi40aC0yLjh2NS43YzAsMS41LDAuMiwyLjIsMC43LDIuNmMwLjYsMC40LDEuNywwLjQsMy4yLDAuNCYjMTA7JiM5OyYjOTsmIzk7JiM5O2MyLjIsMCwzLjEtMC4yLDMuOC0xYzAuNi0wLjcsMS4xLTEuNywxLjYtM0wzOTcuOCwxOC4zeiIvPiYjeGE7CQkJPHBhdGggZD0iTTQxOC45LDIzLjVjLTAuMywwLTAuNywwLTEuMSwwYy0yLjYtMC4xLTMuOS0wLjgtNS4zLTIuOWMtMS0xLjUtMi4xLTMuNC0zLTQuOWMtMC42LTAuOS0xLjEtMS4zLTIuNi0xLjNINDA2djQuOSYjMTA7JiM5OyYjOTsmIzk7JiM5O2MwLDIuNiwwLjMsMi44LDIuNywzdjAuOWgtOC40di0wLjljMi41LTAuMiwyLjgtMC40LDIuOC0zVjdjMC0yLjYtMC4zLTIuOC0yLjctM1YzLjFoNy45YzIuNCwwLDMuOSwwLjMsNS4xLDEuMSYjMTA7JiM5OyYjOTsmIzk7JiM5O2MxLjMsMC44LDIuMSwyLjIsMi4xLDQuMWMwLDIuNy0xLjcsNC4zLTMuOSw1LjNjMC41LDEsMS44LDMuMSwyLjcsNC41YzEuMSwxLjYsMS44LDIuNSwyLjUsMy4zYzAuOCwwLjksMS41LDEuMiwyLjIsMS40JiMxMDsmIzk7JiM5OyYjOTsmIzk7TDQxOC45LDIzLjV6IE00MDcuNCwxMy40YzEuNSwwLDIuNS0wLjIsMy4zLTAuOWMxLjEtMC45LDEuNi0yLjIsMS42LTMuOGMwLTMuNC0yLjEtNC42LTQuNC00LjZjLTAuOSwwLTEuNCwwLjEtMS42LDAuMyYjMTA7JiM5OyYjOTsmIzk7JiM5O0M0MDYuMSw0LjYsNDA2LDUsNDA2LDUuOHY3LjZINDA3LjR6Ii8+JiN4YTsJCQk8cGF0aCBkPSJNNDQxLjMsNGMtMS43LDAuMS0yLjUsMC41LTIuNiwxLjljLTAuMSwxLTAuMiwyLjQtMC4yLDUuMnYxMi41aC0xLjFMNDI0LjIsNy40aC0wLjF2Ny42YzAsMi44LDAuMSw0LjMsMC4yLDUuMiYjMTA7JiM5OyYjOTsmIzk7JiM5O2MwLjIsMS41LDAuOCwyLDMsMi4xdjAuOUg0MjB2LTAuOWMxLjgtMC4xLDIuNS0wLjUsMi43LTJjMC4xLTEsMC4yLTIuNSwwLjItNS4zVjguM2MwLTIuMi0wLjEtMi40LTAuNy0zLjImIzEwOyYjOTsmIzk7JiM5OyYjOTtjLTAuNi0wLjgtMS4zLTEtMi43LTEuMlYzLjFoNC44bDEyLjgsMTUuMmgwLjF2LTcuMmMwLTIuOC0wLjEtNC4zLTAuMi01LjJjLTAuMi0xLjQtMC45LTEuOC0zLjEtMS45VjMuMWg3LjRWNHoiLz4mI3hhOwkJPC9nPiYjeGE7CQk8Zz4mI3hhOwkJCTxwYXRoIGQ9Ik00NTMsMjMuM3YtMC45YzEuOS0wLjIsMi4yLTAuNSwxLjgtMS44Yy0wLjQtMS4yLTEtMi44LTEuNi00LjZoLTYuNWMtMC41LDEuMy0wLjksMi42LTEuMywzLjljLTAuNiwxLjktMC40LDIuMiwxLjksMi41JiMxMDsmIzk7JiM5OyYjOTsmIzk7djAuOWgtNi44di0wLjljMi0wLjMsMi40LTAuNSwzLjUtMy4ybDYuNC0xNi4ybDEuMS0wLjNjMS45LDUuMyw0LDExLjIsNiwxNi42YzEsMi43LDEuNCwzLDMuNCwzLjJ2MC45SDQ1M3ogTTQ1MC4xLDdMNDUwLjEsNyYjMTA7JiM5OyYjOTsmIzk7JiM5O2MtMS4xLDIuNi0yLDUuMi0yLjksNy43aDUuNkw0NTAuMSw3eiIvPiYjeGE7CQk8L2c+JiN4YTsJCTxnPiYjeGE7CQkJPHBhdGggZD0iTTQ3Ni44LDhjLTAuMy0xLjUtMC43LTIuMy0xLjEtMi45Yy0wLjUtMC43LTEuMS0wLjktMy4zLTAuOWgtMi4xdjE1LjJjMCwyLjUsMC4yLDIuOCwzLjIsM3YwLjloLTkuMXYtMC45JiMxMDsmIzk7JiM5OyYjOTsmIzk7YzIuOC0wLjIsMy0wLjUsMy0zVjQuMmgtMS44Yy0yLjYsMC0zLjIsMC4zLTMuNiwxYy0wLjQsMC41LTAuNywxLjQtMSwyLjhoLTFjMC4xLTEuOSwwLjMtNCwwLjQtNS43aDAuN2MwLjQsMC43LDAuOCwwLjgsMS43LDAuOCYjMTA7JiM5OyYjOTsmIzk7JiM5O2gxMi4zYzAuOCwwLDEuMS0wLjIsMS42LTAuOGgwLjdjMCwxLjQsMC4yLDMuOCwwLjMsNS42TDQ3Ni44LDh6Ii8+JiN4YTsJCQk8cGF0aCBkPSJNNDgwLDIzLjN2LTAuOWMyLjUtMC4yLDIuOC0wLjQsMi44LTNWN2MwLTIuNi0wLjMtMi44LTIuOC0zVjMuMWg4LjRWNGMtMi41LDAuMi0yLjgsMC40LTIuOCwzdjEyLjNjMCwyLjYsMC4zLDIuOCwyLjgsMyYjMTA7JiM5OyYjOTsmIzk7JiM5O3YwLjlINDgweiIvPiYjeGE7CQkJPHBhdGggZD0iTTUxMS43LDEyLjljMCw2LjctNC43LDEwLjgtMTAuNCwxMC44Yy01LjcsMC0xMC4yLTQuNC0xMC4yLTEwLjRjMC01LjUsMy45LTEwLjcsMTAuNS0xMC43QzUwNywyLjYsNTExLjcsNi43LDUxMS43LDEyLjkmIzEwOyYjOTsmIzk7JiM5OyYjOTt6IE00OTQuNiwxMi41YzAsNS43LDMsMTAsNy40LDEwYzMuNCwwLDYuMy0yLjksNi4zLTguOGMwLTYuNS0zLjItMTAtNy4yLTEwQzQ5Ny42LDMuOCw0OTQuNiw2LjgsNDk0LjYsMTIuNXoiLz4mI3hhOwkJCTxwYXRoIGQ9Ik01MzUuNiw0Yy0xLjcsMC4xLTIuNSwwLjUtMi42LDEuOWMtMC4xLDEtMC4yLDIuNC0wLjIsNS4ydjEyLjVoLTEuMUw1MTguNiw3LjRoLTAuMXY3LjZjMCwyLjgsMC4xLDQuMywwLjIsNS4yJiMxMDsmIzk7JiM5OyYjOTsmIzk7YzAuMiwxLjUsMC44LDIsMywyLjF2MC45aC03LjR2LTAuOWMxLjgtMC4xLDIuNS0wLjUsMi43LTJjMC4xLTEsMC4yLTIuNSwwLjItNS4zVjguM2MwLTIuMi0wLjEtMi40LTAuNy0zLjImIzEwOyYjOTsmIzk7JiM5OyYjOTtjLTAuNi0wLjgtMS4zLTEtMi43LTEuMlYzLjFoNC44bDEyLjgsMTUuMmgwLjF2LTcuMmMwLTIuOC0wLjEtNC4zLTAuMi01LjJjLTAuMi0xLjQtMC45LTEuOC0zLjEtMS45VjMuMWg3LjRWNHoiLz4mI3hhOwkJPC9nPiYjeGE7CQk8Zz4mI3hhOwkJCTxwYXRoIGQ9Ik01NDguMywyMy4zdi0wLjljMS45LTAuMiwyLjItMC41LDEuOC0xLjhjLTAuNC0xLjItMS0yLjgtMS42LTQuNmgtNi41Yy0wLjUsMS4zLTAuOSwyLjYtMS4zLDMuOSYjMTA7JiM5OyYjOTsmIzk7JiM5O2MtMC42LDEuOS0wLjQsMi4yLDEuOSwyLjV2MC45aC02Ljh2LTAuOWMyLTAuMywyLjQtMC41LDMuNS0zLjJsNi40LTE2LjJsMS4xLTAuM2MxLjksNS4zLDQsMTEuMiw2LDE2LjZjMSwyLjcsMS40LDMsMy40LDMuMnYwLjkmIzEwOyYjOTsmIzk7JiM5OyYjOTtINTQ4LjN6IE01NDUuMyw3TDU0NS4zLDdjLTEuMSwyLjYtMiw1LjItMi45LDcuN2g1LjZMNTQ1LjMsN3oiLz4mI3hhOwkJPC9nPiYjeGE7CQk8Zz4mI3hhOwkJCTxwYXRoIGQ9Ik01NzIuNiwxOC4zYy0wLjIsMS0wLjgsNC0xLjEsNC45aC0xNC4zdi0wLjljMi42LTAuMiwyLjktMC40LDIuOS0zVjdjMC0yLjYtMC4yLTIuOC0yLjctM1YzLjFoOC40VjQmIzEwOyYjOTsmIzk7JiM5OyYjOTtjLTIuNCwwLjItMi43LDAuMy0yLjcsM3YxMi4yYzAsMS42LDAuMiwyLjIsMC43LDIuNmMwLjYsMC4zLDEuNiwwLjQsMi45LDAuNGMxLjYsMCwyLjctMC4yLDMuNC0xYzAuNi0wLjYsMS4xLTEuNiwxLjYtMy4xJiMxMDsmIzk7JiM5OyYjOTsmIzk7TDU3Mi42LDE4LjN6Ii8+JiN4YTsJCTwvZz4mI3hhOwkJPGc+JiN4YTsJCQk8cGF0aCBkPSJNMzM4LjUsNTEuOWMtMC42LTItMS41LTQuMi00LjEtNC4yYy0yLjMsMC0zLjQsMS42LTMuNCwzLjRjMCwyLjIsMS40LDMuMiwzLjksNC41YzIuNiwxLjMsNS40LDIuOCw1LjQsNi4yJiMxMDsmIzk7JiM5OyYjOTsmIzk7YzAsMy4zLTIuOCw2LTcsNmMtMS4yLDAtMi4zLTAuMi0zLTAuNWMtMC44LTAuMy0xLjMtMC41LTEuNi0wLjdjLTAuMy0wLjctMC43LTMuMy0wLjgtNC45bDEtMC4zYzAuNSwxLjksMiw1LjEsNS4xLDUuMSYjMTA7JiM5OyYjOTsmIzk7JiM5O2MyLjMsMCwzLjYtMS40LDMuNi0zLjZjMC0yLjItMS42LTMuMy00LTQuNmMtMi4yLTEuMS01LjItMi43LTUuMi02LjFjMC0zLDIuNS01LjYsNi41LTUuNmMxLjYsMCwyLjksMC40LDQsMC43JiMxMDsmIzk7JiM5OyYjOTsmIzk7YzAuMSwxLjEsMC4zLDIuNCwwLjYsNC4zTDMzOC41LDUxLjl6Ii8+JiN4YTsJCQk8cGF0aCBkPSJNMzU5LjIsNTJjLTAuMy0xLjUtMC43LTIuMy0xLjEtMi45Yy0wLjUtMC43LTEuMS0wLjktMy4zLTAuOWgtMi4xdjE1LjJjMCwyLjUsMC4yLDIuOCwzLjIsM3YwLjloLTkuMXYtMC45JiMxMDsmIzk7JiM5OyYjOTsmIzk7YzIuOC0wLjIsMy0wLjUsMy0zVjQ4LjJoLTEuOGMtMi42LDAtMy4yLDAuMy0zLjYsMWMtMC40LDAuNS0wLjcsMS40LTEsMi44aC0xYzAuMS0xLjksMC4zLTQsMC40LTUuN2gwLjcmIzEwOyYjOTsmIzk7JiM5OyYjOTtjMC40LDAuNywwLjgsMC44LDEuNywwLjhoMTIuM2MwLjgsMCwxLjEtMC4yLDEuNi0wLjhoMC43YzAsMS40LDAuMiwzLjgsMC4zLDUuNkwzNTkuMiw1MnoiLz4mI3hhOwkJPC9nPiYjeGE7CQk8Zz4mI3hhOwkJCTxwYXRoIGQ9Ik0zNzEuNSw2Ny4zdi0wLjljMS45LTAuMiwyLjItMC41LDEuOC0xLjhjLTAuNC0xLjItMS0yLjgtMS42LTQuNmgtNi41Yy0wLjUsMS4zLTAuOSwyLjYtMS4zLDMuOSYjMTA7JiM5OyYjOTsmIzk7JiM5O2MtMC42LDEuOS0wLjQsMi4yLDEuOSwyLjV2MC45aC02Ljh2LTAuOWMyLTAuMywyLjQtMC41LDMuNS0zLjJsNi40LTE2LjJsMS4xLTAuM2MxLjksNS4zLDQsMTEuMiw2LDE2LjZjMSwyLjcsMS40LDMsMy40LDMuMnYwLjkmIzEwOyYjOTsmIzk7JiM5OyYjOTtIMzcxLjV6IE0zNjguNSw1MUwzNjguNSw1MWMtMS4xLDIuNi0yLDUuMi0yLjksNy43aDUuNkwzNjguNSw1MXoiLz4mI3hhOwkJPC9nPiYjeGE7CQk8Zz4mI3hhOwkJCTxwYXRoIGQ9Ik00MDEuOCw0OGMtMS43LDAuMS0yLjUsMC41LTIuNiwxLjljLTAuMSwxLTAuMiwyLjQtMC4yLDUuMnYxMi41aC0xLjFsLTEzLjItMTYuMWgtMC4xdjcuNmMwLDIuOCwwLjEsNC4zLDAuMiw1LjImIzEwOyYjOTsmIzk7JiM5OyYjOTtjMC4yLDEuNSwwLjgsMiwzLDIuMXYwLjloLTcuNHYtMC45YzEuOC0wLjEsMi41LTAuNSwyLjctMmMwLjEtMSwwLjItMi41LDAuMi01LjN2LTYuOGMwLTIuMi0wLjEtMi40LTAuNy0zLjImIzEwOyYjOTsmIzk7JiM5OyYjOTtjLTAuNi0wLjgtMS4zLTEtMi43LTEuMXYtMC45aDQuOGwxMi44LDE1LjJoMC4xdi03LjJjMC0yLjgtMC4xLTQuMy0wLjItNS4yYy0wLjItMS40LTAuOS0xLjgtMy4xLTEuOXYtMC45aDcuNFY0OHoiLz4mI3hhOwkJCTxwYXRoIGQ9Ik00MTMuNCw0Ny4xYzMuOSwwLDYuOSwwLjgsOC44LDIuN2MxLjUsMS41LDIuNiwzLjcsMi42LDYuNmMwLDMuNy0xLjUsNi41LTMuOCw4LjNjLTIuMywxLjgtNS41LDIuNi05LjMsMi42aC03LjV2LTAuOSYjMTA7JiM5OyYjOTsmIzk7JiM5O2MyLjYtMC4yLDIuOS0wLjQsMi45LTNWNTFjMC0yLjYtMC4yLTIuOC0yLjYtM3YtMC45SDQxMy40eiBNNDEwLjEsNjMuMWMwLDIuMywwLjksMi45LDMuMiwyLjljNS41LDAsOC4zLTQuMSw4LjMtOS4yJiMxMDsmIzk7JiM5OyYjOTsmIzk7YzAtMy4yLTEuMS01LjktMy40LTcuM2MtMS40LTEtMy4xLTEuNC01LjItMS40Yy0xLjMsMC0yLDAuMi0yLjQsMC40Yy0wLjMsMC4yLTAuNCwwLjYtMC40LDEuOFY2My4xeiIvPiYjeGE7CQk8L2c+JiN4YTsJCTxnPiYjeGE7CQkJPHBhdGggZD0iTTQzOSw2Ny4zdi0wLjljMS45LTAuMiwyLjItMC41LDEuOC0xLjhjLTAuNC0xLjItMS0yLjgtMS42LTQuNmgtNi41Yy0wLjUsMS4zLTAuOSwyLjYtMS4zLDMuOWMtMC42LDEuOS0wLjQsMi4yLDEuOSwyLjUmIzEwOyYjOTsmIzk7JiM5OyYjOTt2MC45aC02Ljh2LTAuOWMyLTAuMywyLjQtMC41LDMuNS0zLjJsNi40LTE2LjJsMS4xLTAuM2MxLjksNS4zLDQsMTEuMiw2LDE2LjZjMSwyLjcsMS40LDMsMy40LDMuMnYwLjlINDM5eiBNNDM2LDUxTDQzNiw1MSYjMTA7JiM5OyYjOTsmIzk7JiM5O2MtMS4xLDIuNi0yLDUuMi0yLjksNy43aDUuNkw0MzYsNTF6Ii8+JiN4YTsJCTwvZz4mI3hhOwkJPGc+JiN4YTsJCQk8cGF0aCBkPSJNNDY1LjcsNjcuNWMtMC4zLDAtMC43LDAtMS4xLDBjLTIuNi0wLjEtMy45LTAuOC01LjMtMi45Yy0xLTEuNS0yLjEtMy40LTMtNC45Yy0wLjYtMC45LTEuMS0xLjMtMi42LTEuM2gtMC45djQuOSYjMTA7JiM5OyYjOTsmIzk7JiM5O2MwLDIuNiwwLjMsMi44LDIuNywzdjAuOWgtOC40di0wLjljMi41LTAuMiwyLjgtMC40LDIuOC0zVjUxYzAtMi42LTAuMy0yLjgtMi43LTN2LTAuOWg3LjljMi40LDAsMy45LDAuMyw1LjEsMS4xJiMxMDsmIzk7JiM5OyYjOTsmIzk7YzEuMywwLjgsMi4xLDIuMiwyLjEsNC4xYzAsMi43LTEuNyw0LjMtMy45LDUuM2MwLjUsMSwxLjgsMy4xLDIuNyw0LjVjMS4xLDEuNiwxLjgsMi41LDIuNSwzLjNjMC44LDAuOSwxLjUsMS4yLDIuMiwxLjQmIzEwOyYjOTsmIzk7JiM5OyYjOTtMNDY1LjcsNjcuNXogTTQ1NC4yLDU3LjRjMS41LDAsMi41LTAuMiwzLjMtMC45YzEuMS0wLjksMS42LTIuMiwxLjYtMy44YzAtMy40LTIuMS00LjYtNC40LTQuNmMtMC45LDAtMS40LDAuMS0xLjYsMC4zJiMxMDsmIzk7JiM5OyYjOTsmIzk7Yy0wLjIsMC4yLTAuMywwLjUtMC4zLDEuM3Y3LjZINDU0LjJ6Ii8+JiN4YTsJCQk8cGF0aCBkPSJNNDc2LjUsNDcuMWMzLjksMCw2LjksMC44LDguOCwyLjdjMS41LDEuNSwyLjYsMy43LDIuNiw2LjZjMCwzLjctMS41LDYuNS0zLjgsOC4zYy0yLjMsMS44LTUuNSwyLjYtOS4zLDIuNmgtNy41di0wLjkmIzEwOyYjOTsmIzk7JiM5OyYjOTtjMi42LTAuMiwyLjktMC40LDIuOS0zVjUxYzAtMi42LTAuMy0yLjgtMi42LTN2LTAuOUg0NzYuNXogTTQ3My4yLDYzLjFjMCwyLjMsMC45LDIuOSwzLjIsMi45YzUuNSwwLDguMy00LjEsOC4zLTkuMiYjMTA7JiM5OyYjOTsmIzk7JiM5O2MwLTMuMi0xLjEtNS45LTMuNC03LjNjLTEuNC0xLTMuMS0xLjQtNS4yLTEuNGMtMS4zLDAtMiwwLjItMi40LDAuNGMtMC4zLDAuMi0wLjQsMC42LTAuNCwxLjhWNjMuMXoiLz4mI3hhOwkJPC9nPiYjeGE7CQk8Zz4mI3hhOwkJCTxwYXRoIGQ9Ik0zMzguNSw5NS45Yy0wLjYtMi0xLjUtNC4yLTQuMS00LjJjLTIuMywwLTMuNCwxLjctMy40LDMuNGMwLDIuMiwxLjQsMy4yLDMuOSw0LjVjMi42LDEuMyw1LjQsMi44LDUuNCw2LjImIzEwOyYjOTsmIzk7JiM5OyYjOTtjMCwzLjMtMi44LDYtNyw2Yy0xLjIsMC0yLjMtMC4yLTMtMC41Yy0wLjgtMC4zLTEuMy0wLjUtMS42LTAuN2MtMC4zLTAuNy0wLjctMy4zLTAuOC00LjlsMS0wLjNjMC41LDEuOSwyLDUuMSw1LjEsNS4xJiMxMDsmIzk7JiM5OyYjOTsmIzk7YzIuMywwLDMuNi0xLjQsMy42LTMuNmMwLTIuMi0xLjYtMy4zLTQtNC42Yy0yLjItMS4yLTUuMi0yLjctNS4yLTYuMmMwLTMsMi41LTUuNiw2LjUtNS42YzEuNiwwLDIuOSwwLjQsNCwwLjcmIzEwOyYjOTsmIzk7JiM5OyYjOTtjMC4xLDEuMSwwLjMsMi40LDAuNiw0LjNMMzM4LjUsOTUuOXoiLz4mI3hhOwkJCTxwYXRoIGQ9Ik0zNTkuNCwxMDYuM2MtMC4yLDEuMS0wLjgsNC0xLjEsNC45aC0xNS4ydi0wLjljMi44LTAuMiwzLjEtMC41LDMuMS0zVjk1LjFjMC0yLjgtMC4zLTIuOS0yLjYtMy4xdi0wLjloMTQmIzEwOyYjOTsmIzk7JiM5OyYjOTtjMCwwLjcsMC4yLDIuOSwwLjMsNC41bC0xLDAuMWMtMC4zLTEuMy0wLjYtMi0xLTIuNmMtMC41LTAuNy0xLjMtMC45LTMuNC0wLjloLTIuMmMtMSwwLTEuMSwwLjEtMS4xLDF2N2gyLjgmIzEwOyYjOTsmIzk7JiM5OyYjOTtjMi44LDAsMy0wLjIsMy40LTIuM2gwLjl2NmgtMC45Yy0wLjQtMi4yLTAuNy0yLjQtMy40LTIuNGgtMi44djUuN2MwLDEuNSwwLjIsMi4yLDAuNywyLjVjMC42LDAuNCwxLjcsMC40LDMuMiwwLjQmIzEwOyYjOTsmIzk7JiM5OyYjOTtjMi4yLDAsMy4xLTAuMiwzLjgtMWMwLjYtMC43LDEuMS0xLjcsMS42LTNMMzU5LjQsMTA2LjN6Ii8+JiN4YTsJCQk8cGF0aCBkPSJNMzgwLjYsMTExLjVjLTAuMywwLTAuNywwLTEuMSwwYy0yLjYtMC4xLTMuOS0wLjgtNS4zLTIuOWMtMS0xLjUtMi4xLTMuNC0zLTQuOWMtMC42LTAuOS0xLjEtMS4zLTIuNi0xLjNoLTAuOXY0LjkmIzEwOyYjOTsmIzk7JiM5OyYjOTtjMCwyLjYsMC4zLDIuOCwyLjcsM3YwLjloLTguNHYtMC45YzIuNS0wLjIsMi44LTAuNCwyLjgtM1Y5NWMwLTIuNi0wLjMtMi44LTIuNy0zdi0wLjloNy45YzIuNCwwLDMuOSwwLjMsNS4xLDEuMSYjMTA7JiM5OyYjOTsmIzk7JiM5O2MxLjMsMC44LDIuMSwyLjIsMi4xLDQuMWMwLDIuNy0xLjcsNC4zLTMuOSw1LjNjMC41LDEsMS44LDMuMSwyLjcsNC41YzEuMSwxLjYsMS44LDIuNSwyLjUsMy4zYzAuOCwwLjksMS41LDEuMiwyLjIsMS40JiMxMDsmIzk7JiM5OyYjOTsmIzk7TDM4MC42LDExMS41eiBNMzY5LjEsMTAxLjRjMS41LDAsMi41LTAuMywzLjMtMC45YzEuMS0wLjksMS42LTIuMiwxLjYtMy44YzAtMy40LTIuMS00LjYtNC40LTQuNmMtMC45LDAtMS40LDAuMS0xLjYsMC4zJiMxMDsmIzk7JiM5OyYjOTsmIzk7Yy0wLjIsMC4yLTAuMywwLjUtMC4zLDEuM3Y3LjZIMzY5LjF6Ii8+JiN4YTsJCQk8cGF0aCBkPSJNMzgzLjEsMTExLjN2LTAuOWMyLjUtMC4yLDIuOC0wLjQsMi44LTNWOTVjMC0yLjYtMC4zLTIuOC0yLjgtM3YtMC45aDguNFY5MmMtMi41LDAuMi0yLjgsMC40LTIuOCwzdjEyLjMmIzEwOyYjOTsmIzk7JiM5OyYjOTtjMCwyLjYsMC4zLDIuOCwyLjgsM3YwLjlIMzgzLjF6Ii8+JiN4YTsJCTwvZz4mI3hhOwkJPGc+JiN4YTsJCQk8cGF0aCBkPSJNNDA1LjMsMTExLjN2LTAuOWMxLjktMC4yLDIuMi0wLjUsMS44LTEuOGMtMC40LTEuMi0xLTIuOC0xLjYtNC42aC02LjVjLTAuNSwxLjMtMC45LDIuNi0xLjMsMy45JiMxMDsmIzk7JiM5OyYjOTsmIzk7Yy0wLjYsMS45LTAuNCwyLjIsMS45LDIuNXYwLjloLTYuOHYtMC45YzItMC4zLDIuNC0wLjUsMy41LTMuMmw2LjQtMTYuMmwxLjEtMC4zYzEuOSw1LjMsNCwxMS4yLDYsMTYuNmMxLDIuNywxLjQsMywzLjQsMy4ydjAuOSYjMTA7JiM5OyYjOTsmIzk7JiM5O0g0MDUuM3ogTTQwMi4zLDk1TDQwMi4zLDk1Yy0xLjEsMi42LTIsNS4yLTIuOSw3LjdoNS42TDQwMi4zLDk1eiIvPiYjeGE7CQk8L2c+JiN4YTsJCTxnPiYjeGE7CQkJPHBhdGggZD0iTTQyOS41LDEwNi4zYy0wLjIsMS0wLjgsNC0xLjEsNC45aC0xNC4zdi0wLjljMi42LTAuMiwyLjktMC40LDIuOS0zVjk1YzAtMi42LTAuMi0yLjgtMi43LTN2LTAuOWg4LjRWOTImIzEwOyYjOTsmIzk7JiM5OyYjOTtjLTIuNCwwLjItMi43LDAuMy0yLjcsM3YxMi4yYzAsMS42LDAuMiwyLjIsMC43LDIuNWMwLjYsMC4zLDEuNiwwLjQsMi45LDAuNGMxLjYsMCwyLjctMC4yLDMuNC0xYzAuNi0wLjYsMS4xLTEuNiwxLjYtMy4xJiMxMDsmIzk7JiM5OyYjOTsmIzk7TDQyOS41LDEwNi4zeiIvPiYjeGE7CQk8L2c+JiN4YTsJCTxnPiYjeGE7CQkJPHBhdGggZD0iTTM0OC45LDEzNmMtMS43LDAuMS0yLjUsMC41LTIuNiwxLjljLTAuMSwxLTAuMiwyLjQtMC4yLDUuMnYxMi41aC0xLjFsLTEzLjItMTYuMWgtMC4xdjcuNmMwLDIuOCwwLjEsNC4zLDAuMiw1LjImIzEwOyYjOTsmIzk7JiM5OyYjOTtjMC4yLDEuNSwwLjgsMiwzLDIuMXYwLjloLTcuNHYtMC45YzEuOC0wLjEsMi41LTAuNSwyLjctMmMwLjEtMSwwLjItMi41LDAuMi01LjN2LTYuOGMwLTIuMi0wLjEtMi40LTAuNy0zLjImIzEwOyYjOTsmIzk7JiM5OyYjOTtjLTAuNi0wLjgtMS4zLTEtMi43LTEuMXYtMC45aDQuOGwxMi44LDE1LjJoMC4xdi03LjJjMC0yLjgtMC4xLTQuMy0wLjItNS4yYy0wLjItMS40LTAuOS0xLjgtMy4xLTEuOXYtMC45aDcuNFYxMzZ6Ii8+JiN4YTsJCTwvZz4mI3hhOwkJPGc+JiN4YTsJCQk8cGF0aCBkPSJNMzcyLDEzNmMtMS44LDAuMi0yLjUsMC42LTIuNywxLjhjLTAuMSwwLjktMC4yLDIuMi0wLjIsNC45djIuN2MwLDMuNi0wLjYsNi4yLTIuMyw4LjFjLTEuNCwxLjUtMy41LDIuMi01LjYsMi4yJiMxMDsmIzk7JiM5OyYjOTsmIzk7Yy0xLjksMC0zLjctMC40LTUuMS0xLjVjLTEuOC0xLjQtMi43LTMuNy0yLjctNy40di03LjdjMC0yLjgtMC4zLTMtMi43LTMuMnYtMC45aDguM3YwLjljLTIuNCwwLjItMi42LDAuNC0yLjYsMy4ydjcmIzEwOyYjOTsmIzk7JiM5OyYjOTtjMCw1LDEuOSw3LjgsNS43LDcuOGM0LjMsMCw1LjctMy42LDUuNy04Ljd2LTIuNWMwLTIuNy0wLjEtNC0wLjItNWMtMC4yLTEuMi0wLjgtMS42LTMtMS44di0wLjloNy41VjEzNnoiLz4mI3hhOwkJCTxwYXRoIGQ9Ik0zOTEuMSwxNTUuM3YtMC45YzIuNS0wLjMsMi42LTAuNCwyLjYtMy42bC0wLjEtMTIuNWgtMC4xbC03LjUsMTYuOWgtMC43bC02LjgtMTYuNGgtMC4xbC0wLjQsOC43JiMxMDsmIzk7JiM5OyYjOTsmIzk7Yy0wLjEsMi41LTAuMSwzLjktMC4xLDUuMWMwLjEsMS41LDAuOCwxLjcsMi45LDEuOXYwLjloLTcuM3YtMC45YzEuOC0wLjIsMi40LTAuNiwyLjYtMS44YzAuMi0xLjEsMC40LTIuNSwwLjYtNS43bDAuNS02LjQmIzEwOyYjOTsmIzk7JiM5OyYjOTtjMC4zLTMuOSwwLjEtNC4xLTIuNy00LjR2LTAuOWg1LjNsNi45LDE1LjJsNy0xNS4yaDUuNXYwLjljLTIuNywwLjMtMi45LDAuNC0yLjgsMy40bDAuMywxMS4zYzAuMSwzLjIsMC4yLDMuNCwyLjgsMy43djAuOSYjMTA7JiM5OyYjOTsmIzk7JiM5O0gzOTEuMXoiLz4mI3hhOwkJCTxwYXRoIGQ9Ik00MTIuOSwxNDQuNGMzLjIsMC41LDUuNiwxLjgsNS42LDQuOWMwLDIuMS0xLjIsMy43LTMsNC43Yy0xLjYsMC45LTMuNywxLjMtNi4yLDEuM2gtNy4xdi0wLjljMi42LTAuMiwyLjgtMC40LDIuOC0zJiMxMDsmIzk7JiM5OyYjOTsmIzk7VjEzOWMwLTIuNi0wLjEtMi44LTIuNi0zdi0wLjloOC4yYzIuNCwwLDMuOCwwLjQsNC44LDEuMWMxLjEsMC43LDEuNywyLjEsMS43LDMuNUM0MTcuMiwxNDIuNiw0MTQuNywxNDMuOCw0MTIuOSwxNDQuNCYjMTA7JiM5OyYjOTsmIzk7JiM5O0w0MTIuOSwxNDQuNHogTTQwOS4zLDE0NGMzLjQsMCw0LjgtMS4zLDQuOC0zLjljMC0yLjItMS4zLTMuOS00LTMuOWMtMC43LDAtMS40LDAuMS0xLjcsMC4zYy0wLjMsMC4yLTAuNCwwLjYtMC40LDEuNXY2LjFINDA5LjMmIzEwOyYjOTsmIzk7JiM5OyYjOTt6IE00MDgsMTUxLjNjMCwyLjIsMC42LDIuOSwyLjUsMi44YzIuNCwwLDQuNi0xLjMsNC42LTQuNWMwLTMuMS0yLjEtNC41LTUuOC00LjVINDA4VjE1MS4zeiIvPiYjeGE7CQkJPHBhdGggZD0iTTQzOC4yLDE1MC4zYy0wLjIsMS4xLTAuOCw0LTEuMSw0LjloLTE1LjJ2LTAuOWMyLjgtMC4yLDMuMS0wLjUsMy4xLTN2LTEyLjNjMC0yLjgtMC4zLTIuOS0yLjYtMy4xdi0wLjloMTQmIzEwOyYjOTsmIzk7JiM5OyYjOTtjMCwwLjcsMC4yLDIuOSwwLjMsNC41bC0xLDAuMmMtMC4zLTEuMy0wLjYtMi0xLTIuNmMtMC41LTAuNy0xLjMtMC45LTMuNC0wLjlINDI5Yy0xLDAtMS4xLDAuMS0xLjEsMXY3aDIuOGMyLjgsMCwzLTAuMiwzLjQtMi4zJiMxMDsmIzk7JiM5OyYjOTsmIzk7aDAuOXY2aC0wLjljLTAuNC0yLjItMC43LTIuNC0zLjQtMi40aC0yLjh2NS43YzAsMS41LDAuMiwyLjIsMC43LDIuNWMwLjYsMC40LDEuNywwLjQsMy4yLDAuNGMyLjIsMCwzLjEtMC4zLDMuOC0xJiMxMDsmIzk7JiM5OyYjOTsmIzk7YzAuNi0wLjcsMS4xLTEuNywxLjYtMi45TDQzOC4yLDE1MC4zeiIvPiYjeGE7CQkJPHBhdGggZD0iTTQ1OC42LDE1NS41Yy0wLjMsMC0wLjcsMC0xLjEsMGMtMi42LTAuMS0zLjktMC44LTUuMy0yLjljLTEtMS41LTIuMS0zLjQtMy00LjljLTAuNi0wLjktMS4xLTEuMy0yLjYtMS4zaC0wLjl2NC45JiMxMDsmIzk7JiM5OyYjOTsmIzk7YzAsMi42LDAuMywyLjgsMi43LDN2MC45aC04LjR2LTAuOWMyLjUtMC4yLDIuOC0wLjQsMi44LTNWMTM5YzAtMi42LTAuMy0yLjgtMi43LTN2LTAuOWg3LjljMi40LDAsMy45LDAuMyw1LjEsMS4xJiMxMDsmIzk7JiM5OyYjOTsmIzk7YzEuMywwLjgsMi4xLDIuMiwyLjEsNC4xYzAsMi43LTEuNyw0LjMtMy45LDUuM2MwLjUsMSwxLjgsMy4xLDIuNyw0LjVjMS4xLDEuNiwxLjgsMi41LDIuNSwzLjNjMC44LDAuOSwxLjUsMS4yLDIuMiwxLjQmIzEwOyYjOTsmIzk7JiM5OyYjOTtMNDU4LjYsMTU1LjV6IE00NDcuMSwxNDUuNGMxLjUsMCwyLjUtMC4yLDMuMy0wLjljMS4xLTAuOSwxLjYtMi4yLDEuNi0zLjhjMC0zLjQtMi4xLTQuNi00LjQtNC42Yy0wLjksMC0xLjQsMC4xLTEuNiwwLjMmIzEwOyYjOTsmIzk7JiM5OyYjOTtjLTAuMiwwLjItMC4zLDAuNS0wLjMsMS4zdjcuNkg0NDcuMXoiLz4mI3hhOwkJPC9nPiYjeGE7CTwvZz4mI3hhOzwvZz4mI3hhOzwvc3ZnPg==;fontFamily=Helvetica;rounded=1;" parent="1" vertex="1">
          <mxGeometry x="100" y="191.25" width="130" height="37.5" as="geometry" />
        </mxCell>
        <mxCell id="1TfECa-dX_d4Ddrjt1kj-16" value="" style="shape=image;verticalLabelPosition=bottom;labelBackgroundColor=default;verticalAlign=top;aspect=fixed;imageAspect=0;image=data:image/png,iVBORw0KGgoAAAANSUhEUgAAB6YAAAF9CAYAAACnPQasAAAACXBIWXMAAAsSAAALEgHS3X78AAAgAElEQVR4nOzdPZIUV9o24ByFfPVnlK3WCmD8igBWIGRmlCFwyhWsAFgBklsOyKhIU2gFaiLKV7OCF+xyelagL1I6PVNC3dA/9XOfzOuKIGDmfUeczqysTOV9nuf51x9//NEAAAAAAAAAwK584cgCAAAAAAAAsEuCaQAAAAAAAAB2SjANAAAAAAAAwE4JpgEAAAAAAADYKcE0AAAAAAAAADslmAYAAAAAAABgpwTTAAAAAAAAAOyUYBoAAAAAAACAnRJMAwAAAAAAALBTgmkAAAAAAAAAdkowDQAAAAAAAMBOCaYBAAAAAAAA2CnBNAAAAAAAAAA79aXDCwAAAOzKej692zTNUdM098tf8XXTNMflz/1/f9fBv7aTjf/B2/L7n//dZLE6uf0/HgAAYPv+9ccffzisAAAAwK2t59P7JYC+UwLnY0f1IN43TXPaNM27ElifTharsxEeBwAAIIhgGgAAALiRUg39sGmaexsV0WQ6LSH1r6qqAQCAQxBMAwAAAFe2nk/7KugfSiCtIrpOffX0m6ZpfhZSAwAA+yKYBgAAAD5rPZ8+aprme5XRg9O3/f6paZrX2n0DAAC7JJgGAAAALlUC6WeqowfvrATUPwqoAQCAXRBMAwDwX207Oy7Bw/FGAPG1MGLQvuu6pQDiFtp2dl492s/aPSp/dt0MWNctH4zh5xRIj5aAOtjGs1rz0X2nd+ej/8zwnHbd8qnzCgDU6ktnDgBgfNp2dlReZt4vLzGPy39mZITSV1cC6Lsb14x2xuP0fug/9Xo+7T/nL33GR+uobEj4fj2fPjaD+jA27jlfl9+PbRIBAKB2gmkAgBEoQfTDpmnulaDBi016woZPaNvZ5jVj4wbnBhtMr+fT80DyScByOLz+WeG39Xz6Y9M0L1RP7055TrvvnsMVvHWQAICaCaYBAAaqtHrsg7XvveDkEoOv/LyOjQ0c35bf4SKDDAVKlfQr9wsu0G9UuF+qp08doO3YeE77VncCrsEGEQCgaoJpAIABKcHaI2E0V/TBgfpvZfT3wmiuaHChwHo+fVJad8Nl7pbq6QfC6dtp29kjG6C4BdcfAFA1wTQAwACUOYTfl1Aarmq0rbw3NnH8oLU91zSYUKC07n7p3sEV9Z+X30vl9GsH7erKPedJuecc1bJuIgmmAYCqCaYBACpWqm6eCda4odG18hYOsAWDCAVKKP2b7hrcwKv1fHo2WazeOHifVtp1P7P5g23puqVW3gBA1QTTAAAVEkizDV23HE0wLZBmW4YQCpR50r+5FriFPpx+r633xdxz2JHRdroBAIZDMA0AUJEyC/elQJotGM3LTdcNW1T9dSOUZkuOyszpbyaLlQrODWXz4EvXGDswuk43AMDwCKYBACpQWkG+aprmvvPFlgw+SHDdsANVhwJCabas/xz90jTNAwfWPYe9+OAwAwC1+8IZBADI1raz503T/J8XnWzZuyEf0Lad9S1Uf3fdsGXVhgJCaXbk/no+fT72g+uew55o5Q0AVE/FNABAqLad3S2VN3edI3ZgkHNBVayxY1VeN0JpduzZej59PVmsRtdmuMyS7u85DwOWw/Bpmw8AVE/FNABAoFIl/btQmh0aXIBQZkmrWGOXqrtu1vPpkVCaPXg1toNcNhD+LpRmX7puOchNhQDAuKiYBgAIUipvfhGssWtDe7nZtrOXTdM8CVgKA1bbdSOUZo/6lt73J4vVKFoNt+3sUdM0L11b7JFQGgAYBME0AECIUnnTh9LHzgk7NpiXmzZzsEc1dhl4qfMGe/RsDDNwSyg9ugpxDk4bbwBgELTyBgAIUF5y/iaUZk8G0ca7zJP+TSjNnlR13azn0/6+8ihgKYzHn1XTQ/5p23b2SijNgbx14AGAIRBMAwAc2EbljXaQ7Mu72o/0xmxP1aDsSzWhwHo+vVuqpWHffhjqES+htM0eHMogNhUCAAimAQAOqMzFVXnDvlXdyruE0ubmsm81hQI2O3EoD8ts80ERShNAMA0ADIJgGgDgQMpLzieOPwdQ7ctNoTQHVMV1s55Pn+skwIENKsAVShOi6k2FAADnBNMAAAfgJSeH1HXLKl9uCqU5sPjrZj2fHg+5lTLV+H4op6p0tvG8xqGddd3yzFkAAIZAMA0AsGdtO3vuJScHVGsofSyU5oBqCQVeukYIcHcI7bzbdvZIZxtCqJYGAAZDMA0AsEflJeczx5wDqq6Nd9vO+oDjF4EbB1RDtfT9fr5vwFKgqf2z2Laz+2VWOyQwXxoAGAzBNADAnnjJSYh3FZ6IX8zM5cBqCAVseiLJvVrPRunQ8UvAUuDcB0cCABgKwTQAwB6U2bhecpKgqnaQZb7n/YClMG7RoUCplnadkKTmzUQ6dJDmxBkBAIZCMA0AsGOlDfErLzkJUU07yLadPTTfkxDpoYBqadJUGUyXzVA6dJDmzBkBAIZCMA0AsHtechKj65ZVVEyXVqpa35MiNhRQLU2q8tmsRhm5YjMUcWp5dgMAuArBNADADrXt7FHTNI8cY0LU9GJTK1VihIcC3wesAS5yXMtR2ehuA2mE0gDAoAimAQB2pFR8vnR8CVJFG++2nT3XZYAgsaHAej49svmJYNUE06Udfk3rZTyqGcECAHAVgmkAgN0xV5o079LPSNvO7pqXS5jk2Z5CaZLdqeHslPuOFt6kin92AwC4ji8dLQCA7Wvb2RMzPwlUQztIXQZI8zb4jAy9jffpxsaA5PNwU19tdIcY4jNDLZvz3HdIpmIaABgUwTQAwJaVOYUqPkkU/XKzzGS3oYM0kdfNej69O6CW9334fFIqA/vf308Wq9GFMev59Lh8B94rv9feWjo+mG7b2X33HcIJpgGAQRFMAwBs30stvEnUdcvYiumyoUPVGolSQ4Haq6X74/qmaZqfJ4tVDd0cdq6E8a/Lr/PNBz80TfOw0ueKGjZOvApYA1yq65Ynjg4AMCSCaQCALSqVN2Z+kig9+HliQwehUq+dhwFruIk+jP5pslgJWz6jBPaP1/Pp09KJxRzkLSpdOmqvSmfYzpxfAGBoBNMAANulhTepYltBtu3s2LVDqLOuW8YFA6Xlc22BWh9EPx5ji+7bmixW/Wfw6Xo+/blU+A6lhfuh/TDuH58K6CYBAAzOF04pAMB2mFNIuHfByxNKk0q19O31QfSDyWL1QCh9O6WC+sF5q29urjyzCfhJJ5gGAAZHMA0AsD3CNZJFvtws1dLa35MqNUi9F7CGq+jbdv9b2+7t6aunJ4vVY+H0ramWpgb/cZYAgKERTAMAbIFqaSqQOqfQhg6SfQhdWw33mxeTxeq70oaaLSvhtMD/BsqGqFpntDMurnEAYHAE0wAA2yFcI1rXLeNebrbt7Ei1NOHirpv1fNq3Hz4KWMqn9LOkn+cubzAeB286Sua+Qy2MPwAABudLpxQA4HZUS//XqRfksVLPy5OANSR47+VzrMTzkn6/eTpZrLSZ3oN+Zvd6Pn3RNM3Lwf+w2/X9kH6YG3LfqUDXLZ0jAGBwBNMAALc3lhecJyV8/nA+rzixCpeqjGHG51m5Xt5u/Nm1w20kz5d+PVmsfgxYx2j0x3s9n/bfpcdjPxZXUTYTjuFYnZTg+cNG54fTrlvaQAgAwEEJpgEAbmHgrYjflDDtpOuWpwHrYUDadvaognbEN3H20bWj2oltuxt6RE/L3GP272cjRa5sqJsJ+/D51xI+2/gEAEAswTQAwO0MLZTuA7Wfu275JmAtDNu3A/rpzsPoX1077NJ6Pj0KrvYUSh/O69BgOnFT28OANWxLf3x/6u8/KqEBAKiFYBoA4HaG0Ir4rLzYfK26k31o29nxQMKB/np5IRRgj1KrpV9MFiudNQ6kzJp+H7hpIep7sW1ndwfSqaPfiPCTbjYAANRIMA0AcEPlBWftcwr7UO1HoRp7Vnso3V8vT7tu+TpgLYzL/cCftr8ezJU+vJPALi5pzxa1t/Huz/FjmwgBAKiZYBoA4OZqfsHp5SaHVPO10wdwL2zm4EC+DjzwP00WK9fD4X0IXNO7gDVsStzYcRVn5ZnNqAgAAKonmAYAuLlaqz77Sk/VbRxEaeOd2o74UwQDJEhs1ex+kuEkdM50hIrvPf15/c5mKAAAhkIwDQBwA5W28e5faj4wk5ADq3FDx2kJBnQY4NDSKj5fq5bmE06CDk6N1dKvu275OGAdAACwNYJpAICbqa0VsVCaFPcqOxOn5doRvnFQ6/k0cTPUzwFrIFfS92Zt9x6hNAAAgySYBgC4mZoqb/oXw98I1ghRU8W0UJokacH06WSxstmJS4V9Pmpq4y2UBgBgsL5wagEArqeyOYVngjVStO2spg0d71078Em/Ojx8Qkwo3bazo4qe294IpQEAGDLBNADA9dUUrn2nfTdBarl2zsq1I5SGy71xbPiEpJn8tYTS/TETSgMAMGiCaQCA66tlTuGLrlueBKwDztV07djQQZqkjR1n2njHSdv48y5gDedq2RT12IYoAACGTjANAHB9NbzgPO265fOAdcCmGqrWTrpu+WPAOiCZTU95vgpbUVLF9J2ANXzOjzYTAgAwBoJpAIBrKHMKjys4ZlpBEqXMZj+q4Ky4duDzkqph+Uvaxh+tvK+ur5J+Eb5GAADYCsE0AMD11FDx+VobYgLVcO30LbyTwhTY9HXQ0VDZmSdq09xksUr6jKRvKPxJC28AAMZCMA0AcD3pbbz7F5tPA9YBH6uhYk0Lb5IlhWs2P+VJ+nzEbPBp21kNz23uPQAAjMaXTjUAwLWkzyl8reqGUK4duIXJYvXA8eMi6/lUG+/LqZYGAIAgKqYBAK4n/gVnwBrgIunzpV07QK3Snk3eBqzhXPpzm2ppAABGRTANAHA9ye2I35iPS7DkdqquHaBmKqYvdy9oLR97o1oaAICxEUwDAFxR287SZ+T+HLAG+Ie2naVXrLl2gJqljUpICqaTu3X8GrAGAADYK8E0AMDVJYdrZ123fBOwDriIawdgd9K+Y08D1nAuutNNwBoAAGCvBNMAAFfn5SbcjGsHYHeSvmPPJotVRHvq8E432ngDADBKgmkAgKtLa5W5STtIkn0dvLa3AWsAuJH1fJoWviZVSyd363DvAQBglATTAABXlzyn8CRgDXCZ5Ko11w5QM8H05dx7AAAgjGAaAODq7oceq1PtIAmXWrX2vuuW7wPWAXBTad+vHwLWcC61W8dZ1y2TAnwAANgbwTQAwBW07Sy5HaSqG9KlXj+uHaB298LWr5X35wmlAQAYLcE0AMDVJAfT7wLWABdq21lqp4HGtQMMQNrzSVLomnr/MV8aAIDREkwDAFxNcrim8oZkybPZXTtAtdbz6VFaMD1ZrCJGi7TtLPneY4QEAACjJZgGALia1DmFjTmFhLuburyuW2rlDdQs7fs16Ts19t4jmAYAYMwE0wAAV5PaytvLTdLdCV2fDR1A7dLC16RnEpuiAAAgkGAaAOBqUl9wCqZJl9pOVTAA1C5t48+HgDWcS+10E9HqHAAADkUwDQDwGWVOYWq49jZgDfApqfPZ3wWsAeA20rq5aOX9ebp1AAAwaoJpAIDPM6cQbqBtZ6kt8BvhADAAaRt/kp5JUu8/7j0AAIyaYBoA4PME03AzscF01y2FA0C11vNp3LPJZLESTH9eUrtzAADYO8E0AMDnpbbxblTeEC61jbf50kDt0oLXmOeRtp2l3nsaz20AAIydYBoA4PPuhR6js65bngWsAy7zVeiR0WkAqF1axbRq6atx/wEAYNQE0wAAn2dOIdxMahv8dwFrALiNtE1zSd+ryWMkBNMAAIyaYBoA4PME03AzqcG0aweonVbel7sTtJZNxkgAADB6gmkAgE8In1P4n4A1wKekzmcXTAPVWs+nR4HBtFben6daGgCA0RNMAwB8WvKcQpU3xAre1GE2O1C7uG4Uk8UqacNPareODwFrAACAgxJMAwB8WnIwrfKGZFrgA+xG2safmO/Vtp2lhtKNDYUAACCYBgD4nNQ5hU3XLQXTJNNKFWA3vg47rkldKFJHSDRhxwkAAA5CMA0A8Gmp4ZqqG9KlburQShWoXVpV8NuANZxLHSPRbyjUsQMAgNETTAMAfFpqS0hVN6RTMQ2wG2nPJknfq2nV5OeE0gAAjF4jmAYAuFz4nMJ3AWuAT0m9fgTTQLXW82liRXDS96pNUQAAEEwwDQBwudSXm43KG5K17Sz52gGoWdz362SxShovktrK24ZCAABGr/elowAAcKnkimmVNySLDaa7bmk+O9zSej49KvfIo4/ulfcc251L+36NeR5p29lRwDIu47kNAIDRawTTAACflDqnsA/XVEyTLLViDbim0jq6D5/vlFDU9c2mpMDVhkIAAAgnmAYAuFxq1adQmnRfOUNQpxJE3y/Vz0JoPifpmSQ2mNatAwAA/iKYBgC4XOoL+bOANcCnJFetAR9Zz6cPm6b5tmmah6U9N1zVh6AjlfrZVS0NAACFYBoA4AJtO4udkds0zduANcCnCKYh3Ho+7a/TH4TR3FJSxXTqjHPBNAAAFIJpAICLJQfTXnCSTsgFodbz6aMSSNtAwjYkBdOpz242FAIAQCGYBgC4WPILe8E0sdp2ZiYthFnPp/1mkSdN03wfvvGKupxNFquk8SKpn20jWAAAoPjCgQAAuNDXqYel65YnAcuAy0SHXm07U83NqKzn0z6Q/r+maZ4JpdmymGrp8E1RSVXlAABwUCqmAQAulloxreqGdOnBV39t29zB4K3n03529EthNDuUFLgmbzoSTAMAQCGYBgC4WGow7eUm6e6Er09Ix6Ct59P+M/6qaRpt9dm1/wQd4dgNhV23tKkQAAAKrbwBAD5SWv2mVt4IpkmXHvzeC1gD7ERp2/27UJo9Seo+kbopynMbAABsUDENAPBPqVU3vQ8Ba4BPSb5+GoEdQ6RKmgN5H3TgUzdFJR0jAAA4OBXTAAD/lFzxqfKGWG07q6FN9nHbztLDc7iyMktalTR7N1mskkLX1O91GwoBAGCDYBoA4J+SwzWVNySrZX7zDwFrgFtbz6fPm6b5JXj8BMMV08Y7fFNUUrtzAAA4OME0AMA/xc6g7bqlYJpktQTTD8sseajSej49Ws+nfevuZ84gB6KN99V4bgMAgA2CaQCAf0p9wanqhnS1BNNHAj1q1YfSTdP81jTNIyeRA0pqUR3bxt6GQgAA+DvBNADAP6WGa15uwvY8MWua2myE0j67HFrSZrmvA9ZwkdO8JQEAwGEJpgEANrTtLLbqJqw6CS5yp7Kj8ouW3tRCKE2Ys6Dl2FAIAACVEEwDAPxdckil8oZ0tYW8fZjxm3CadEJp0kwWq6RnktTr4l3AGgAAIIpgGgDg75Jf+qu8ge27K5wmmVCaQDGhdPnuTv3+tqEQAAA+IpgGAPi72FbEXbf0ghN2ow/8fjdzmjRCaUIlbZSzoRAAACoimAYA+LvUOYVCadit4xJOP1c9TZCXQmkCJbWojr0+bCgEAIB/EkwDAPxd6gvOs4A1wOcM4XP6rGma/xNQc2jr+fR50zSPnAgCJQWuqd/TqqUBAOACgmkAgKJtZ6nV0r23AWuAz0mqoruNo42A+lXbzh7W+6NQo/V8er98BiFR0iakewFruIhgGgAALvClgwIA8F/JwbQXnLB/R6Vi9VHbzvog5qRsEjnRopVdKXOlf3GASTVZrE6Clpb67GZDIQAAXEAwDQDwP/eDj4VgmhoMueV8HxY+LL/6DgtNaWf7vlSKn222t+265c6Cm7ad7eK76kzYHuOX4PbEkPY8khpMe24DAIALCKYBAP7n69RjscuQC7ZobMHm3fLrH62+S3BdlQvWvPm9c179d1pCbN9JO7CeT5+Eb5KCmMB1R5t0tkUwDQAAFxBMAwD8T2wr77ad/RawDIJ03fJB4PkYcsX0GG2GPn8LgEqIfV4lflqqxk9VXd/cej49NleaCiS1qE7uLOC7EAAALiCYBgD4n+TKGxV0bIqsVu1DyRorhbmxo/Ld9N/vp3L+N2dxq6y+uldaeFOBpErguwFruEjfVcJGLQAAuIBgGgDgrzBFGEBNkluEngaHBezHeVj9rG1nfTjzpg+qu2752vG/2Ho+fWQDEpVIuv/cCVjDRVRLAwDAJQTTAAB/EaRRkw/BaxVMs6nf9NOHro/advayhNQ/q6T+n/V8eqSFN7WYLFZJ127qpkLBNAAAXOILBwYA4E+CNGqSHOq9C1gDmc5D6t/advZ7284eOU9/etI0zXHAOuBz0tpTp3YZSN48BgAAByWYBgD4y9eOAxVJnl2pEpar6DcDvWrb2f+NOaAu1dI/BCwFriKmErhtZ8mbOVRMAwDAJQTTAAB/UTFNNbpuGfvSu6wteQY2WY5LQN1XUI9xxvKz4HbE8LGke09yMO0eCAAAlxBMAwD8RRtValFDJZaqaa7rbmnx/bJtZ6MIaku19JOApcBVJbWojt3I0nVLwTQAAFxCMA0A8BfBNLVIbuN97teMZVChPqjtq6fH0MVCKE1tkjZGfRWwhovYmAUAAJ/wpYMDAIzdSNvHUq+36SvvuuWbtp2daVHMDR2XcPpx1y1fD/EgjmC29ElpZ/yhbKYxc/dy/TPIt5WMFEk6j6nHS7U0AAB8gmAaAEC1NHWp5aX3axWh3FI/e/q465bPB3ggHw1s48absmnmZLJYCaGvpw/xn6/n0z6g/iX5czFZrJI6dqQG00ntzgEAII5W3gAAgmnqUksw/VPAGqjfs7advRrgeRxCtXQfRj9umub/TRar7yaL1Y9C6ZubLFZ9QP0geFxDTIvqMoc+NcB3DQAAwCcIpgEAmuaeY0Atum5ZxfzKrlu+N2uTLXk0pHC6VMbWvCGq74bwTQmjX4dV0VatBPtPQ3+GpE1RyW3PtfIGAIBPEEwDAJiDSz1qC4BeBKyBYejD6UcD+Vm+D1jDTZwH0o8ni5XwbUf6sD90aUktqmM3dnTdUsU0AAB8gmAaACC78gY2VfXCu1R3q5pmW/qZ0/drPprr+bTfCPUwYCnX0YfQDwTSe5X4vZm0ptRgWigNAACfIZgGAEatbWdCaWpS40vv1La01OmXMl+2Vg8r69LxY9M0/y7zj9mfxO/6pE0JqSNYbNwAAIDPEEwDAGNX85xPxuc/tf3Epa3pjwFLYRj6ULfmedPfBqzhqvoK6admSB9E3Hd9WLV86rPbu4A1AABANME0ADB2KqapSa1Viy8qnI9NrodtO6utHfa5GtZ9VqqkU2cdj8FXYT9j2r0nNZhWMQ0AAJ8hmAYAxu7O2A8AVanypXfXLfug63HAUhiOl7X9JOv5tJZQup8nbVbuYaVtmovZWBQ+gkUwDQAAnyGYBgDGruZZpYxM1y2rfenddcs3WnqzRcdtO3tS2QFNb+MtlM6RVhGc1KI6dgRL1y3NYgcAgM8QTAMAY3d/7AeAalT/wrvrlk+bphF6sS3PKjuS6febp0LpGGnha9LnIrViWrU0AABcgWAaABittp3FVt3ABYYyo/mBcJotOWrb2aMaDuZ6Pj1OrvTsuxmYKZ1hPZ8mbmBICl1TR7AIpgEA4AoE0wDAmAmmqUlSK9Ub25g3PZSgncP6oZLjn1wtfTpZrJ4GrIO/xI0YCaukTx3BYsMVAABcgWAaABgzbbypyWBeenfd8rRUTgunua27bTtLbe276V7OUv7hcdh6xi7t85x270l9dvsQsAYAAIgnmAYAxuwrZ5+KDCrEFU6zRd9XcDBTw/MX5krHSWtVHfMdHT6CxXUEAABXIJgGAMashio7+FPXLU+GdiRKOP2NF/rc0sMKDmDi/aYPHH8MWAd/l9aq+m3AGs4JpgEAoHKCaQBgzATT1OL9UM9UmTndV06/DlgOdTpObue9nk9TWw//NFmsdCzIk/Z5Sbr/xF7n5V4GAAB8hmAaABiltp0dBVYlwWUGG0w35YV+1y37ObdPtfbmhpKrphOrPFVLB1rPp4nPJUn3n68D1nCRwXU0AQCAXRFMAwBjpVqamiS1Ut2Zrlv2Qdm/veTnBu4FH7TEYFq1dKa4Z5PJYpX0fZz67DbozWMAALBNgmkAYKwE09RkNAFS1y3fd93ygepprim1XXYTGpprnZ8p7dkkLXBNfXb7ELAGAACogmAaABgrbbypyenYzlapnv6maZoXAcuhAsFzptPuN28mi5UKz0xpn5W0z0nqs5suHwAAcEWCaQBgrJLbvsLHRhdMN/+bPf28BNSvVVDzGanBdNq6fg1YAxdLezaJGSPRtrPkrgg2egAAwBUJpgGAsUqc+QkX6cPZUQeypb33440KaiEAF4n7Xl/Pp4lh+ZuANXCxtM9w0r0n9rmtv0cFLAMAAKrwpdMEAIyUYJpajLJa+iIloO8rqJ+37exh0zTfNk3zUGt+isROGGmfzdPJYqXzQK60Z5Ok+0/qc5t7NAAAXINgGgAYnfB2kPAxlVgX6Lrlm1L5+XgjpL5v0wlh0u43ZuGGCq2uTwpdU0ewuEcDAMA1CKYBgDESXFGTD87Wp22E1P3Gk+MSBt4rs31T5w6zfYmbjr4KWMOmmJnB/ENcG++w6vrUzhjvAtYAAADVEEwDAGMkmKYmKhyvocz6fF1+/al0STguv+6UgOOuFuDsQdrGCN8nudI+K2ktqlM3GWnlDQAA1yCYBgDG6I6zTkXMg72lrlt+Moxr29lQQurNiuGvNoKc0YwvaNvZUZlFniIpTEurgOXvvg47HjEtqst3dCrXFAAAXINgGgAYo+SK6RcBayBI1y1VY+3YgI7xpQF8aXF+3tr83oDD6rthVcFJGx58l2RLezZJGiMR+9z2uY1PAADA3wmmAYAxSq28Oem65fOAdQADU1qcv9+Yxd0Hpg+bpvm2/M6WrefTtPA/pgKWC6V9XpIC19TnNtcUAABck2AaABiV8HaQXnACe1HaXf85i7tUUz9rmuaRo79Vae3hkypg2bCeTxNHCeOyuM8AAB4iSURBVCS1qE5rc37OcxsAAFzTFw4YADAyyXNkhQbA3vXV1F23fNw0zTfnFdVsRdpGKK28c8VtmpssVkmfl9RW3m8D1gAAAFVRMQ0AjE3yXFWhAXAwpd33d2076yunX4Zv5KnBnbA1Hry6s1QGPyzH5m75jF0llL1KW+m+wvdduZeeTBarpIrfz0kLXtOeR1Kf3VRMAwDANQmmAYCxSW0H2XjBCSToumXf3rsPpn4TTt9K1LE7ZAVsmbf9wy3mmV81mPzvP389n/Zh9s+Txer1Df/OfUoLpmOeR8qogVSe2wAA4Jq08gYAxib2BWfXLVVMAxHK99GDsDmztUmq8jxIgNZXSK/n01/KJoebhtI31R//V+v59Pf1fBrXKvsj96JW81fleYrkYNpzGwAAXJNgGgAYm9R2kF5uAlFKOP3UWbm+0rI6yd6D6RIG/98BAumP9ev4LTycHv3n5RNSz9tZ1y1t3AEAgGsSTAMAo6EdJMD19G29m6Z547BdW1qYttfNT+v59GFYK/ijEk6nPgekfV6SnklSR7DYUAgAADcgmAYAxiQ5mE5qmwmw6WlFLb1TwqK0+81/9vUXlcrkV4FVwEdlXVESK7kni9VJwDLOpVZMC6YBAOAGBNMAwJgkt/H0ghOI1HXL97VUTQe11k0LpvcSNJYW5r8EhtLn7q/n07SRHmnHKm0TSuqz2942ewAAwJAIpgGAMUltB9lUVI0IjNML5/1a7oWtZ1/3mGfh3Ul63wesYVNaUJ62US51k0NSVTkAAFRDMA0AjElsxXTXLb3gBGKVqun0zg5J36NRYdpksdr5uSvzm5/s+u/Zgodh60nbNBdznbftLC2035Q0hxsAAKohmAYAxiQ1mPZyE6iBDTRXl3S/2dc95tme/p7bOioheoq0CvMPAWs4F1t9XzbrAAAA1ySYBgDGJLUdpJebQA3ehq8xotIzLPRs9niPSatE/pSkc5S2aS6pM0JqMG2TDgAA3JBgGgAYhfB2kOlhD0BTwSz8/wSsoQkM03Z+j1nPpw+DN3+lSztuSZvl7gSs4SLp34UAABBLMA0AjEVsO0gV00ANKpiFn7K+tI1Q+wjR7u3h79imiDB4PZ/GbZqbLFZJzySpz27vAtYAAABVEkwDAGMhmAYYtpQqxq8C1rBpH62Z09pR1yLt2SRt80nq5yqp3TkAAFRFMA0AjEVsNVcFVYgA8bpumRIWpYVp+9j8VFswnbKJIS2YjmlR3baz5M+UDYUAAHBDgmkAYCxSK6bNKQS4vaQKxqj7zZ5aM9c2Xzrl3ps2QzmpRXXsZypoEwwAAFRHMA0AjEVqMO3lJsDtJW3ySbrf7Pwekzgn+XMmi1XKvTft2STpmST1c+W5DQAAbkEwDQAMXng7SC84AW7vbcIxDAxp9xHYp278ukxSG+a055OkDR5fB6zhIjrdAADALQimAYAxSH5p/iFgDQC1SwmL0toP7yOwF0zfwHo+jTtuk8XqJGAZ51I/VxGbYAAAoFaCaQBgDFRMA9xS286S5winfJem3W/2EcKmzUn+HG28L5ZUSd4Et/JOO04AAFAVwTQAMAbJL80F00AtbPL5vLT2w/sI0ZI3LFwkpVNJWvAaE7iGb4IRTAMAwC0IpgGAMYhtM9p1S7MKAW4p6Ls07X6zj8A+tbL1MimbGL4KWMOmpBbVsZtgum6Z1O4cAACqI5gGAMYg9QWnl5tATVI3+SR9l0aFtJPFaqeBfeKc5CtIqXhNezZJ2iiX+txmMyEAANySYBoAGLS2nSW/NNcOEqhJ6vdpxHfpej5Naz+8j8C+umB6slgJpi+WNFokrSX+OeNXAADglgTTAMDQJb80T5lzCXAVqWFRynfpGCtgk+eOXySpuj5tI0NS6Jr6uRJMAwDALQmmAYChS559qZU3UJPUjT4pYVHa8Xm3h78jLVz9nIhWzOv5NO7ZZNdt368p9bvGhkIAALglwTQAMHSpFX6NVt5AZcx9/bS0MG0f95h7e/g7tmkfYf1VjLHt+3XYBAMAAAMlmAYAhi62lXfXLQXTQE0iq2O7bpkSqqWFtPu4x9Q2YzolWEzb5BHzPNK2s+RON4JpAAC4JcE0ADB0qRV+2ngD1QgOi5I2+IxxZnBtwXRKdf2dgDVsSmpRnbyhMKndOQAAVEkwDQAMVtvOjoLnX3q5CdQkNSxKCqaTNkKd7Xpm8Ho+Td34danJYpWyKWyMmxiuKvW7xoZCAADYAsE0ADBkyS/NU+ZcAlyFma+fsJ5P047PPo5L6savyyRtYkjrQJB0bNKqyc8ZvwIAAFsgmAYAhiw5mDanEKhJ2vzkcyktiNOC6X2EaMmzgC8SESwGbmLoK8lVTH9eUrtzAAColmAaABiyr4N/NpU3QE1UTH9aWki7jxAt+R57kZTPyhir668jdVOhVt4AALAFgmkAYMhiK6a7bqliGqiJGdOf9lXIOs7t4x6T+pm4TMoIjbRnk53OIr+Otp0ld7qJOU4AAFAzwTQAMGQq/ABuqW1nsS2bu26ZEkwLG/Ol3HvTKs3fBqzhXOzcchsKAQBgOwTTAMCQqfADuL3UKkZzcS8xWaz20Xa4phnT74PmKKddT0nPJKmfKaE0AABsiWAaABik5Aq/oHaiAFdxJ/QoJQVqScG0aul/SpoPnLZpLuk6Sp1bbkMhAABsiWAaABiq5NmXXnACNUn9Po3Y5LOeT9M2Qu2rujMp7P2cn4LWknY96TzweTYUAgDAlgimAYChEkwDbEdqB4qU79K0ubjuMX93ktLGO3ATw9lksUqqsE8dGwAAAGyJYBoAGKrU1rNN1y1rqjIDRqxtZ8lBUUoAm3aMPuzp73m7p7/ntp4GrSVtE0NMtXTbzo4Cj885z20AALAlgmkAYKhSK6ZVsgE1Se4+kRKqpc3F3VeI9npPf89tPE2pli7SNjE4NgAAwF4JpgGAoUp9wSmYBmqS+l161nXLlBbEaeH9Xo7LZLF6H15J+nqyWP0YsI5NaZsY/hOwhnO6MwAAwAgIpgGAwQlvPZtUnQTwOfdCj5BKz0vsuUL48b6C8Gv6cbJYPQ5cV9omhqSNBaltvPsRLIJpAADYEsE0ADBEya1nk6qTAD7HWIRPWM+naXNx93pcStX0g6Bwul/Hd5PFKmmu9Kb7OUv5U1LgmroJBgAA2CLBNAAwROYUAmxHajD9IWANTeD9Zu9BY6nQfnDgKvY+kH7RNM03k8XqzQHXcamyiSFK2ViQIvW7JrEjAAAAVOtLpw4AGKC0GY4A1WnbWVp156aUFsRpYdpBwuESTv97PZ8+aprm26ZpHu7pr+5D6F/73yeLVXqAmLaJIW20SGowbQQLAABskWAaABii5FbeALVI7j6REkKm3W8OOi5isli9bprmdakOvlt+bbtSuA8K3+95lvY2jL66/jLhm2AAAIAtEkwDAEPkBSfA7cXOfO26ZUooeSdgDZsiKslL9fJJUGV7grRW3u8C1nAurs05AACwG2ZMAwCD0rYz1dIA25G6ycdc3MuZh5srbaNH0nWU3J0BAADYIsE0ADA0gmmAW2rb2S5aMG+LQO0SFba3HpO055Ok6yit8wAAALAjgmkAYGi08Qa4ve+Dj+HbgDU06/k0LWgUSmeL+rxMFqukNus2FQIAwEgIpgGAofkq/OeJndkKsOFh8MFIaVetjTdXsp5P01pVJ1VLN+GtvG14BACALRJMAwBDY04hwC207ex+eAVjSmVw2v1GxXSutLb4McF0285USwMAwIgIpgGAoUmvbFF5A6T7IXx9KaHa1wFr2PSfnKXwkbR7f9ImhvhgumzWAQAAtkAwDQAMRtvO0iqSLtS2M1XdQKRSvZjcxrvpumVKMJ32XZ40M5i/uxN2PD4ErOFcDc9EqroBAGBLBNMAwJDUEviqvAFSPQs/M0nhqxnTXJW275erYVPhvYA1AADAIAimAYAhqaJi2gtOIFHp5vAo/ORoQXyJyWJlxnSg9Xx6HLiJIWbGdCXPRDYUAgDAlgimAYAhqaVi+mEtbceBUXlZwQ/7LmANfdiYdr9JChr5u7jW+JPFyufleo6NYQEAgO0QTAMAHMYTxx1I0baz55VUBaZUBauA5aq+DztSabPIa6lG/iFgDQAAUD3BNADAYfygahpIUCoB02dL9866bpkSTKdVT5ovHai08VZdPwy63QAAwBYIpgEADuNI1TRwaG0764Oz3yo5EUkzlO8ErGFTRItz/iGxyvZDwBr+VFnQe1TJuAMAAIgmmAYAOJxnZhYCh1JCoV9K4FKDX4PWqHKST1rPp/1n5FHgUUpq5V3bM9Cjtp3V0nocAAAiCaYBAA7rldaQwL5tVErXFAwlBWrCKT7nSegGhqTOAzXy3AYAALcgmAYAOKw+FPrNS05gX0qnht8rC6Vj5kuXSlj43GcksY332WSxMo/8do49twEAwM0JpgEADk84DexF286el1C6tu+bNwFrOJcY6KfNvB67V6HXWFLXgZp5bgMAgBsSTAMAZPizgtHMaWAX+rmobTvrA+lnlR7gpPnSiY7HfgBSrOfTh03TPAxd3ruANQyF5zYAALgBwTQAQI7j8pLzuSocYBv60KRtZ79UOE96U9/GO6liOnG+9F0txg+vnINXwUtUMb1dntsAAOCaBNMAAHn6isb/86ITuKm2nT1q29lvpW13avXmVSWF0slqP89D8Ftym/zJYiWY3g3PbQAAcEVfOlAAAJGOyovOZ207e923sQ2rGASClDCkDybvld+HFI5o43013zdN87qGhQ7Rej59Fd6V4DRgDUP2j+e2vkK965ZnYz8wAACw6V9//PGHAwIADEJfqVLx/NSr6qud3pYXzKddt3xfx7KBbSkh9N3y687Gn4fofdctv0n6uUoA+ShgKRd5oCp2/8I/E+d+nCxWTzOW8j9tOxv6S6mT8sz2tnyf2SAAAMCoqZgGAIZkDC/77m/ON23bWVN+7rPy691BV8dndd3yecpRKgHnk4Cl8Gn3yv/1aMAB9GV+DlzTccAaLvPMHOH9qiSUbnQeOJjz57Y/77Xlue19+dWUZ7j/jO6o1KXfUKAbBQDAlgimAYAhGWu7xM2gyozRfDHBdPnsDL3LAHUTBlzP/fV8+nyyWCV9zwzSej49KjOlq9gsElxJfzaw0QNXcbyxweX+7f5R7MGJexEAwPZ84VgCAAOirTXp0j6jY6u+pS6vjSu4kWfr+bSGCt5qrefTPkz8vaLv0DcBa7iM1tak8xkFANgiwTQAMBgCDCqQ9hkdW5UadUls412LV8Lp7eurpNfz6ctSKZ3c0v1jyW28PbuRTqt1AIAtEkwDAENjtibJ3oat7d4V/n/gEE66bun7/HZelRCVLShB/++VzuVPrpj+ELAG+BT3IgCALRJMAwBDo/KGZGlz0Guq+GNcXjjfW/FkPZ/+XlpPcwPr+fThej7tK6RfVfqd+WayWKXdezYJ/Ujn3y0AALboSwcTABiYd04owdLmFAqmSaRaerv6Oci/refT/pi+mCxWju1n9C27m6bpK6R/GMD3ZHIb78b8XtIZFQQAsF2CaQBgaLxwJ1nMC/i2nd0NWAZcJL1aOrn69FP6qun76/m0D1l+KpW0ApeihNEPm6b5tvw+BGfhbbz70O+sbWenZQMFpPHvFQAAWyaYBgAGpeuWp20761/EHjmzhDnrX8AHLUm1NIleV1At/a7y4LK/9vvZ0y9LSH1S5t+/H1M19Xo+vVvC0DsltB9iMJrexvvciWCaULVuRAIAiCWYBgCG6E1pwQlJ0tqVCgFI0wcAT52VvTou98s/75nr+bQp81TPK6nfDuhnvVM2rR2N6Pvvp4A1XEXfbvxJ/jIZISOCAAC2TDANAAzRr4JpAqW1zP06YA2w6UVYV4HLDL2C7nijo8L9A6+FmzuZLFZVzG/uuyTodkMoM9ABALbsCwcUABiarlu+0XqPQB/ClqSVN0lOum75YyVnRFBBDdJntX8sehY2o+XfJwAAtkwwDQAMlRecpEmb3aoSkhT9i//HFZ2NtO4H8LEa54XX0nacEemr+Z1vAIDtEkwDAEPlBSdpYqpu2namXSpJ+hbe1YS9k8VKME266ma1d93yVDcCwviuBwDYAcE0ADBI5QWnKgdilM9kirs+GYR4U1EL703uL6TqZ0vX2jXGpkKSCKYBAHZAMA0ADNnPzi4h0qrABNMkOK2shfcmlZ2kqm229H913fK1MJAgvucBAHZAMA0ADFZ5wemlEgli2ngXWnlzaH/Ole66Zdq1cVXv6lgmI/O6wtnSH6s2WGdwPjilAADbJ5gGAIauujmLDNLbsB/qXsAaGLfvwtrbX5dW3qQ5G8Izj6ppgtjcCgCwA4JpAGDQum7Zhwe1zlpkONJesh8HrIHxely+m6s1WazeCy0I82KyWNXageBjtbb4Z1hskAAA2AHBNAAwBk8DWykzLoJp+MvjUhE5BKqmSfFmslj9OJSzYVMhCbpuKZgGANgBwTQAMHjlxZKW3hxSTGVl287uByyDcRpSKN37OWANcDbQCuPHNhVyQDYeAQDsiGAaABiFEoYMKRChHmddt0x6uX4UsAbGZ2ihdN/O+1SrVwJ8N6AW3v9V7pvfhSyH8bEpAgBgRwTTAMCYPDUTlANI+8zdDVgD4zK4UHrDTzErYYyeTharwVZ2lpbeLwKWwvi8c84BAHZDMA0AjMZG9Y0qCPYpraLyTsAaGIf+u/bBgEPppnTicE/hEF4Paa70Zbpu+VzHGw7ARlYAgB0RTAMAo1LmTT8QJLBHH8IOtlbe7MNpCaUHPaeztFBWNc2+vZksVkOcK32hrls+FhSyZ8Y0AADsiGAaABidrlueCqfZo7Rg7n7AGhi2NyWUHkuQ9KP7CXvUX1ejCaU3PBBOsy8jun8BAOydYBoAGCXhNHsU8xlr29lxwDIYtqddt/yujE4YBVXT7NGfzy7lMzcq5TvlQeBmL4ZHtTQAwA4JpgGA0Srh9DcqcNilsKobwTS70n/O/911y8HPvL3IZLF6Lsxgx0YbSp/rw+muWz4wc5od810OALBDgmkAYNQ2KnC85GQX0jY93A1YA8PSf4e+6Lrlv7U+HWV7Zfbj9WSx+veYQ+lNZeb005wVMTBvnVAAgN0RTAMAo1cqcB6XUMFLX7Yprerm64A1MBxvSpX0c+f0z6rpkzJvGrbpx8liZdPDR0p3hgeqW9kB/y4AALBDgmkAgKLrln3V9L/NL2SL3oUdTBXTbEP/HfmgzJIWCm2YLFZPjYdgS/pw7HH5THGBrluelOc2XW/YJt/hAAA79KWDCwDwPyVkedC2s4dN07w0k5dbSgvtfJ65jZPSttvmnU/rqzh/d71xC/2947vJYiUg+4wykuVx285+bprmleuOLXDdAQDs0L/++OMPxxcA4BJtO3vUNM0zLzq5oQdJIV7bzjz8cxMC6Wtaz6d9d4LfmqY5qmrhJOirf5+aJ30zbTt7Up7bXHvcSNct/+XIAQDsjmAaAOAKBNTcRNLLzbad3S9BGVzFWZkh/UK77psRTnNN56273zhwt9O2s/6a6wPq7z23cU0nXbd84KABAOyOYBoA4BpKi+/+RedDx43POOu65f9LOUjls/tLwFLI1odiv5aZ+9yScJorUiW9I2Vj4Q9N09wd5A/Itr3uuuVjRxUAYHfMmAYAuIauW/ahzZtSjXMeUt93DLlA2oxCL+W5zJ9hdP97mdfKlvQzgtfz6TclnHYN8rHTEkhrk78jZZPN67ad3d3YWKiKmst8cGQAAHZLMA0AcAMlvDl/2XkeUt8rIbUXnjSBwfSdgDWQ4bTMjX5bNtuwQ30V7Ho+7VvDvmya5pFjTdM0fXv8F5PFSmeCPem65en5RoCNkPq+DSN8JO3ZDQBgcATTAAC3tBlSN3+1jTwuLzvvlBeeKqrH6T9hP7UNE+N0WkKwd2V2psrMAygtmh+v59O+Mv2V1t6jJZAOsBFSn8+jvl82F3pm4/3ojwAAwI6ZMQ0AsAclrD4uLz2PSmh9VH6p1hmmB0khYNvOPPgP0/uNF+lvy+8nZca5yq9A6/n0SPX06AikK1Iqqs8D6682ntOE1gPXdct/jf0YAADsmmAaACBIqdwRVA/DadK83radeaE+DO+7bqmiawDW8+ndElC7Noer3yTy02Sx0jJ/YDyvDZOuIgAAuyeYBgAAgANZz6d9MP1D0zQPnYNB6DeO/NyP95gsVjaRAAAAbBBMAwAAwIGt59PjElA/MoO6On0A3VdF/zxZrLTQBwAAuIRgGgAAAIKs59O+evrbUkUtpM7UB9C/9oG0MBoAAOBqBNMAAAAQqsyi7gPqe2WmraD6MPrZs29LIH0yWazOxngQAAAAbkMwDQAAAJUoQfVxCanvlKD6vvO3NX0A3YfO70oI/V5FNAAAwHYIpgEAAGAA1vPpZkCtuvrTzkrw3DsTPgMAAOyeYBoAAAAAAACAnfrC4QUAAAAAAABglwTTAAAAAAAAAOyUYBoAAAAAAACAnRJMAwAAAAAAALBTgmkAAAAAAAAAdkowDQAAAAAAAMBOCaYBAAAAAAAA2CnBNAAAAAAAAAA7JZgGAAAAAAAAYKcE0wAAAAAAAADslGAaAAAAAAAAgJ0STAMAAAAAAACwU4JpAAAAAAAAAHZKMA0AAAAAAADATgmmAQAAAAAAANgpwTQAAAAAAAAAOyWYBgAAAAAAAGCnBNMAAAAAAAAA7JRgGgAAAAAAAICdEkwDAAAAAAAAsFOCaQAAAAAAAAB2SjANAAAAAAAAwE4JpgEAAAAAAADYKcE0AAAAAAAAADslmAYAAAAAAABgpwTTAAAAAAAAAOyUYBoAAAAAAACAnRJMAwAAAAAAALBTgmkAAAAAAAAAdkowDQAAAAAAAMBOCaYBAAAAAAAA2CnBNAAAAAAAAAA7JZgGAAAAAAAAYKcE0wAAAAAAAADslGAaAAAAAAAAgJ0STAMAAAAAAACwU186vAAAAPA/6/n0btM0/a/jpmnuNE1z5PBwQ2dN07wr/9PTpmneTxarUwcTAAAYo3/98ccfTjwAAACjtp5P7zdN833TNA8F0exYH1afNE3z62Sxeu1gAwAAYyGYBgAAYLRKIP2qVEfDvr1vmubpZLF648gDAABDJ5gGAABgdNbz6VEJpB86+wR4PVmsHjsRAADAkH3h7AIAADAmZYb070Jpgjxaz6fPnRAAAGDIVEwDAAAwGqVS+v/MkSbUN5PF6r2TAwAADJGKaQAAAMbkN6E0wR45OQAAwFAJpgEAABiF9Xz6pGmau842we45OQAAwFAJpgEAABiLH5xpwtk4AQAADJZgGgAAgMFbz6cPm6Y5dqYJp808AAAwWIJpAAAAxkCLZGpw6iwBAABDJZgGAABgDLRIpgZnzhIAADBUgmkAAADG4L6zTAXeOkkAAMBQCaYBAAAYtPV8qlqaWmjlDQAADJZgGgAAgKFTLU0tTpwpAABgqATTAAAADN0dZ5gKvJ8sVmZMAwAAgyWYBgAAYOi08qYGqqUBAIBBE0wDAAAwWOv59EgwTSXeOVEAAMCQCaYBAAAYMqE0tVAxDQAADJpgGgAAgCG77+xSg8lidepEAQAAQyaYBgAAYMjuObtUQLU0AAAweIJpAAAAhkwrb2rw1lkCAACGTjANAADAIK3n0+OmaY6cXSqgjTcAADB4gmkAAACGynxpaqGVNwAAMHiCaQAAAIbqjjNLBU4ni9WZEwUAAAydYBoAAIChMl+aGqiWBgAARkEwDQAAAHA4Pzn2AADAGAimAQAAGCrtkUn342Sxeu8sAQAAYyCYBgAAYKjeOrMEO22a5oUTBAAAjIVgGgAAgKF648wSqg+lH0wWK1X9AADAaAimAQAAGKTSIvmps0uYN0JpAABgjP71xx9/OPEAAAAM1no+fd40zTNnmAP7c6PEZLFSyQ8AAIySYBoAAIDBW8+n90s4fd/ZZo/OSoX0rwJpAABg7ATTAAAAjMZ6Pj1umuZh0zT3mqbp/3zX2WeLTktl9LumaU4mi9WJgwsAAPAXwTQAAAAAAAAAO/WFwwsAAAAAAADALgmmAQAAAAAAANgpwTQAAAAAAAAAOyWYBgAAAAAAAGCnBNMAAAAAAAAA7JRgGgAAAAAAAICdEkwDAAAAAAAAsFOCaQAAAAAAAAB2SjANAAAAAAAAwE4JpgEAAAAAAADYKcE0AAAAAAAAADslmAYAAAAAAABgpwTTAAAAAAAAAOyUYBoAAAAAAACAnRJMAwAAAAAAALBTgmkAgP/fnh0TAAAAIAxa/9Sm8IMaAAAAAABwJaYBAAAAAAAAuBLTAAAAAAAAAPxUA8Z3A9B2nNrwAAAAAElFTkSuQmCC;fontFamily=Helvetica;rounded=1;" parent="1" vertex="1">
          <mxGeometry x="30" y="286.09000000000003" width="245.74" height="47.82" as="geometry" />
        </mxCell>
        <mxCell id="1TfECa-dX_d4Ddrjt1kj-17" value="" style="shape=image;verticalLabelPosition=bottom;labelBackgroundColor=default;verticalAlign=top;aspect=fixed;imageAspect=0;image=data:image/svg+xml,PHN2ZyB4bWxucz0iaHR0cDovL3d3dy53My5vcmcvMjAwMC9zdmciIGlkPSJzdmcxNiIgdmVyc2lvbj0iMS4xIiBmaWxsPSJub25lIiB2aWV3Qm94PSIwIDAgMTYyOCA1MjcuNDAxIiBoZWlnaHQ9IjUyNy40MDEiIHdpZHRoPSIxNjI4Ij4mI3hhOyAgPGRlZnMgaWQ9ImRlZnMyMCIvPiYjeGE7ICAmI3hhOyAgPHBhdGggaWQ9InBhdGgyIiBmaWxsPSIjMjgyNjI0IiBkPSJtIDU5OC4zMTQsMTAyLjY0NSBoIDExMi4zOTcgYyA0My40ODksMC4yOTQgNzYuMTA3LDE4LjM2NSA5Ny44NTEsNTQuMjE1IDcuNzg3LDEyLjA0OCAxMi43MDksMjQuNjgzIDE0Ljc2NiwzNy45MDYgMS42MTYsMTMuMjIzIDIuNDI0LDM2LjA3IDIuNDI0LDY4LjU0IDAsMzQuNTI3IC0xLjI0OSw1OC42MjMgLTMuNzQ2LDcyLjI4NyAtMS4xNzYsNi45MDUgLTIuOTM5LDEzLjA3NiAtNS4yOSwxOC41MTIgLTIuNDk3LDUuMjg5IC01LjUwOSwxMC43OTkgLTkuMDM1LDE2LjUyOSAtOS40MDMsMTUuMTMzIC0yMi40OCwyNy42MjEgLTM5LjIyOSwzNy40NjUgLTE2LjYwMiwxMC41NzkgLTM2Ljk1MSwxNS44NjggLTYxLjA0NywxNS44NjggSCA1OTguMzE0IFogbSA0OC43MDYsMjc1LjI2MiBoIDU4LjE4MSBjIDI3LjMyOCwwIDQ3LjE2MywtOS4zMyA1OS41MDQsLTI3Ljk4OSA1LjQzNywtNi45MDYgOC44ODksLTE1LjY0OCAxMC4zNTksLTI2LjIyNiAxLjMyMiwtMTAuNDMyIDEuOTgzLC0yOS45NzMgMS45ODMsLTU4LjYyMyAwLC0yNy45MTUgLTAuNjYxLC00Ny44OTcgLTEuOTgzLC01OS45NDUgLTEuNzYzLC0xMi4wNDcgLTUuOTUxLC0yMS44MTggLTEyLjU2MiwtMjkuMzExIC0xMy41MTcsLTE4LjY1OSAtMzIuNjE3LC0yNy42OTUgLTU3LjMwMSwtMjcuMTA3IEggNjQ3LjAyIFoiLz4mI3hhOyAgPHBhdGggaWQ9InBhdGg0IiBmaWxsPSIjMjgyNjI0IiBkPSJtIDg0Ni41MTcsMjYzLjMwNiBjIDAsLTM3LjMxOSAxLjEwMiwtNjIuMjk2IDMuMzA2LC03NC45MzEgMi4zNTEsLTEyLjYzNSA1Ljk0NywtMjIuODQ3IDEwLjc5NywtMzAuNjM0IDcuNzksLTE0LjgzOSAyMC4yOCwtMjguMDYyIDM3LjQ3LC0zOS42NjkgMTYuODksLTExLjc1NCAzNy45OCwtMTcuNzc4IDYzLjI1LC0xOC4wNzIgMjUuNTYsMC4yOTQgNDYuODcsNi4zMTggNjMuOTEsMTguMDcyIDE2LjksMTEuNjA3IDI5LjA5LDI0LjgzIDM2LjU4LDM5LjY2OSA1LjQ0LDcuNzg3IDkuMTksMTcuOTk5IDExLjI0LDMwLjYzNCAxLjkxLDEyLjYzNSAyLjg3LDM3LjYxMiAyLjg3LDc0LjkzMSAwLDM2LjczMSAtMC45Niw2MS41NjEgLTIuODcsNzQuNDkgLTIuMDUsMTIuOTMgLTUuOCwyMy4yODggLTExLjI0LDMxLjA3NSAtNy40OSwxNC44MzkgLTE5LjY4LDI3LjkxNSAtMzYuNTgsMzkuMjI4IC0xNy4wNCwxMS43NTQgLTM4LjM1LDE3LjkyNSAtNjMuOTEsMTguNTEzIC0yNS4yNywtMC41ODggLTQ2LjM2LC02Ljc1OSAtNjMuMjUsLTE4LjUxMyAtMTcuMTksLTExLjMxMyAtMjkuNjgsLTI0LjM4OSAtMzcuNDcsLTM5LjIyOCAtMi4zNSwtNC44NDkgLTQuNDgsLTkuNDc3IC02LjM5LC0xMy44ODUgLTEuNzYyLC00LjU1NCAtMy4yMzEsLTEwLjI4NCAtNC40MDcsLTE3LjE5IC0yLjIwNCwtMTIuOTI5IC0zLjMwNiwtMzcuNzU5IC0zLjMwNiwtNzQuNDkgeiBtIDQ4LjkyMywwIGMgMCwzMS41ODkgMS4xOCw1Mi45NjYgMy41Myw2NC4xMzIgMi4wNiwxMS4xNjYgNi4yNCwyMC4yMDIgMTIuNTYsMjcuMTA4IDUuMTQsNi42MTEgMTEuOSwxMS45NzQgMjAuMjgsMTYuMDg4IDguMjIsNC44NDggMTguMDcsNy4yNzMgMjkuNTMsNy4yNzMgMTEuNjEsMCAyMS42NywtMi40MjUgMzAuMTksLTcuMjczIDguMDgsLTQuMTE0IDE0LjU1LC05LjQ3NyAxOS40LC0xNi4wODggNi4zMSwtNi45MDYgMTAuNjUsLTE1Ljk0MiAxMywtMjcuMTA4IDIuMiwtMTEuMTY2IDMuMywtMzIuNTQzIDMuMywtNjQuMTMyIDAsLTMxLjU4OSAtMS4xLC01My4xMTMgLTMuMywtNjQuNTczIC0yLjM1LC0xMC44NzIgLTYuNjksLTE5Ljc2MSAtMTMsLTI2LjY2NyAtNC44NSwtNi42MTEgLTExLjMyLC0xMi4xMjEgLTE5LjQsLTE2LjUyOCAtOC41MiwtNC4yNjEgLTE4LjU4LC02LjUzOSAtMzAuMTksLTYuODMyIC0xMS40NiwwLjI5MyAtMjEuMzEsMi41NzEgLTI5LjUzLDYuODMyIC04LjM4LDQuNDA3IC0xNS4xNCw5LjkxNyAtMjAuMjgsMTYuNTI4IC02LjMyLDYuOTA2IC0xMC41LDE1Ljc5NSAtMTIuNTYsMjYuNjY3IC0yLjM1LDExLjQ2IC0zLjUzLDMyLjk4NCAtMy41Myw2NC41NzMgeiIvPiYjeGE7ICA8cGF0aCBpZD0icGF0aDYiIGZpbGw9IiMyODI2MjQiIGQ9Im0gMTI1MC4zMSwzMDguOTI2IC00Ni41LC0xNDAuMzg2IGggLTAuODggbCAtNDYuNSwxNDAuMzg2IHogbSAxMy44OSw0My4xOTUgaCAtMTIxLjg4IGwgLTI0LjY4LDcxLjg0NiBoIC01MS41NyBsIDExNi44LC0zMjEuMzIyIGggNDAuNzggbCAxMTYuOCwzMjEuMzIyIGggLTUxLjM1IHoiLz4mI3hhOyAgPHBhdGggaWQ9InBhdGg4IiBmaWxsPSIjMjgyNjI0IiBkPSJtIDEzODAuNzgsMzU2LjMwOSBjIDQuNTYsNi4wMjQgMTAuNDMsMTAuOTQ2IDE3LjYzLDE0Ljc2NiA3LjIsNC41NTQgMTUuNjUsNi44MzIgMjUuMzUsNi44MzIgMTIuOTMsMC4yOTMgMjUuMjcsLTQuMTg4IDM3LjAyLC0xMy40NDQgNS43MywtNC41NTUgMTAuMjEsLTEwLjU3OCAxMy40NCwtMTguMDcyIDMuMzgsLTcuMTk5IDUuMDcsLTE2LjIzNSA1LjA3LC0yNy4xMDcgViAxMDIuNjQ1IEggMTUyOCB2IDIyMS40ODcgYyAtMC41OSwzMi4zMjQgLTExLjE3LDU3LjMwMSAtMzEuNzQsNzQuOTMyIC0yMC40MiwxOC4wNzEgLTQ0LjE1LDI3LjI1NCAtNzEuMTgsMjcuNTQ4IC0zNy4zMiwtMC44ODIgLTY1LjE2LC0xNC44NCAtODMuNTMsLTQxLjg3NCB6Ii8+JiN4YTsgIDxwYXRoIGlkPSJwYXRoMTAiIGZpbGw9IiM5ODJlMGEiIGQ9Im0gMzIzLjk2MSw0MjcuNDAxIGMgODkuNjc2LDAgMTYyLjM3MiwtNzIuNjk3IDE2Mi4zNzIsLTE2Mi4zNzMgViAxMDIuNjU2IGMgLTg5LjY3NiwwIC0xNjIuMzcyLDcyLjY5NiAtMTYyLjM3MiwxNjIuMzcyIHoiLz4mI3hhOyAgPHBhdGggaWQ9InBhdGgxMiIgZmlsbD0iI2ZkNWEzYiIgZD0ibSAyMTEuOTgsNDI3LjQwMSBjIDg5LjY3NiwwIDE2Mi4zNzMsLTcyLjY5NyAxNjIuMzczLC0xNjIuMzczIFYgMTAyLjY1NiBjIC04OS42NzYsMCAtMTYyLjM3Myw3Mi42OTYgLTE2Mi4zNzMsMTYyLjM3MiB6Ii8+JiN4YTsgIDxwYXRoIGlkPSJwYXRoMTQiIGZpbGw9IiNmYTlhODciIGQ9Im0gMTAwLDQyNy40MDEgYyA4OS42NzYsMCAxNjIuMzcyLC03Mi42OTcgMTYyLjM3MiwtMTYyLjM3MiBWIDEwMi42NTYgQyAxNzIuNjk3LDEwMi42NTYgMTAwLDE3NS4zNTMgMTAwLDI2NS4wMjkgWiIvPiYjeGE7PC9zdmc+;fontFamily=Helvetica;rounded=1;" parent="1" vertex="1">
          <mxGeometry x="100" y="378.62" width="120" height="38.77" as="geometry" />
        </mxCell>
        <mxCell id="1TfECa-dX_d4Ddrjt1kj-18" value="" style="shape=image;verticalLabelPosition=bottom;labelBackgroundColor=default;verticalAlign=top;aspect=fixed;imageAspect=0;image=data:image/png,iVBORw0KGgoAAAANSUhEUgAAAlgAAAF+CAIAAADRGfM9AAAAGXRFWHRTb2Z0d2FyZQBBZG9iZSBJbWFnZVJlYWR5ccllPAAAA2ZpVFh0WE1MOmNvbS5hZG9iZS54bXAAAAAAADw/eHBhY2tldCBiZWdpbj0i77u/IiBpZD0iVzVNME1wQ2VoaUh6cmVTek5UY3prYzlkIj8+IDx4OnhtcG1ldGEgeG1sbnM6eD0iYWRvYmU6bnM6bWV0YS8iIHg6eG1wdGs9IkFkb2JlIFhNUCBDb3JlIDUuMC1jMDYwIDYxLjEzNDc3NywgMjAxMC8wMi8xMi0xNzozMjowMCAgICAgICAgIj4gPHJkZjpSREYgeG1sbnM6cmRmPSJodHRwOi8vd3d3LnczLm9yZy8xOTk5LzAyLzIyLXJkZi1zeW50YXgtbnMjIj4gPHJkZjpEZXNjcmlwdGlvbiByZGY6YWJvdXQ9IiIgeG1sbnM6eG1wTU09Imh0dHA6Ly9ucy5hZG9iZS5jb20veGFwLzEuMC9tbS8iIHhtbG5zOnN0UmVmPSJodHRwOi8vbnMuYWRvYmUuY29tL3hhcC8xLjAvc1R5cGUvUmVzb3VyY2VSZWYjIiB4bWxuczp4bXA9Imh0dHA6Ly9ucy5hZG9iZS5jb20veGFwLzEuMC8iIHhtcE1NOk9yaWdpbmFsRG9jdW1lbnRJRD0ieG1wLmRpZDowMTgwMTE3NDA3MjA2ODExOTJFN0JFM0Q5QTc1QkJDRiIgeG1wTU06RG9jdW1lbnRJRD0ieG1wLmRpZDo5MUE3MjI0ODEwRUUxMUU3ODczNUJCNjhBMjIxNzZGNCIgeG1wTU06SW5zdGFuY2VJRD0ieG1wLmlpZDo5MUE3MjI0NzEwRUUxMUU3ODczNUJCNjhBMjIxNzZGNCIgeG1wOkNyZWF0b3JUb29sPSJBZG9iZSBQaG90b3Nob3AgQ1M1IE1hY2ludG9zaCI+IDx4bXBNTTpEZXJpdmVkRnJvbSBzdFJlZjppbnN0YW5jZUlEPSJ4bXAuaWlkOjAxODAxMTc0MDcyMDY4MTE4QzE0QUJFQkFEOEFGQTRGIiBzdFJlZjpkb2N1bWVudElEPSJ4bXAuZGlkOjAxODAxMTc0MDcyMDY4MTE5MkU3QkUzRDlBNzVCQkNGIi8+IDwvcmRmOkRlc2NyaXB0aW9uPiA8L3JkZjpSREY+IDwveDp4bXBtZXRhPiA8P3hwYWNrZXQgZW5kPSJyIj8++7pMYwAANQxJREFUeNrs3QecHWWh9/Gpp5/dsy29ENJDegKBQOgSeosJ3YKiVxFUvGK7vvdeu9f3FhRfrxKRACK9hEhVQAKEhPROekLqZrN9T5vyvDNnEyDZs3tm+1n29/3sRxH3zJmdZ2b+zzPzFFnaf7cEAEBvpXAIAAAEIQAABCEAAAQhAAAEIQAABCEAAAQhAAAEIQAABCEAAAQhAAAEIQAABCEAAAQhAAAEIQAABCEAAAQhAAAEIQAABCEAAAQhAAAEIQAABCEAAAQhAAAEIQAABCEAAAQhAAAEIQAABCEAAAQhAAAEIQAABCEAAAQhAAAEIQAABCEAAAQhAAAEIQAABCEAAAQhAAAEIQAABCEAAAQhAAAEIQAABCEAAAQhAAAEIQAABCEAAAQhAAAEIQAABCEAAAQhAAAEIQAABCEAAAQhAIAgBACAIAQAgCAEAIAgBACAIAQAgCAEAIAgBACAIAQAgCAEAIAgBACAIAQAgCAEAIAgBACAIAQAgCAEAIAgBACAIAQAgCAEAIAgBACAIAQAgCAEAIAgBACAIAQAgCAEAIAgBACAIAQAgCAEAIAgBACAIAQAgCAEAIAgBACAIAQAgCAEAIAgBACAIAQAgCAEAIAgBACAIAQAgCAEAIAgBACAIAQAgCAEAIAgBACAIAQAgCAEAIAgBACAIAQAgCAEAIAgBACAIAQAgCAEAIAgBAAQhAAAEIQAABCEAAAQhAAAEIQAABCEAAAQhAAAEIQAABCEAAAQhAAAEIQAABCEAAAQhAAAEIQAABCEAAAQhAAAEIQAABCEAAAQhAAAEIQAABCEAAAQhAAAEIQAABCEAAAQhAAAdDeNQ+CByI/dkCkJACAIOzXthCTso/9wXKM5PxJIVshCACAIOzT53Nizj8aerMWUcJkcKlJCQ9RYiRIMyT5dVsqUSFj2293dKPTL2lOJdS8lN0qyylkLAARhO/PPkiRLlnzFanSUVjZB6+f8jNJKhqklMSUYkX1BWc/D/X7fKH9JWidJBCEAEIRtzD/T+S+fEpjkGzxTH3qWPmyi3m+4Vqz2kGix3MYrAIAgbEv7z/bJ/sm+YZf4x1zsHzVJH5CfbT4AAEHY4U1AeZBWMicw/tOBiVP1ASHZR5EDAHpBEApDkuVJviFfCp02JzChrxKlpAEAvSEIj74InOIbenvojHnBSVHZTxkDAHpJEFqSsE/RB30rPGtucGKECAQA9JogdBqCRpla9M3wWV8JzYwpAcoVANBrglCYsixfE5r688jsUVofShQA0HuC0H0jOFAr/Wn0oluC0xSmHwMA9KYgtCQhrglO/s+Cy4apJRQkAKA3BaEwIkrwn6Pnfj98vs7cmwCA3hWEIt1PLb6/cO4lgTGUHwCglwWhSJ/mG/b72JzJ2kAKDwDQq4JQOCl4rn/Mg7HrB6sxSg4A0MuCUBiXByYviM0rVkIUGwCglwWhSM8JTl0Quy7MrNkAgA6l5H8GSiJ1VXDy/YVzSUEAQO8LQpG+wD/OScECJk4DAPS6IBTpmf6RD8Wu470gAKD3BaEwhqqlfyj4dH+1kHICAPS2ILQKlcj8ormn6H0pJABAbwtCIQnxo+hFF/pGUUIAgN4XhCJ9U3D6HeEzKR4AQGfLv3GEwhynDfp5wSVydy+rZEpWlZ0wJVtIUkjWC+Ug6zwBAEHY2Wxd8Tkp2F2TqFXa8aXGnmXGnhXGvlo7dcCqMyTL+fdRxV+mRApk/wx98Bn60NP8gwOSztkDAARhhzcHjS+GzrgycErXf/NKY++CxMoXUpu3mRVOq9R9T+n68NGxaPw3zyRWq7Jvqj5wTnD8LYGpA+jRCgAEYQem4Ai93/cjF3Tx1+62qn5W/9qfE6sa7Hr3gMiKJDuHpdnnoJZkv5fe+V56x28a3rkjNPNr4Zlh2c+ZBAA9VP50lhFOAt0dPm9Q17axnkquPfvI//6hYXGDSElOnrnL/MpSjteTsiTrkuzbZ1Z+t3bhFZUPrDb2cSYBAEHY3ubg+b6RnwlO68rv/HXDWzdU/XmPediNwDYcCqfhKPteT226rPJPL6Q2czIBAEHYZrYq63dFzvbLXfSo1pLsH9a9/M3a5w1huc279pD9+62quVUPPphYzvkEAARh25qD5sX+MZf5x3bZF/6o/u8/qXvJluzMs9B2k7W4SH2p+om/JFZzSgFAz5IPnWWE0ya7I3xWl33fffFlP6l7NdMjRml2l5yWohOTmZQ71oPUoTYfnFpKGHfWPDNSK5muD+bEAtAjCePYfS/HTbuFhk3mnplzC5ok5cvYbC0fjvunAqdc6B/RNd+2xtj/vboXbPeJqNbc/qiyOkzvN0XvXygHx6il2+zKBjtdL1LvGXv3mhWZzjLZPivrFXbtnTXPvlDyxZgc5IIC0ONS8LrQtK+HZhUrIetoS+A4qqQ4d8LfNLy9IL40+21QGOf6R/8gcsEQNWZm24IiyYZkPZRY+X/r/yFy52VvCUKnXuD7Suh0tUse0joF8N26F49Y1VL2AQ+20xA8yz/ym5FZZ+vDSpXwCf/3PqvmudSGexre3mLsz1SImhSh7FuS3u4U8E+iF3NNAehRKWgO0/v+d8GV/ZVoy7/43wVXrDD2rTf2NslCq0CN/FfhFVO0AS1v4ZfRSzYah/6aXNfeLhodROn2Q3+6PvhifxdNrv1YYvVLqY1S9pXuzaCk/SA6+9Xi2671j2+ago6BauFXQzP/Vnzb3OD0TPPfzlq3uC++dLNZzmUFoEcxnQDLmYKOIiU4RiuTMrNuHX8/t4epxTlTUMo8VZuk98+yhV4ZhG67eF5wYjB7MnWwlDB/17DUKaosLTlhReTQ/Ni8n0RnB3L1XB2sxv5cdP03IudmNiWalLBablU9QA9SAD2N98eUVvZmQCu2YTW9efbSIBR2XzV2VVdNqLY4vXOJsTtbS1xIsnxPwZU3Bqd43JQuqf9VcMU/hc889mL5BKrT9Nxn1XJdAUD+694WoXWOb9jJaknXfNnL6S1CpLI1B9PzApNuDZ3ayqqT/O/Ri8boA7NkoazuMitXG3s5vQCAIMyRJl02v7YhrMWpndn+XjumFH4ncl4bttlHiXw7fE62RwHOv7FeTW/j9AIAgrB5whqklZzjO7lrvm2rVbHFOuxOqH3ibpifDk6Y6jTs2mRuYMJU35BMx5kTs3ClOwGp4AwDAIKwOdbpvqFdNsV2g0gbWbrJuMNCz/MNb/Nmo0pgmhuiTfs+KdvMI7usSs4wACAIs7cHna8+Vx/eZd+3yTxUbyeaBmFI9p2kFrVny7P0kzLjMY5v/MlSQjKc9OUMAwCCMLugEpjpG9JlX5fJpCb9fYXoo0RGaqXt2XIfNaJJapOnoLIlRFJYnGEAQBBmbRBaTvyMcodkdtnfmXV0i/DJaqC9S17ImYiVm7R5SUEA6AG6a4o1a5o2MNwl4+hzBqQq5PZMd3eK1m+oGttuHjxuwho7NSEwdLTWp+edETlbsW6HI4/HS2TmHGixCiGp7duC3KQyZ2c+kvkRoskvy5mZ0xUPyy930P4cnb3dzvJBdzcyP604pK3Z1Y8OhTjxUHx0NNq8Ax7GQ7dxaRc7y97mOAlz7UyW86SFg9buvyj3RSS3qRHSeGSaOZ0+2qzSjjOcIOxS8jR9UL7c+dv38UFq4R9ic/+59q9bzQonUUXmTJwYGHZPwZWRPEj6VrZt7RI1GpR9opmj4lx/5Vad6TZ2c17GwicpZVpMbva75HqRrrLqj92Rs2xBk5Q+WqGaOapZY7TCjifcsaHKsb0z/Ep4jN5npj5ksj6gjxL58LsMyfrAqt5iHl5ifLDVPBy36zOJ2Krz3/mL1DKtUGlmfxyH7fqUO640sz/CdPawj1Z0pj50ij5wlFoakLXGu6yzhRqReN+sWGnuX2nsLbdqhfOprLPXtjFIDFnWY0p0gtZ3uj74ZK1ooFL48ePm5MZ+u2aPVbPeOLTOPHDQqjVFIrMDHm/0dkwNR+VAc+eJ7M7ra5dbNXZrb/fCCiuBEjXcQhw5X+oc57QbNnLjzpSqBUFZb35n5Bo7XmsncsWY83HRRyn0O3XjbBtpEOlKu87DIbKciyjk7k+zZ36lHW/IOqa52V0znc3qcrCvFj1VHzxO6zNSKy2Sgx8eJWebcSm936rZZlauNQ9uNsur7Hp32LQ7qTJxmKdBaGtyYHQXPhftbOf7RrxV+pXdRlVmtnXhl/WhalGXLTLccTUC4/bI2T+KzC5SgllvQ87FZkv2w4lVX6t5pv6j+MlexFHZ/6fYdVcHTlEkJesdygmDQ3bdd2pfXBBflu0OJXRZ+1Ph3HnBibqkNt2fTHjKS9K7v1Dz5CZzv3M3DMnBz4Rn3ho6dbo+sOU2/nrz4LOJjY8kV20yPnAvAU/VfLtQCT0cu/5i/2gnnrPtj5vnL6e23Fbz5AfWEWd/Rur9vx4666bQ1JgcaGG71XbilfSWh+KrXk5vNuyU1J7KU+Z2GVUKrg6eellgzAW+4VmnzD1BgzCWGLtfTm55PLlmj3kod/1AGOf5xzwQmzdEjTUXV07hJiXzS9VPPhR/t5kJ7rOnYF+14NGim8/1nWw3H7HOoX4gseLLNU+lndqDsK4LTfttwTUlSqiFnXGy4aaqP6839jU/xbObgndHzv+3yIVOpjbdVOZ0rf9izROLEmtbKiOR/lzojF8VXF7a4v6sNvffUvWXFvfnow06/zFM6z8vMOGiwKiz9JN8Hk7Xg3bdG+kdzyU3Pp/c0ODU+dxvUSS09GiwO+64RUqgnX01801I8o3V+07Q+0/QB4zSynpeCkp2X63ou5HznRSUjj5bOfEn81RR+Wxw2gX+kc3MLffRHXlOcNKcwATn9+Vmtub8Vl8l+oPo+YVqOFs/pvT1wUk3BafomQp4tp1xt3CGb+jXwjMlO3Gq7+TXSr/yu8JrTtUH5XzSPV7r9y/R85eU3P6zgquKlJDkpXOvMJw//HL/WC1zyWQ9OI7Z/lGfC06TrPgtoTOWld55e3hmyynoiCnBeYFJC4s/+0bxV85wD2xakuw2PbNN9VEL/jl60aqybyyIzbsuMNFLCjrCsn6hb8SvCi5dXfaN38SuG6QVS24tRzT7RbJ+Z/hMJwWbO08aCzcgaT+Kzu7nbs37y3Lrq+Ezz82MLW5uy42F6xxkdwiy24zW7gyd5aRgyzszUev384JLFTcPRHNn7AzfST+Lzg5mkqmZ0zXyH9HLgu53NXdwrP5ayY+js0tz7c9kbcCNwakeHj6nx/kG/77ohpWld/6i4JLzfcN93p7N9lOi1wcm/SV2w9qyu26PnOd3LiJ6sOddELpTjBYMUAs4+vnUHLSGqSVF3pZRHKP2yfW8xT7N26Pvk9Vi9wFy03dCwpqk9feyhZPU4rmhs14tvm1GK9dDLlQC34uc58Tn6f7huW8Twjpd99TJebhW+oXohX+MzckZgSc0KGf6hr5R/GUnm50IkVrX39h07nNfjMx6r/Trv4peOlwtbtuzMKf0v5bJ708HT81UdLLf7p17cV814q1oii7zj3N2z2MKFquxz+aOh6MKnMMrbEVSNNnTTWy2b9QItbT5A2s7VYeci8GN1fq4w46bO1uEcaFvpMex0YGWl6UV6RIlcm9s3tKSr30peFpMCbTtsnaur3sLrnq55EuZySDJwjxrEQ5VYqGe9v7sE88WtvD2wtT28GtpYXfNbjuJOz92bWFb7xSTtf6Lim+debQp1gFm+0ffU3CFLrWln4iTMd+LnPtw0U0RxZdtuqLsd8y+SuETRZ+7r2BOYyutnfor0b8U3fDN6PnH1hk/MbLTduKpxHqPW/t88FTZrRB4OK+EeaV/zFBvD4q2WhVvprdLss8WyXeNPV4+osvqlYHmUtn2KeELnXPAg/PdJcSVZtrKvksCoz0emZdT7zezCJHbuHdOyLdKbr89dEaH9DNwWs+vFH/xbP+oTFsf+RKEUuPzN6D9SpVwgRxozxZK5NATRTdPdhqULT/v9aafEmlnd+g5gfEPxG7U3BZDrsqEMEbpA14pue2aDp2zV5OU/4pe8ZnQjOwHRFYfTa7yuLjKDN/gT7kN7pwH1k2Rz3me+P7p5PrDVmXm5a7yWGKtx09d5CRB1qejwjhdGzhO6+tlI1cHxoeVbA/zJdFHLfiUz1OabjYPv53ek/0FoTBuDM14sfjWMR3ai8JdPC5240htQIec5ARhxxiplnLokT8GKAX3xq4Nut067HzYHycLf1pwafYFLz/WhBqsFT9WdPNEb8+QW+vewqun+odlayir+8zDTyXXeMzUzwanZ+4zouVEP8N3kseZh1OS+UB8+dGOfrK6Kv3B2+ldXj44RR84Qi3LOjPwLP9w1VvvypPVorN8J2V5xCqMy32jPb6XfSO9rd6qyXL7Fakrg5PmF85tZ90uq0Fq4fzYXL/77MTmks+LICxTQxx65JUz9ZO+4LaB8uU9yl3hWRf4Rzdff7d1WZtfOG9y56SgIyr7fxG5JHsTSlLnx5cb3qaMuDwwdoTeL+dbT+9vB59NbNjsDtttfPisJETD31KeVnopVUIznQw78c8Rquy71nOTWpbkawLjm2SJs0314sAYjxt5LLkuS19lYYzVB/6xcG6w07rane0bdmf4LK9P3QnCzhaSeEGIvPO18JkRpSBP6stOW+quyDmZ26XI2oS6NXSa+6yvM33KP/KKwLhsK25q64x9i5KbvWzEadx8Jji5xZuvNVgru9pNl9wsSTyYWCF9OIgwc6j+mtoU91aDmRuceGIXFWFN8w0ep/Xzflim64Mi7hBV6+MbGawWn+Ub5uXjK419K9MfNFkJRzhl/e9uj9Nw557koZllarHEvFf5EIRBRefQI9+M1soudhth+dIovNQ/+jy3g4ORpTmoBL8cOqML9uGmwJTMsMITp9J17qQPJpZ73Mi8wORCty9lMzdfYTr51Ffx1BN1hbH3pdSW496uyep7xt6NZrmXj5+mDx6qlR3XPBXm5f6xrZpncZo+cKI+4Pg2rj3RN7C/EvXy8VfTW2vt2hMH5gtruj5kTmBCZxfoEDV2jVu5oVHY/UEoun5yNa2Z8Teqc0m1cSIofAJdHhibZS2R7jPXvTPKTZNjkjZgbGs6U+ywKh9NrvlTYvmCxIp3jN3C8x/oNAr7ua3kpjO06S8lNy93ZyTwVMOYHRjdzM3XjijhWzw/F70vvswWyeOPiSyJ1EOJlV4+3keJfMptRn9Yt7BDavRT3vqLHnee+Mcef0zE9YGJXj6YFtZfk5uyTU9jzfaPUjzPAmNLYpmx12kcO2X6SGL1VqvC+867rfycb217me4Z9x2UuqhFaEr2PqvGScFD7pRaWZaSrxfpTWa5LmvpTqsi9VOj/bxVFdEhJX7IqnduE5qslClhrZVVvXN8JwdkX7LjetZl5gNrSAlTkZQyNexr5bCKS/xjQko4fuJ0XHJcGAnJDHi4jpwz/+f1ry9ILK+24o33PlXWrwmccn9sbtTDnC/FSug035CFidVNplORkyKxILFyurfhm7eFTnvc2Yi7Ayc8mTTP8Y+drA3wspGdVuWi5IZsKaK8kdpeJ9JRDzXsc3zD5sffPbonwjpJL/Y4QvT4LBn7w7qXraOz7dtFamHm7WNuTmK969QesjVAa9yA92S5sfd7dS+9md6RthufXshRJfhv0U/dFZ7l5eNjtb591eJDVrVEG6B7g7BrqiJbzMM/cE+XXcJ92mVlOflkdY9VfUHlfYZkGcKWO+cvdW7HNwYnfz98XlQJcMJ1njqR+m3DO88kNxyw60SmrT9QKbgiOO6roTMKPM/y5bQYTlZLNhr723+PSEnWffGljyfW7rVqnBPMqeyXKuFZvmF3hM8c7r6k8VaLUqLT9IGLT3wYqG00D36t5tlbgtO0ZmawkyXZqROsNw/+If7uVvfP0T6cqNqSzCfj756sFv2y4DIv+zBGK1uY9b2prD2eWHN3+NzBHoaQn6UPO0MfuiS94/gxA+7UvLeFT/d4NJ5IrjvojprwN92Tteb+Vca+sz28pZvtH12mRA8ffThpX+4f04bCHa32Ocs37B+pzW79QBjn+kac7K1Mndab4c566mvawn4wsbJMiZypDxXNTDrunEK1IvWP9I4/xZfWNk6cduxFY53d8N2aheO1fhd5aN0610V/NXrIOiJJBGG3BqHc+fPA7rGqrqpasPnoYJ3GGQqVrEF1xJ1ItxP3Z4+Z+EXti87+/Cl2nY8zr3PstWvmVj38bvL9TCkfPci7pYPvpN9/Orn+8dhNHqf0C8n6aK1so/vEr10l5bQCb65+9JXk+sb+hEfPBKl8ZXr7o4nVTxd/ZqY+1Mt2ArI2Seu3OLVROq7x556uj8TfeySxIsepK6zMrGT+49uobmPo2eSqHxdc7OWEHKTG3I9k+R613Kp8NLHq25Fzvfwhnw2d6gbhxxuFwhyvD/yUb4SnioUwH4qvaKZcnLZd+vnkRi9B6FRMZ/tHPhxfmjlVtMxDzlbTZeUc/8luELqdXLTZ3notOe34V91x9FkptXb8X2v/mqMG5pZdpk5/QplKsmHXPZ9c7SUInbLIjOTm0ejHKxndISV1+qDOXze8tdm5nTnlLWdmVW5pHib16NolnfTj7IASeCS+4kVvvezQWpYkvlr9zLvOLcYtbn+mxLWjNws58F5qyz/VPG147guaad+09x7x7bpFryTXuBX/4/bH+Z+BQ1bVDZUP77aqPW5qoDtfTLaz9+hiES2fe6okZPflnDs/dUoSSeefi9TICH3wNN9wj0+A3Snfmj0gyoLEyoS37Xw6MGGQdsIkZ+LG4FSPk0w5bf31ZgstdXVRanNaeBzRMS6TncZkfeBkfUDbivgS/yg9M/A0Iocu8zZwYoN56D1jb/MTbSvHZsduoUAz9xMnDj9Wpqr7/iU2zj9ysOp13TedObjzoEUo19mdPtPPGvNgPk247vayezu986oOnQEEjf6e2vZ8ap3U3BhkOfhycsOrqS2XensI5s5Q3L4gfCO9Y0F8ebOrLsj6HvPQf9S//tvCa7xsbYAaPTaYr1XLQDo3SiErgQI1EJb9Y7SyiVq/cVqf4VrJQKWwrxqJyR0xu5OsbTD3Ogk010N3xxIldF1g4n/W/+3YbceOqQU3Bad4+R5bEg8nlrt3/2aPqrrZPPRievNV/tyX2CzfsCFa6R7jwNn+4VHvi2Mcb6o2aII+YGVq28zgmAGKp5mTn02ud9/StOUbRaYCYUru3KqBmBoskANT9P5jtD4TtH6DtZizA/3USECiN35PCkIp2cnT/NTbqT1ujTuvaj1yhUhwwnWGhckNmWeALZzM9hPJtR6DsK9a0MyTQK8eclLQXRjB30J+vJHeXiOShR4mEBmgFuqybriXjJzrXmk0Bu1Ive90fdBE50aplo3SSk9WSwKdNUbbaVeJ++NL53rr9/+Z4LR74+8cXbJRpOcEZnicH3WZ8cGLqa0trlHl7EnSqe54CUInNibpg/aYhz/djuEKPlm9KjBuZXLD1YHxXnp7mpL9vNtftDU3pWPh51eCk/QhU/SBk/T+w9USp1ozSC1UWGiwpwdhQycHoSXZqfwbKKNy4nZW6/9ArpCQ1xmHPG4tKGvtaREakv0Pd8avFt/0yOoW68j75uHTPHS59DDUwV2JV5d9U30jLvSPuDYwfqRW2uaGTuujUH89tX2psWeGh76XTjbP9o9emFjlRJouB28ITPb4JX+KL3dHTbT8R8n6C8ktVZGEl6mML/ePXpraNUFv17w8Z/mG9dMHzvR5et37WmrbBvOQ505YToPeLFZiM3xDrwiMdepwfdVoQNK42D9RQVhhN3TutXls3TJ84qUlq9ptaucIwlqRbBDpLhjAetiu97D4uGJa8SN23MsGS+WwX1KN7K/V3Q7RYSXy6dBp/xSa4bQCtW54CiKnROKP8fdmFHoahHBzcMrC5DonuWf6x1zg99RNZodVudDtdpQzQtSdZvk7xq7LPPR/Od039MvhM2Ltm9Jzhj745tB0j3O9vpLaYjsnau5vdKo15kCt9CuhM24ITj7Zcwdj9Lwg3O723AU6QFIYHrpIyKawU5IV7vz9qbdTaedelrMaJosq29Oj8pgScOd8yNKj3pKEfW1w2r9GL5zYaTOOemwUPp1c94PI+V4WUXIaN5P0gWtS2z8bmuZx84uSGw+aFZKnJWusvyTWeAnCUWrZXZGz2/l3O/Wqu8PneKlxO5WwhalNkpR7PfqQEvx29KLbQzPLlDBX9yc8CCu91YWBjmr9y131xviISCRzv89z9+iwO8lDbqKZuUajSuh/Cq/+fGhaHjz8UI5Y1Q8lVvxL5EIv4TE3MOmgVeNx3IJTg7k/sbz5npYnNgrfSu/cZ9UOzLXud0DWOuRJo8e4WpLes83J8pbXEBap8fqQ+2PzTvW2qDU68gzulnvXHrs6ybJY+CTqr0TdB7Ai14s9IQZ7XUc3yxRrpWrBc8WfvzU0PW9eASgPJVZ5nBvl2sD4uyMXeIyQZ1Lr17hDDry9WpO13eahpd6W6u1KjyRXiZYfmIv0+f6xr5bcRgr2niBUDlh1Hhf2RB7yskK96K3DdZ2mhuYlnGTV4wvLcrs+6fb8kj86tLLy28Jrz/MNz6eGubbF2P9S8n0vvztW6+NxMjDhzhuwUjruz8+9K08l13XI3+ROONURqzQcsuvfTG9v6R2nME7S+y6IXc9cjN2lOx6NynK1SO6xqodrJRRAT9RPjeSa0EQUK8FeenCUaEwJHcgxXt4OKeG+qqf1FupEyvz4bAAi/ZXwufO8TfHcdFOHrPqDdt0uq6pWJG8KTinssAVg3cmb5ieWXRec1IEHc7W5f1Hqfal1XZzUN9LbD9sN7X/H9kBixTC1+EJvE9+0YIWxd7txqPm/wq3Z/Gf0ikEeZqprWlE4YjcctOud2tImo7y/Gr3W22pWyIMglOS0ndxslZ8nDacA8qhO7/k33enBWnpUJSQlMFwt7bVH8lL/qE3u07nmLy5hnqIPHu9tDTxbuI590CpRi+6KzPK4J87HNpvlL6e2rDT2OeFXacedhDhs1wu7bpQ24NbgqR3bKHwzvcP5OdvbQvNe3New1HR7WrZmKIis7Dcrn09tujU4vZ3f/pv6dy7yj2h/ED6ZaLGFKoyLA+Ovdie78SQpzGXGB6+ktmw0yw/YtRV2Q7ndUGs1SHbNVyMXEYQ9KQidq3u1sZ+jn1c5mJBM09s8ZBP0/hO0fuuMfdm7MIj0NN9Jp/p676uO64NTftvwdtIdCt1cdcG+KnCKx6EOzs3OlD58Nmid7Rs2QvX0KMW5RX677oU/J1YYH03k1Djprrv42Jn+UR09yt6p4Cbuiy/rqCB0kvtZT6MmstxeXky2NwjXmQe3WYeNlPljMTsot33GFqcUXktvbf4llDsV7ZWBUzyOjl+S3v2tukVL0jszY+3F0U5gcqbHmFJ4dicv1PwJ1l1zr6grjH2JvFkBFc6FVGE1xG1PJRKV/e7i6ZkBT03+T+f6VL4SPrM3Ty8+XR/03eiFknswrSw3PpE83TfqG2GvrboDVp30UTdUcaHP0+J5lmR/pvqxBxreNNw5d3zHfvTM/DtWSAndETmrE84ifWFq43azYwZHLUptOmBVSG1Ia1l/JbWtnb0Q3kjtSFi1W82KNcaB9mznlfTW3W5/0eYuBxFWgmd7W9p+k1l+VdUDS1JbMpNzNE5j68scH9WpfZ7pH3ZtcAJ3sh4VhLKy2Ty8zWQ0YR6dCU7Lo85z1eRzwek/KbhKd26sdjwz+a/hTqIoEkHZ9+PCy7/Qsc/ceqAfRi74fsFlIedWJRKZI5M5RLbzz+a5gVOeKL7Z+9D+be6aqx/2PBIjNU/PnFcZ+99wF28KNLnGLUmIH0cvnaIN6IyzqNaqfcDzyvUtcA6W07hs6xogSq1d/1d33F4bicZ5QWXdEqmn3FZp273sTrVvN//mQYRk3eOo+b8mNx52MzXQ9BlMsVJ0T8HVTKXdZt01Z4/cYCeWGHvaOcUROrBEhDD22zWjJK/v9n4QOe8C3/BnkhvWmQdMyQ7I2hitz3WBSdP0gRxNRZJ/Gp19deCUp5LrnIp8QhiqpAxTi871D7/SP877M8k6kVrpvkTQPr5lLx8sVcIBxZewaj7qo+E+TLMKlcKfFV761dDpnfenP5ZY/a3I2e2c1HthcsNa99l7m29Q1nPJjV8KzWjbh9ebB981dmfW7jDfSG9r85xE5W4ev59rEKTssUz7apl1UdyZx5VjTxfcRzKn6EN+XziH665HBqFzpr6R3t7mMxWdYXF617mt6ZR/um+I82NJtji2QgzH8ONO1Qc5P7a7GISQ3dZNqyvse6zqteaBNqwSfJJa9Mvo5f/R8I8PrCrhzmiiDtFiM30nfSs8a6zWpzOvbG2reej55OZbvC0r0UyDTDyUWJG54/vavBtvpXduNMvHtemPfTK5Lm7HGx8mLzc+2GAe8jIrbFOvpLZkljvtmIba1f5x/xS94KnEusbxmk42j9TKrvKPuyM8s+umliUIO7zmuCS9e79d63EFE3Q+8Vp62w+lC1r7MZUHMrlah22uIjh3ZNtOfTwPbM8DNG8LnTYnMH6vXWMLocvqQKUg1hVjWty/dH586c3BKW2uFq02DixKvi/J7VlUSK21a/6R2t6GIEwJ8/XU1o/+HJF+Jrm+bUH4pLvukpmr16vwWKZO2v2u4Jrvhc+rFHHn2IYk32A11mnrivS2i7S7yNous+Lt1C7KIG+oa439TiWaA5EnEsJ4xn1B9fFAkTebh71voVgJTdT6T9YHnKL1jXXZyE5ZW5Le9VpqW5s3cF9iqZV7IvXc5/MTqbaMrN9olS9O7/5YDCsvpN5vw/QQW82K152DkOu5aFwY21oz9/IQNTZZGzBJGzBSKyUFe34QZmq3z6c2Ugb5QlYrrZpn29c1AB3o2eSGNekPjn9PJr/uzlGS72eSIZL3JZa17cN7rGp3gcn29zqWlTXGvlbVGxotSm5y+zd9GMPukr/lb6Z3tHY7bxu7au3aXPdYt7fEW2naA706CJW/p7bvsaoohry5g2n3Nryz16rhSHS7crv+R+5i7tLxDSN1cXpHD1i8RfY5YfZ+60OoMf73OR/sgLaOW7F7LrWhtR9beGLtXEnbDQuTre6D+lhirZe51yXJej65sddOSUgQulWt/VblotRmiiFvqAesimP3X3Sn79e9tLlpt0lZrbBqMuMK8j0JE3bD/Yn3WvsxWxILEiukDhuEqryQ3JQSrZgvdKmxZ71xsEkM6wtTGxpaM+7ZqQQsd2cX8vCHyPrLqS2vtuNJMnp6i9CpDYnHE2vSkklJ5E9d/r740szNCN3mJ/Wv/bFhSfbXS7J6T8Nbb6d3t/9bOrkNojyVXHeklQuuLUptWuWuNdFBr77cvqO7t1qtaJi+mdqRbNrPU1a2m0dadcxfSW2tsKq8dfeVbZH6Qd1LDe2eYIRGZQ8NQvdMXZze9bfkVkoif5LQqZd/rebphe17fVthN7hTovQ+++3axe145WNJ4sf1f/9h7aLMWLGsD9aUpJ34XPVjW8yKNn+LIdl/jL9X7m1BxLaeR/p248CzydY9mXw4vkJ8/P1cu3fCyZinPb/2dg7+E+7KFU3rH7IQKe9XhCnZrZscTvYtT+/4cs3TrWq8nmCnVfmgc/RIwx4ZhJkz9X8TSymJfKLW28lrKxf8R8M/PM4+eoKtVsW11Q+ttdo1N5XHC1r1NjjB4/q9UmvGJ2SVFtZtNU8+nlzbhs/us2tvqH7k/7gpqLZ0bcr6NnP/NVUPbDAPteFbnDK9q/b5f6t7qfNvmsr8xFLT87esNQ8844RNm8cONnMevZp632OZrjH2rzcONLN8rvJ6aqvHFcV3mJXvGHtaN/pT1v8cf/fWmsfr29Qu/MCqvqZywfOp9e1cn9L7CaG2NHuq1yuXIDzuDHgptXlxeif5k0/NQs2S7O/UPDe78o9vteaJkHPHeTS59vwjv1+cWLcyvS/n7y839lbaCTekmpwVf0tt9RLD26wjTiMsx9rfsjuB3CYPI0OEe9/c0p5Hcz5ZrbLrrq966F/qXqm2kx4/VSuS/xt/d8bhXz8Rfy+TBLkuTNm/0Thw9pHf/abhHaM1zYglxu4Ljvzh3rrX9tp1K419Xj6ywn1V2aaXdrK61ti73vQ6vf4D8eWme8Q69P4o+95K73nT2+3FaSUn3GEbStbb1Ebj4N+8vcl7PLEm6UZmq+6uToT5Hokvc8r0jdbcDJPCeDCxcuaR365J71xpHPDyLNqJ813uMmFNd09bZew7YOeeo7XKTmxye0KpTS+0nWblKg/nlXOhrXYncc2XGYnzYRiKbNjJexoWz/I286y3eo3gEUEHVJJk+bXkxndSO2b4Tro+OOlC/8i+SiTrHBZpYVaKxJL0nv9uWLw4vdU99krw1w1vxZTg+b7hjVPPNDnzlF1W1Y/q/p5w7n1N77NuD4LN36194ebgVL+sZa3Ra7Kyz6r9Sf3fa6y6XKO1lLiduLv2hR9GLhiixUxhZ/1rnf18NLFmYXJj+4ZyO5vShbB+WvfCs8n1Xw2fcbl/rHPc/E3C1Yn5Gjux2ax4KrnuueSGHU7zzm21ep4iRNYqrfo7a568L7Hs+sDEy/3jhmvFWWcCc/6ucrt+WXrvgsSKRckNhkhJSkASxg/rXrIkMVoryxqlzgFx9vD55KYFieVtbKUJe5jWb6Ra5qk1bNU85Xaz7PCquSwJ886aZ/+z4IqhWlHWv1R2z0b1qdS638ffbanoZemO2ucMyTpVH2Q0U0VzSvnV1NZfNbzepqqDm4Wr0rsvOfKHWf7hNwennOsb3k+NZp2/PiEM54i9mt42P75spfsoXnauuJ3m4Ttrn/tmeFZE9lvZ9tBpxlWLxK/r395iHszyl8raTrP8G7ULvx6aVayEmttCvUj9puHtDdlf5aq1dv03a5//gXOhqbGsFVnnvHKO4UOJVS+mNkt5Mw5SlvbfnQe7YTuF/ULxFy7wj+yQzcVFenrFbzYZ+/PnQEsi/fnwzPsL57Z5A3fVPv/f9a919IMjj808tzdTWAmP0MpGqCX91agmyeLYtdsg0lvNIxvMQ4fdkTAic4HJxz5otVjBF5m2oNZ8fSbn0uSZlWg8lrK7NZF7g+7WmvyOHX+k+As3BCfn/BKneTrt8K8POjVud6ZKw9lgVIlO0QeM0soisq+xfubscb1I77aqtplHdpmHhZQ5Sm1MX9H4LbrsH68PPEktGqQWqMdKx7npOJX3D6za9eaBQ1Zl483uo7DxdEDsjxVoa3ctdU9s7p2hM7387u/iS75a/ajUYQsFn7AnVoszX7dY9CdUKoSX7ajtS/SjV1xMKZig9x+sFjoVqQ/rgs5377fqMnPv7XfngTt6/h/bpY8WKmnx8WcLJ5u7BcnD36h3yoXWi1uE7gWbFqn/aXjrfP8IuSMOTUj2DVELNzl1lvwh7P5yROqRlMb0dQJvTXrPGmmn1LRF5S5xpzW5NpQcTyxzV5D1jvw7ur5WlNn/OpF4M7XlzeTGbAct89OuB0RyY+k4dy+nMbFK2nFi6ciNS9ZpWapQnXpAhDlQLb7af4rHMG/HWhNeDpLaQRtX2/iUuE1XXLWIL3YXXbKblKnSfJnqHXLS9rAL7ZMShO7RX5Ta+HBi1S3BqR2yvVN9g19Orsub42wriu8c/3CpZ2use2rMrd36+5rSwaHe7A0of0rHuio4cYga8/Kri1KbVrdrrYlP9JkjSVxxnX+g8+cmK6xf1L9WYTd0yOa+GZo1yz9GspOZpeCsbv1x16K7IzzrItaPRm8hJNl/q+dlKR+ML+/QURNAD20RSo39svb9suH1X0Uvb//GipXQ47Gbf17/+ivprTVuVzTRHTcDt0tIPzX6meDUL3fiCnBAvuWgcXFg/BTd09q/68yDC91+Ez4OGwjCxixU7214Z7Zv9IUd0WvGSaB7Cq+sEUknCLulC2lmHTglpgTCXOToVc1BSb0lONXj4lP3xZel3cX/WFEPBOFRatJOfqdu0Qv6F/sq0Q7ZYqEcKFQDlDTQVTlojdX7zwlO8PK7+6zahe67fJXDhm6Uf0uqyvrK9J5/r3uVsgF6JvOzoel+b5XsF9Obd5vldJMBQZglC3/XsGR+D5hiH8AJzUGzn1Y6LzDR46/f17CM5iAIwuxJKEn29+teXMJ6lUAPY13mHztMLfbyq39NbX7PnZOT5iAIwuxRqB22ar5Y8+SuxukwAPSE9qAk+z4fnO7xtx9JrGLUBAjClrPQHU1xW/VTVa1c0gzoRqqkyHJvvbML40L/qBm+IV5+d4N5yF0giQ7VIAhzZaHvb6n1n3eXJklRVOjWU1H1uOZRuV0fd1o5vTMKhTVKLdW83VX+lHgv6c6eQXMQBGHuG1DgucTq22ueTQlWsUc3nofa/Ynlq4wcKwolhTk/vsxdDaN3dgBRfM+7S8znXndpibF7QXx5/g3fQi/VE05E2fdg/F2n3vj7wjl+3quje6gHrOrzK38/Qi39cG2HJpVKucJu2GZV9OLeH+oHVuXFlfOHqSUtrIPmHKgdVkWFu3gWlzMIQs9JKMn6gviSlGTdVzgnwgwU6Kb2TrXdsNyqzXWuar37cZ9SbtWWuwty5YhMUhAEYRuy0PdofFnCNubHPl2qhCk5dEuLp0tW4enhOmzNI6Crqm896PJysvC55Op5VQ9vtyooOQBAbwvCo1n4enLjRUfmL07vpPAAAL0tCBt3ObDDLJ9TteDehncoPwBA7wtCt2WoH7bq76h96vbqZ2vMNKUIAOhlQSg1vpBX/l/8zbMrfv9EzWZJUJQAgF4VhI07L+trxc4b6x787KFndifrKU4AQK8Kwka6qRoP2ovPPPLbeyqX1ZlMQAMA6F1BeLRpuE859I34Y+eU3/eXmg2GbVO0AIDeE4RHm4aSqq6St9xYv+Da8keXJPZZvDkEAOTyCZvlSJYkn6SIRfby16o2nRU/6dbw9Iv9owvlACUNAOgNQXgsDmU9LiVeSa1/Nb3pFG3gjcHJcwITRmilCgUOADieKn3rzE/on6ZkhljI5Vb131Nb/pxc+176A0uIQjlYqPTIBuLLqS3vpncy1yUA0CJsdevQ+a8qu/7p5MqnU2v7K0Wna0Nn6kNn6IOdNmJfNaQoLA0KAAThJ5/TQPRJkjhgH3kmdfiZ1HJFCgySi8ar/cZqfUYrfUfpxSP0kgLVF5R1zY3PvFtLR5F4sgsABGH7G4iS1phwtmTtkQ7tMQ+8YDr5qKmyViYKytTQYKmkv13Uzx8o0f0Fql5ixYJ20KcqhZpPqGa1FO+WfHTieb9dK5GFANDxwbD/bo6CdHSghXDz0flP0dgedNuFiq0rtqLKSkBVhWwnJbO7Goq2JAxhUVQAQIuwk1qKjf+pHPtfR8cg2ophK5IpidTRfyd3607yOhMACMIujUaJ7AGATzbeOQEACEIAAAhCAAAIQgAACEIAAAhCAAAIQgAACEIAAAhCAAAIQgAACEIAAAhCAAAIQgAACEIAAAhCAAAIQgAACEIAAAhCAAAIQgAACEIAAAhCAAAIQgAACEIAAAhCAAAIQgAACEIAAAhCAAAIQgAACEIAAAhCAAAIQgAACEIAAAhCAAAIQgAACEIAAAhCAAAIQgAACEIAAAhCAAAIQgAACEIAAAhCAAAIQgAACEIAAAhCAAAIQgAACEIAAAhCAAAIQgAACEIAAAhCAAAIQgAAQQgAAEEIAABBCAAAQQgAAEEIAABBCAAAQQgAAEEIAABBCAAAQQgAAEEIAABBCAAAQQgAAEEIAABBCAAAQQgAAEEIAABBCAAAQQgAAEEIAABBCAAAQQgAAEEIAABBCAAAQQgAAEEIAABBCAAAQQgAAEEIAABBCAAAQQgAAEEIAABBCAAAQQgAAEEIAABBCAAAQQgAAEEIAABBCAAAQQgAAEEIAABBCAAAQQgAAEEIAABBCAAAQQgAAEEIAABBCAAAQQgAAEEIAABBCAAAQQgAIAgBACAIAQAgCAEAIAgBACAIAQAgCAEAIAgBACAIAQAgCAEAIAgBACAIAQAgCAEAIAgBACAIAQAgCAEAIAgBACAIAQAgCAEAIAgBACAIAQAgCAEAIAgBACAIAQAgCAEAyA//X4ABAFKLuNvyVTA5AAAAAElFTkSuQmCC;fontFamily=Helvetica;rounded=1;" parent="1" vertex="1">
          <mxGeometry x="230" y="394" width="62.83" height="40" as="geometry" />
        </mxCell>
        <mxCell id="1TfECa-dX_d4Ddrjt1kj-19" value="" style="shape=image;verticalLabelPosition=bottom;labelBackgroundColor=default;verticalAlign=top;aspect=fixed;imageAspect=0;image=data:image/svg+xml,PHN2ZyB4bWxucz0iaHR0cDovL3d3dy53My5vcmcvMjAwMC9zdmciIHZpZXdCb3g9IjAgMCA3MTMuMjQgMTcwLjE0Ij48dGl0bGU+RWxlbWVudCA0PC90aXRsZT48cGF0aCBmaWxsPSIjMWQxZDFiIiBkPSJNMjYyLjA3LDcyLjE5YzAsNy44NS00Ljg1LDEzLjEzLTEyLjA4LDEzLjEzUzIzNy44Miw4MCwyMzcuODIsNzIuMTlWMzYuNTFIMjI3LjMzVjcyLjhhMjIuNSwyMi41LDAsMCwwLDUuODQsMTUuNThDMjM3LjI3LDkyLjczLDI0My4wOSw5NSwyNTAsOTVjMTUuNiwwLDIyLjU4LTExLjE2LDIyLjU4LTIyLjIzVjM2LjUxaC0xMC41WiIvPjxwb2x5Z29uIGZpbGw9IiMxZDFkMWIiIHBvaW50cz0iMzI3LjE1IDk0Ljk1IDMyOS41NiA5NC45NSAzMjkuNTYgMzYuNTEgMzE5LjE2IDM2LjUxIDMxOS4xNiA3MS42NSAyODcuMzkgMzUuNTEgMjg3LjI3IDM1LjM3IDI4NC44NSAzNS4zNyAyODQuODUgOTMuOSAyOTUuNDMgOTMuOSAyOTUuNDMgNTguOTMgMzI3LjAzIDk0LjgxIDMyNy4xNSA5NC45NSIvPjxyZWN0IGZpbGw9IiMxZDFkMWIiIGhlaWdodD0iNTcuMzkiIHdpZHRoPSIxMC40OSIgeT0iMzYuNTEiIHg9IjM0Mi40OCIvPjxwb2x5Z29uIGZpbGw9IiMxZDFkMWIiIHBvaW50cz0iMzk5LjQ3IDM2LjUxIDM4Ni40OCA3MS44MiAzNzMuMjMgMzYuNTEgMzYxLjk3IDM2LjUxIDM4NC43MiA5NC43NyAzODcuNTQgOTQuNzcgNDEwLjQ3IDM2LjUxIDM5OS40NyAzNi41MSIvPjxwb2x5Z29uIGZpbGw9IiMxZDFkMWIiIHBvaW50cz0iNDU0LjMxIDg0LjYzIDQyOS45NiA4NC42MyA0MjkuOTYgNjkuMTkgNDUyLjkyIDY5LjE5IDQ1Mi45MiA2MC4yNiA0MjkuOTYgNjAuMjYgNDI5Ljk2IDQ1Ljk1IDQ1NC4zMSA0NS45NSA0NTQuMzEgMzYuNTEgNDE5LjQ2IDM2LjUxIDQxOS40NiA5My45IDQ1NC4zMSA5My45IDQ1NC4zMSA4NC42MyIvPjxwYXRoIGZpbGw9IiMxZDFkMWIiIGQ9Ik00OTQuNDcsOTMuOWgxMi40NUw0ODguMzQsNzBjOS41OC0xLjQzLDE1LjI4LTcuNjQsMTUuMjgtMTYuNzIsMC0xMC40OC03LjM2LTE2LjczLTE5LjY5LTE2LjczSDQ2Ni4wN1Y5My45aDEwLjQ5VjcwLjY3bDE3Ljc5LDIzLjA3Wk00ODIuNzksNjIuMzZoLTYuMjN2LTE3aDYuOTNjNi4wNSwwLDkuODEsMy4yNSw5LjgxLDguNUM0OTMuMyw1OS4yNiw0ODkuNDcsNjIuMzYsNDgyLjc5LDYyLjM2WiIvPjxwYXRoIGZpbGw9IiMxZDFkMWIiIGQ9Ik01MzMuNzUsODUuNTljLTUuNjEsMC0xMC43OS0zLjYxLTE1LjU1LTcuNTFsLS4zNC0uMjgtNS4yNSw3LjY0LjI3LjI0YzYuOSw2LjE1LDEzLjc0LDkuMjcsMjAuMzQsOS4yN0M1NDQuNDgsOTUsNTUyLDg4LjIyLDU1Miw3OC4yMWMwLTguOTEtNy4xLTEzLjQ5LTEyLjQ0LTE2LjE2TDUzMyw1OC43M2MtNS41OC0yLjg0LTcuMzgtNC43Ny03LjM4LTcuOTQsMC00LDMuODQtNi4xNCw3LjYzLTYuMTRzNy44NCwxLjczLDEyLjE1LDUuMTVsLjM0LjI3LDUtNy4zLS4yNy0uMjNjLTQuMTYtMy41LTkuNDMtNy4wOC0xNy4xMS03LjA4LTExLjE3LDAtMTguMzksNi4yNi0xOC4zOSwxNS45NHM3Ljc2LDE0LjIyLDEzLjU5LDE2Ljg3TDUzNC4xNyw3MWM0LjUsMi4yOSw3LjI5LDQuNDMsNy4yOSw4QzU0MS40Niw4My4xMiw1MzguNTgsODUuNTksNTMzLjc1LDg1LjU5WiIvPjxyZWN0IGZpbGw9IiMxZDFkMWIiIGhlaWdodD0iNTcuMzkiIHdpZHRoPSIxMC40OSIgeT0iMzYuNTEiIHg9IjU2MS42OCIvPjxwb2x5Z29uIGZpbGw9IiMxZDFkMWIiIHBvaW50cz0iNTk5LjM4IDkzLjkgNjA5Ljc4IDkzLjkgNjA5Ljc4IDQ1Ljk1IDYyNS45MyA0NS45NSA2MjUuOTMgMzYuNTEgNTgzLjE0IDM2LjUxIDU4My4xNCA0NS45NSA1OTkuMzggNDUuOTUgNTk5LjM4IDkzLjkiLz48cGF0aCBmaWxsPSIjMWQxZDFiIiBkPSJNNjM4LjU0LDMwLjk0YTYuNjksNi42OSwwLDEsMC02LjY5LTYuNjlBNi41NSw2LjU1LDAsMCwwLDYzOC41NCwzMC45NFoiLz48cGF0aCBmaWxsPSIjMWQxZDFiIiBkPSJNNjU3LjU3LDMwLjk0YTYuNjIsNi42MiwwLDAsMCw2LjY5LTYuNjksNi43LDYuNywwLDAsMC02LjY5LTYuNjksNi42MSw2LjYxLDAsMCwwLTYuNjksNi42OUE2LjU1LDYuNTUsMCwwLDAsNjU3LjU3LDMwLjk0WiIvPjxwYXRoIGZpbGw9IiMxZDFkMWIiIGQ9Ik02NDkuNDYsMzUuNjNoLTIuOUw2MjIuNjYsOTMuOWgxMC44M2w0LTEwLjMxSDY1OC43bDQuMTksMTAuMzFoMTAuODJsLTI0LjE1LTU4Wm01Ljc3LDM5LjIxSDY0MC44OEw2NDgsNTYuNzdaIi8+PHBvbHlnb24gZmlsbD0iIzFkMWQxYiIgcG9pbnRzPSI2NzAuNDQgMzYuMzUgNjcwLjQ0IDQ1LjggNjg2LjY4IDQ1LjggNjg2LjY4IDkzLjc0IDY5Ny4wOSA5My43NCA2OTcuMDkgNDUuOCA3MTMuMjQgNDUuOCA3MTMuMjQgMzYuMzUgNjcwLjQ0IDM2LjM1Ii8+PHBhdGggZmlsbD0iIzFkMWQxYiIgZD0iTTI1Ny4yOCwxNDAuNTdhMTQuNDQsMTQuNDQsMCwwLDAsNy4zNC0xMi40NWMwLTkuNjQtNy42NC0xNS4zOS0yMC40My0xNS4zOUgyMjcuMzNWMTcwaDE4LjM0YzEzLjE4LDAsMjEtNi4zLDIxLTE2Ljg2QzI2Ni43MSwxNDcuMzYsMjYzLjIxLDE0Mi43MiwyNTcuMjgsMTQwLjU3Wk0yMzcuOCwxMzdWMTIxLjQ2aDYuNzRjNS42MiwwLDkuNywzLjEzLDkuNyw3LjQ0LDAsMy45My0yLjU1LDguMTQtOS43LDguMTRabTguMzksMjQuNDdIMjM3LjhWMTQ1LjI1SDI0N2M1LjczLDAsOS40MywzLjA1LDkuNDMsNy43OEMyNTYuNDEsMTU4LjQyLDI1Mi42OSwxNjEuNTEsMjQ2LjE5LDE2MS41MVoiLz48cmVjdCBmaWxsPSIjMWQxZDFiIiBoZWlnaHQ9IjU3LjI1IiB3aWR0aD0iMTAuNDciIHk9IjExMi43MyIgeD0iMjc1Ljg2Ii8+PHBvbHlnb24gZmlsbD0iIzFkMWQxYiIgcG9pbnRzPSIyOTguMjYgMTY5Ljk5IDMzMy4wMiAxNjkuOTkgMzMzLjAyIDE2MC43MyAzMDguNzMgMTYwLjczIDMwOC43MyAxNDUuMzMgMzMxLjYzIDE0NS4zMyAzMzEuNjMgMTM2LjQzIDMwOC43MyAxMzYuNDMgMzA4LjczIDEyMi4xNiAzMzMuMDIgMTIyLjE2IDMzMy4wMiAxMTIuNzMgMjk4LjI2IDExMi43MyAyOTguMjYgMTY5Ljk5Ii8+PHBvbHlnb24gZmlsbD0iIzFkMWQxYiIgcG9pbnRzPSIzNTMuMjYgMTEyLjczIDM0Mi43OSAxMTIuNzMgMzQyLjc5IDE2OS45OSAzNzcuNjQgMTY5Ljk5IDM3Ny42NCAxNjAuMjkgMzUzLjI2IDE2MC4yOSAzNTMuMjYgMTEyLjczIi8+PHBvbHlnb24gZmlsbD0iIzFkMWQxYiIgcG9pbnRzPSIzODguMDMgMTY5Ljk5IDQyMi44IDE2OS45OSA0MjIuOCAxNjAuNzMgMzk4LjUgMTYwLjczIDM5OC41IDE0NS4zMyA0MjEuNCAxNDUuMzMgNDIxLjQgMTM2LjQzIDM5OC41IDEzNi40MyAzOTguNSAxMjIuMTYgNDIyLjggMTIyLjE2IDQyMi44IDExMi43MyAzODguMDMgMTEyLjczIDM4OC4wMyAxNjkuOTkiLz48cG9seWdvbiBmaWxsPSIjMWQxZDFiIiBwb2ludHM9IjQzNC42OCAxNjkuOTkgNDQ1LjE1IDE2OS45OSA0NDUuMTUgMTQ2LjkgNDY2LjIyIDE0Ni45IDQ2Ni4yMiAxMzguMjUgNDQ1LjE1IDEzOC4yNSA0NDUuMTUgMTIyLjM0IDQ2Ny43OSAxMjIuMzQgNDY3Ljc5IDExMi43MyA0MzQuNjggMTEyLjczIDQzNC42OCAxNjkuOTkiLz48cG9seWdvbiBmaWxsPSIjMWQxZDFiIiBwb2ludHM9IjQ3OC43MiAxNjkuOTkgNTEzLjQ5IDE2OS45OSA1MTMuNDkgMTYwLjczIDQ4OS4xOSAxNjAuNzMgNDg5LjE5IDE0NS4zMyA1MTIuMSAxNDUuMzMgNTEyLjEgMTM2LjQzIDQ4OS4xOSAxMzYuNDMgNDg5LjE5IDEyMi4xNiA1MTMuNDkgMTIyLjE2IDUxMy40OSAxMTIuNzMgNDc4LjcyIDExMi43MyA0NzguNzIgMTY5Ljk5Ii8+PHBvbHlnb24gZmlsbD0iIzFkMWQxYiIgcG9pbnRzPSI1MzUuMzIgMTEyLjczIDUyNC44NSAxMTIuNzMgNTI0Ljg1IDE2OS45OSA1NTkuNyAxNjkuOTkgNTU5LjcgMTYwLjI5IDUzNS4zMiAxNjAuMjkgNTM1LjMyIDExMi43MyIvPjxwYXRoIGZpbGw9IiMxZDFkMWIiIGQ9Ik01ODkuNjcsMTEyLjczSDU3MS4zM1YxNzBoMTcuOTFjMjMuMTcsMCwzMS40LTE1LjYsMzEuNC0yOUM2MjAuNjQsMTI0LjM2LDYwNy45LDExMi43Myw1ODkuNjcsMTEyLjczWk02MDkuNzMsMTQxYzAsMTIuNy03LjMxLDIwLTIwLjA2LDIwSDU4MS44VjEyMS45aDguMTNDNTk5Ljc5LDEyMS45LDYwOS43MywxMjcuODEsNjA5LjczLDE0MVoiLz48cG9seWdvbiBmaWxsPSIjMWQxZDFiIiBwb2ludHM9IjEzMy41OCAzNi40NiAxMzMuNTggMCAwIDAgMCAxNzAuMTQgMTcwLjA4IDE3MC4xNCAxNzAuMDggMzYuNDYgMTMzLjU4IDM2LjQ2Ii8+PC9zdmc+;fontFamily=Helvetica;rounded=1;" parent="1" vertex="1">
          <mxGeometry x="105" y="417.39" width="120" height="28.62" as="geometry" />
        </mxCell>
        <mxCell id="4CRZ8gmeou8eefTgOgz0-3" value="" style="edgeStyle=orthogonalEdgeStyle;rounded=0;orthogonalLoop=1;jettySize=auto;html=1;" edge="1" parent="1" source="1TfECa-dX_d4Ddrjt1kj-22" target="1TfECa-dX_d4Ddrjt1kj-23">
          <mxGeometry relative="1" as="geometry" />
        </mxCell>
        <mxCell id="1TfECa-dX_d4Ddrjt1kj-22" value="&lt;font style=&quot;font-size: 14px;&quot;&gt;Identify published articles&lt;/font&gt;" style="rounded=1;whiteSpace=wrap;html=1;fillColor=#f5f5f5;fontColor=#333333;strokeColor=#666666;strokeWidth=2;fontFamily=Helvetica;" parent="1" vertex="1">
          <mxGeometry x="629" y="80" width="191" height="80" as="geometry" />
        </mxCell>
        <mxCell id="4CRZ8gmeou8eefTgOgz0-4" value="" style="edgeStyle=orthogonalEdgeStyle;rounded=0;orthogonalLoop=1;jettySize=auto;html=1;" edge="1" parent="1" source="1TfECa-dX_d4Ddrjt1kj-23" target="1TfECa-dX_d4Ddrjt1kj-24">
          <mxGeometry relative="1" as="geometry" />
        </mxCell>
        <mxCell id="1TfECa-dX_d4Ddrjt1kj-23" value="&lt;font style=&quot;font-size: 14px;&quot;&gt;Determine articles under Creative Commons license&lt;/font&gt;" style="rounded=1;whiteSpace=wrap;html=1;fillColor=#f5f5f5;fontColor=#333333;strokeColor=#666666;strokeWidth=2;fontFamily=Helvetica;" parent="1" vertex="1">
          <mxGeometry x="629" y="191.25" width="191" height="60" as="geometry" />
        </mxCell>
        <mxCell id="4CRZ8gmeou8eefTgOgz0-5" value="" style="edgeStyle=orthogonalEdgeStyle;rounded=0;orthogonalLoop=1;jettySize=auto;html=1;" edge="1" parent="1" source="1TfECa-dX_d4Ddrjt1kj-24" target="1TfECa-dX_d4Ddrjt1kj-25">
          <mxGeometry relative="1" as="geometry" />
        </mxCell>
        <mxCell id="1TfECa-dX_d4Ddrjt1kj-24" value="&lt;font style=&quot;font-size: 14px;&quot;&gt;Exclude full OA journals based on OA uptake rate &amp;gt; .95&lt;/font&gt;" style="rounded=1;whiteSpace=wrap;html=1;fillColor=#f5f5f5;fontColor=#333333;strokeColor=#666666;strokeWidth=2;fontFamily=Helvetica;" parent="1" vertex="1">
          <mxGeometry x="629" y="286.09" width="191" height="60" as="geometry" />
        </mxCell>
        <mxCell id="1TfECa-dX_d4Ddrjt1kj-25" value="&lt;font style=&quot;font-size: 15px;&quot;&gt;Obtain first-author affiliations&lt;/font&gt;" style="rounded=1;whiteSpace=wrap;html=1;fillColor=#f5f5f5;fontColor=#333333;strokeColor=#666666;strokeWidth=2;fontFamily=Helvetica;" parent="1" vertex="1">
          <mxGeometry x="629" y="383.31" width="191" height="61.38" as="geometry" />
        </mxCell>
        <mxCell id="1TfECa-dX_d4Ddrjt1kj-27" value="" style="shape=image;verticalLabelPosition=bottom;labelBackgroundColor=default;verticalAlign=top;aspect=fixed;imageAspect=0;image=data:image/svg+xml,PHN2ZyB4bWxuczp4bGluaz0iaHR0cDovL3d3dy53My5vcmcvMTk5OS94bGluayIgeG1sbnM9Imh0dHA6Ly93d3cudzMub3JnLzIwMDAvc3ZnIiB4bWw6c3BhY2U9InByZXNlcnZlIiBzdHlsZT0iZW5hYmxlLWJhY2tncm91bmQ6bmV3IDAgMCAyMDAgNjcuOTsiIHZpZXdCb3g9IjAgMCAyMDAgNjcuOSIgeT0iMHB4IiB4PSIwcHgiIGlkPSJMYXllcl8xIiB2ZXJzaW9uPSIxLjEiPiYjeGE7PHN0eWxlIHR5cGU9InRleHQvY3NzIj4mI3hhOwkuc3Qwe2ZpbGw6IzRGNTg1OTt9JiN4YTsJLnN0MXtmaWxsOiMzREIwQzc7fSYjeGE7CS5zdDJ7ZmlsbDojRDZEMEMzO30mI3hhOwkuc3Qze2ZpbGw6I0ZDQzYyRTt9JiN4YTsJLnN0NHtmaWxsOiNFNjM2NDI7fSYjeGE7PC9zdHlsZT4mI3hhOzxnPiYjeGE7CTxnPiYjeGE7CQk8Zz4mI3hhOwkJCTxnPiYjeGE7CQkJCTxnPiYjeGE7CQkJCQk8cGF0aCBkPSJNNzYuMSwzNy41Yy0wLjQtMi42LTIuOS00LjYtNS44LTQuNmMtNS4yLDAtNy4yLDQuNC03LjIsOS4xYzAsNC40LDIsOC45LDcuMiw4LjljMy42LDAsNS42LTIuNCw2LTUuOUg4MiYjMTA7JiM5OyYjOTsmIzk7JiM5OyYjOTsmIzk7Yy0wLjYsNi42LTUuMSwxMC44LTExLjYsMTAuOGMtOC4yLDAtMTMtNi4xLTEzLTEzLjdjMC03LjksNC44LTE0LDEzLTE0YzUuOCwwLDEwLjcsMy40LDExLjQsOS41SDc2LjF6IiBjbGFzcz0ic3QwIi8+JiN4YTsJCQkJCTxwYXRoIGQ9Ik04NCwzNS45aDV2My42aDAuMWMxLTIuNCwzLjYtNC4xLDYuMS00LjFjMC40LDAsMC44LDAuMSwxLjEsMC4ydjQuOWMtMC41LTAuMS0xLjMtMC4yLTEuOS0wLjImIzEwOyYjOTsmIzk7JiM5OyYjOTsmIzk7JiM5O2MtMy45LDAtNS4yLDIuOC01LjIsNi4xdjguNkg4NFYzNS45eiIgY2xhc3M9InN0MCIvPiYjeGE7CQkJCQk8cGF0aCBkPSJNMTA2LjQsMzUuNGM2LDAsOS45LDQsOS45LDEwLjFjMCw2LjEtMy45LDEwLjEtOS45LDEwLjFjLTYsMC05LjktNC05LjktMTAuMSYjMTA7JiM5OyYjOTsmIzk7JiM5OyYjOTsmIzk7Qzk2LjUsMzkuNCwxMDAuNCwzNS40LDEwNi40LDM1LjR6IE0xMDYuNCw1MS43YzMuNiwwLDQuNy0zLjEsNC43LTYuMWMwLTMuMS0xLjEtNi4xLTQuNy02LjFjLTMuNiwwLTQuNiwzLjEtNC42LDYuMSYjMTA7JiM5OyYjOTsmIzk7JiM5OyYjOTsmIzk7QzEwMS43LDQ4LjYsMTAyLjgsNTEuNywxMDYuNCw1MS43eiIgY2xhc3M9InN0MCIvPiYjeGE7CQkJCQk8cGF0aCBkPSJNMTIyLjQsNDguOWMwLDIuMywyLDMuMiw0LDMuMmMxLjUsMCwzLjQtMC42LDMuNC0yLjRjMC0xLjYtMi4yLTIuMS02LTNjLTMtMC43LTYuMS0xLjctNi4xLTUuMSYjMTA7JiM5OyYjOTsmIzk7JiM5OyYjOTsmIzk7YzAtNC45LDQuMi02LjEsOC4zLTYuMWM0LjIsMCw4LDEuNCw4LjQsNi4xaC01Yy0wLjEtMi0xLjctMi42LTMuNi0yLjZjLTEuMiwwLTIuOSwwLjItMi45LDEuOGMwLDEuOSwzLDIuMSw2LDIuOSYjMTA7JiM5OyYjOTsmIzk7JiM5OyYjOTsmIzk7YzMuMSwwLjcsNi4xLDEuOCw2LjEsNS40YzAsNS00LjQsNi43LTguNyw2LjdjLTQuNCwwLTguOC0xLjctOS02LjdIMTIyLjR6IiBjbGFzcz0ic3QwIi8+JiN4YTsJCQkJCTxwYXRoIGQ9Ik0xNDEuNiw0OC45YzAsMi4zLDIsMy4yLDQsMy4yYzEuNSwwLDMuNC0wLjYsMy40LTIuNGMwLTEuNi0yLjItMi4xLTYtM2MtMy0wLjctNi4xLTEuNy02LjEtNS4xJiMxMDsmIzk7JiM5OyYjOTsmIzk7JiM5OyYjOTtjMC00LjksNC4yLTYuMSw4LjMtNi4xYzQuMiwwLDgsMS40LDguNCw2LjFoLTVjLTAuMS0yLTEuNy0yLjYtMy42LTIuNmMtMS4yLDAtMi45LDAuMi0yLjksMS44YzAsMS45LDMsMi4xLDYsMi45JiMxMDsmIzk7JiM5OyYjOTsmIzk7JiM5OyYjOTtjMy4xLDAuNyw2LjEsMS44LDYuMSw1LjRjMCw1LTQuNCw2LjctOC43LDYuN2MtNC40LDAtOC44LTEuNy05LTYuN0gxNDEuNnoiIGNsYXNzPSJzdDAiLz4mI3hhOwkJCQkJPHBhdGggZD0iTTE1NiwzNS45aDV2My42aDAuMWMxLTIuNCwzLjYtNC4xLDYuMS00LjFjMC40LDAsMC44LDAuMSwxLjEsMC4ydjQuOWMtMC41LTAuMS0xLjMtMC4yLTEuOS0wLjImIzEwOyYjOTsmIzk7JiM5OyYjOTsmIzk7JiM5O2MtMy45LDAtNS4yLDIuOC01LjIsNi4xdjguNkgxNTZWMzUuOXoiIGNsYXNzPSJzdDAiLz4mI3hhOwkJCQkJPHBhdGggZD0iTTE3NC4xLDQ2LjhjMC4xLDMuMywxLjgsNC45LDQuNyw0LjljMi4xLDAsMy44LTEuMyw0LjEtMi41aDQuNmMtMS41LDQuNS00LjYsNi40LTksNi40JiMxMDsmIzk7JiM5OyYjOTsmIzk7JiM5OyYjOTtjLTYsMC05LjgtNC4xLTkuOC0xMC4xYzAtNS43LDQtMTAuMSw5LjgtMTAuMWM2LjUsMCw5LjcsNS41LDkuMywxMS40SDE3NC4xeiBNMTgyLjcsNDMuNWMtMC41LTIuNy0xLjYtNC4xLTQuMi00LjEmIzEwOyYjOTsmIzk7JiM5OyYjOTsmIzk7JiM5O2MtMy4zLDAtNC4zLDIuNi00LjQsNC4xSDE4Mi43eiIgY2xhc3M9InN0MCIvPiYjeGE7CQkJCQk8cGF0aCBkPSJNMTkwLjgsMzkuNWgtMy4xdi0zLjVoMy4xdi0xLjVjMC0zLjQsMi4xLTUuOCw2LjQtNS44YzAuOSwwLDEuOSwwLjEsMi44LDAuMXYzLjkmIzEwOyYjOTsmIzk7JiM5OyYjOTsmIzk7JiM5O2MtMC42LTAuMS0xLjMtMC4xLTEuOS0wLjFjLTEuNCwwLTIsMC42LTIsMi4ydjEuMWgzLjZ2My41aC0zLjZ2MTUuNmgtNS4zVjM5LjV6IiBjbGFzcz0ic3QwIi8+JiN4YTsJCQkJPC9nPiYjeGE7CQkJPC9nPiYjeGE7CQk8L2c+JiN4YTsJPC9nPiYjeGE7CTxwb2x5Z29uIHBvaW50cz0iMCw2Ny45IDAsNDcuNCAxNi44LDQxLjkgNDYuNiw1Mi4xIiBjbGFzcz0ic3QxIi8+JiN4YTsJPHBvbHlnb24gcG9pbnRzPSIyOS43LDI2LjEgMCwzNi40IDE2LjgsNDEuOSA0Ni42LDMxLjciIGNsYXNzPSJzdDIiLz4mI3hhOwk8cG9seWdvbiBwb2ludHM9IjE2LjgsNDEuOSA0Ni42LDMxLjcgNDYuNiw1Mi4xIiBjbGFzcz0ic3QwIi8+JiN4YTsJPHBvbHlnb24gcG9pbnRzPSI0Ni42LDAuMiA0Ni42LDIwLjYgMjkuNywyNi4xIDAsMTUuOSIgY2xhc3M9InN0MyIvPiYjeGE7CTxwb2x5Z29uIHBvaW50cz0iMjkuNywyNi4xIDAsMzYuNCAwLDE1LjkiIGNsYXNzPSJzdDQiLz4mI3hhOzwvZz4mI3hhOzxnPiYjeGE7CTxwYXRoIGQ9Ik02MCw1LjRoMy41bDMuOSwxMWgwbDMuOC0xMWgzLjR2MTRoLTIuM1Y4LjZoMGwtMy45LDEwLjhoLTJMNjIuNCw4LjZoMHYxMC44SDYwVjUuNHoiIGNsYXNzPSJzdDAiLz4mI3hhOwk8cGF0aCBkPSJNNzguNCwxNC45YzAsMS42LDAuOSwzLDIuNywzYzEuMywwLDIuMS0wLjYsMi41LTEuN2gyLjFjLTAuNSwyLjItMi40LDMuNS00LjYsMy41Yy0zLjIsMC01LTIuMi01LTUuMyYjMTA7JiM5OyYjOTtjMC0yLjksMS45LTUuNCw0LjktNS40YzMuMiwwLDUuMiwyLjksNC44LDUuOUg3OC40eiBNODMuNywxMy41Yy0wLjEtMS40LTEtMi43LTIuNS0yLjdjLTEuNSwwLTIuNiwxLjItMi43LDIuN0g4My43eiIgY2xhc3M9InN0MCIvPiYjeGE7CTxwYXRoIGQ9Ik04Ni4xLDkuM2gxLjd2LTNIOTB2M2gyVjExaC0ydjUuNGMwLDAuOSwwLjEsMS40LDEuMSwxLjRjMC4zLDAsMC42LDAsMC45LTAuMXYxLjdjLTAuNSwwLTEsMC4xLTEuNSwwLjEmIzEwOyYjOTsmIzk7Yy0yLjMsMC0yLjgtMC45LTIuOC0yLjZ2LTZoLTEuN1Y5LjN6IiBjbGFzcz0ic3QwIi8+JiN4YTsJPHBhdGggZD0iTTEwMS44LDE3LjJjMCwwLjUsMC4xLDAuOCwwLjUsMC44YzAuMSwwLDAuMywwLDAuNSwwdjEuNWMtMC4zLDAuMS0xLDAuMy0xLjQsMC4zYy0wLjksMC0xLjUtMC4zLTEuNy0xLjImIzEwOyYjOTsmIzk7Yy0wLjksMC45LTIuMywxLjItMy41LDEuMmMtMS44LDAtMy41LTEtMy41LTNjMC0yLjUsMi0yLjksMy45LTMuMmMxLjYtMC4zLDMtMC4xLDMtMS40YzAtMS4yLTEuMi0xLjQtMi4xLTEuNCYjMTA7JiM5OyYjOTtjLTEuMywwLTIuMSwwLjUtMi4yLDEuNmgtMi4yQzkzLjMsOS44LDk1LjYsOSw5Ny44LDljMiwwLDQuMSwwLjgsNC4xLDIuOVYxNy4yeiBNOTkuNiwxNC40Yy0wLjcsMC41LTEuOCwwLjQtMi43LDAuNiYjMTA7JiM5OyYjOTtjLTEsMC4yLTEuOCwwLjUtMS44LDEuN2MwLDEsMS4zLDEuMywyLjEsMS4zYzEsMCwyLjUtMC41LDIuNS0xLjlWMTQuNHoiIGNsYXNzPSJzdDAiLz4mI3hhOwk8cGF0aCBkPSJNMTEzLjUsMTkuNGgtMi4xdi0xLjRoMGMtMC42LDEuMi0xLjksMS42LTMuMSwxLjZjLTMuMiwwLTQuNy0yLjQtNC43LTUuNGMwLTMuNywyLjItNS4zLDQuNC01LjMmIzEwOyYjOTsmIzk7YzEuMywwLDIuNywwLjUsMy40LDEuNmgwVjUuNGgyLjJWMTkuNHogTTEwOC41LDE3LjljMiwwLDIuOC0xLjgsMi44LTMuNmMwLTIuMi0xLjEtMy42LTIuOC0zLjZjLTIuMSwwLTIuOCwxLjktMi44LDMuNyYjMTA7JiM5OyYjOTtDMTA1LjcsMTYuMiwxMDYuNiwxNy45LDEwOC41LDE3Ljl6IiBjbGFzcz0ic3QwIi8+JiN4YTsJPHBhdGggZD0iTTEyMy44LDE3LjJjMCwwLjUsMC4xLDAuOCwwLjUsMC44YzAuMSwwLDAuMywwLDAuNSwwdjEuNWMtMC4zLDAuMS0xLDAuMy0xLjQsMC4zYy0wLjksMC0xLjUtMC4zLTEuNy0xLjImIzEwOyYjOTsmIzk7Yy0wLjksMC45LTIuMywxLjItMy41LDEuMmMtMS44LDAtMy41LTEtMy41LTNjMC0yLjUsMi0yLjksMy45LTMuMmMxLjYtMC4zLDMtMC4xLDMtMS40YzAtMS4yLTEuMi0xLjQtMi4xLTEuNCYjMTA7JiM5OyYjOTtjLTEuMywwLTIuMSwwLjUtMi4yLDEuNmgtMi4yYzAuMi0yLjYsMi40LTMuNCw0LjYtMy40YzIsMCw0LjEsMC44LDQuMSwyLjlWMTcuMnogTTEyMS42LDE0LjRjLTAuNywwLjUtMS44LDAuNC0yLjcsMC42JiMxMDsmIzk7JiM5O2MtMSwwLjItMS44LDAuNS0xLjgsMS43YzAsMSwxLjMsMS4zLDIuMSwxLjNjMSwwLDIuNS0wLjUsMi41LTEuOVYxNC40eiIgY2xhc3M9InN0MCIvPiYjeGE7CTxwYXRoIGQ9Ik0xMjQuOSw5LjNoMS43di0zaDIuMnYzaDJWMTFoLTJ2NS40YzAsMC45LDAuMSwxLjQsMS4xLDEuNGMwLjMsMCwwLjYsMCwwLjktMC4xdjEuN2MtMC41LDAtMSwwLjEtMS41LDAuMSYjMTA7JiM5OyYjOTtjLTIuMywwLTIuOC0wLjktMi44LTIuNnYtNmgtMS43VjkuM3oiIGNsYXNzPSJzdDAiLz4mI3hhOwk8cGF0aCBkPSJNMTQwLjYsMTcuMmMwLDAuNSwwLjEsMC44LDAuNSwwLjhjMC4xLDAsMC4zLDAsMC41LDB2MS41Yy0wLjMsMC4xLTEsMC4zLTEuNCwwLjNjLTAuOSwwLTEuNS0wLjMtMS43LTEuMiYjMTA7JiM5OyYjOTtjLTAuOSwwLjktMi4zLDEuMi0zLjUsMS4yYy0xLjgsMC0zLjUtMS0zLjUtM2MwLTIuNSwyLTIuOSwzLjktMy4yYzEuNi0wLjMsMy0wLjEsMy0xLjRjMC0xLjItMS4yLTEuNC0yLjEtMS40JiMxMDsmIzk7JiM5O2MtMS4zLDAtMi4xLDAuNS0yLjIsMS42SDEzMmMwLjItMi42LDIuNC0zLjQsNC42LTMuNGMyLDAsNC4xLDAuOCw0LjEsMi45VjE3LjJ6IE0xMzguNCwxNC40Yy0wLjcsMC41LTEuOCwwLjQtMi43LDAuNiYjMTA7JiM5OyYjOTtjLTEsMC4yLTEuOCwwLjUtMS44LDEuN2MwLDEsMS4zLDEuMywyLjEsMS4zYzEsMCwyLjUtMC41LDIuNS0xLjlWMTQuNHoiIGNsYXNzPSJzdDAiLz4mI3hhOwk8cGF0aCBkPSJNMTQ4LjMsOS4zaDEuN1Y4LjVjMC0yLjYsMS40LTMsMi44LTNjMC43LDAsMS4yLDAsMS42LDAuMXYxLjdjLTAuMy0wLjEtMC42LTAuMS0xLTAuMWMtMC42LDAtMS4xLDAuMi0xLjEsMS4xJiMxMDsmIzk7JiM5O3YxaDEuOVYxMWgtMS45djguNUgxNTBWMTFoLTEuN1Y5LjN6IiBjbGFzcz0ic3QwIi8+JiN4YTsJPHBhdGggZD0iTTE1NS4yLDkuM2gyLjF2MmgwYzAuMy0xLjEsMS42LTIuMiwzLTIuMmMwLjUsMCwwLjYsMCwwLjgsMC4xdjIuMmMtMC4zLDAtMC42LTAuMS0xLTAuMSYjMTA7JiM5OyYjOTtjLTEuNSwwLTIuNywxLjItMi43LDMuNXY0LjhoLTIuMlY5LjN6IiBjbGFzcz0ic3QwIi8+JiN4YTsJPHBhdGggZD0iTTE2MS4yLDE0LjRjMC0zLjEsMS45LTUuMyw1LjEtNS4zYzMuMywwLDUuMSwyLjIsNS4xLDUuM2MwLDMuMS0xLjksNS40LTUuMSw1LjQmIzEwOyYjOTsmIzk7QzE2My4xLDE5LjcsMTYxLjIsMTcuNSwxNjEuMiwxNC40eiBNMTY5LjIsMTQuNGMwLTEuNy0wLjktMy42LTIuOS0zLjZjLTIsMC0yLjksMS44LTIuOSwzLjZjMCwxLjgsMC45LDMuNiwyLjksMy42JiMxMDsmIzk7JiM5O0MxNjguNCwxNy45LDE2OS4yLDE2LjEsMTY5LjIsMTQuNHoiIGNsYXNzPSJzdDAiLz4mI3hhOwk8cGF0aCBkPSJNMTcyLjcsOS4zaDIuMXYxLjRoMC4xYzAuNy0xLDEuNS0xLjcsMy4xLTEuN2MxLjIsMCwyLjQsMC41LDIuOCwxLjdjMC43LTEsMS43LTEuNywzLjItMS43JiMxMDsmIzk7JiM5O2MyLjEsMCwzLjQsMC45LDMuNCwzLjR2N2gtMi4ydi01LjljMC0xLjYtMC4xLTIuNy0xLjgtMi43Yy0xLjUsMC0yLjIsMS0yLjIsMi43djUuOUgxNzl2LTYuNWMwLTEuNC0wLjQtMi4xLTEuOC0yLjEmIzEwOyYjOTsmIzk7Yy0xLjIsMC0yLjIsMC45LTIuMiwyLjZ2NmgtMi4yVjkuM3oiIGNsYXNzPSJzdDAiLz4mI3hhOzwvZz4mI3hhOzwvc3ZnPg==;fontFamily=Helvetica;rounded=1;" parent="1" vertex="1">
          <mxGeometry x="870" y="186.20000000000002" width="140" height="47.6" as="geometry" />
        </mxCell>
        <mxCell id="1TfECa-dX_d4Ddrjt1kj-29" value="" style="shape=image;verticalLabelPosition=bottom;labelBackgroundColor=default;verticalAlign=top;aspect=fixed;imageAspect=0;image=data:image/png,iVBORw0KGgoAAAANSUhEUgAAAlgAAADICAYAAAA0n5+2AAAAGXRFWHRTb2Z0d2FyZQBBZG9iZSBJbWFnZVJlYWR5ccllPAAAA3ZpVFh0WE1MOmNvbS5hZG9iZS54bXAAAAAAADw/eHBhY2tldCBiZWdpbj0i77u/IiBpZD0iVzVNME1wQ2VoaUh6cmVTek5UY3prYzlkIj8+IDx4OnhtcG1ldGEgeG1sbnM6eD0iYWRvYmU6bnM6bWV0YS8iIHg6eG1wdGs9IkFkb2JlIFhNUCBDb3JlIDcuMS1jMDAwIDc5LmRhYmFjYmIsIDIwMjEvMDQvMTQtMDA6Mzk6NDQgICAgICAgICI+IDxyZGY6UkRGIHhtbG5zOnJkZj0iaHR0cDovL3d3dy53My5vcmcvMTk5OS8wMi8yMi1yZGYtc3ludGF4LW5zIyI+IDxyZGY6RGVzY3JpcHRpb24gcmRmOmFib3V0PSIiIHhtbG5zOnhtcE1NPSJodHRwOi8vbnMuYWRvYmUuY29tL3hhcC8xLjAvbW0vIiB4bWxuczpzdFJlZj0iaHR0cDovL25zLmFkb2JlLmNvbS94YXAvMS4wL3NUeXBlL1Jlc291cmNlUmVmIyIgeG1sbnM6eG1wPSJodHRwOi8vbnMuYWRvYmUuY29tL3hhcC8xLjAvIiB4bXBNTTpPcmlnaW5hbERvY3VtZW50SUQ9InhtcC5kaWQ6N2IwNDAxMmUtOWU1MC00MmZjLWJhNTMtZDg3MjBkOWU1NDJlIiB4bXBNTTpEb2N1bWVudElEPSJ4bXAuZGlkOkMyNDA4QjU0M0MzMDExRUNBMkJFRkQ3Mjg2OUZCMEM0IiB4bXBNTTpJbnN0YW5jZUlEPSJ4bXAuaWlkOkMyNDA4QjUzM0MzMDExRUNBMkJFRkQ3Mjg2OUZCMEM0IiB4bXA6Q3JlYXRvclRvb2w9IkFkb2JlIFBob3Rvc2hvcCAyMy4wIChNYWNpbnRvc2gpIj4gPHhtcE1NOkRlcml2ZWRGcm9tIHN0UmVmOmluc3RhbmNlSUQ9InhtcC5paWQ6NGExMGUwNDEtMmEyOC00MTAwLThlMDAtODE5ZGYxZDBlNjBkIiBzdFJlZjpkb2N1bWVudElEPSJ4bXAuZGlkOjdiMDQwMTJlLTllNTAtNDJmYy1iYTUzLWQ4NzIwZDllNTQyZSIvPiA8L3JkZjpEZXNjcmlwdGlvbj4gPC9yZGY6UkRGPiA8L3g6eG1wbWV0YT4gPD94cGFja2V0IGVuZD0iciI/Ple/vJsAADpXSURBVHja7J0JvEzlG8efqyxF1ihSkiTJUpbSn1SWVCiUkjbaqLQQsmXLTkkSpVIUWslW9iVrtKGN0mIp2VKE5P7f33veo/cec+/MmTlz79x7f9/P5/1wzp05M3PmzDm/8zzP+3uSkpOThRBCCCGEBEcO7gJCCCGEEAosQgghhBAKLEIIIYQQCixCCCGEEEKBRQghhBBCgUUIIYQQQoFFCCGEEEIosAghhBBCKLAIIYQQQiiwCCGEEEIIBRYhhBBCCAUWIYQQQggFFiGEEEIIBRYhhBBCCKHAIoQQQgihwCKEEEIIocAihBBCCCEUWIQQQgghFFiEEEIIIRRYhBBCCCGEAosQQgghhAKLEEIIIYQCixBCCCGEUGARQgghhFBgEUIIIYRQYBFCCCGEUGARQgghhBAKLEIIIYQQCixCCCGEEAosQgghhBBCgUUIIYQQQoFFCCGEEEKBRQghhBBCKLAIIYQQQiiwCCGEEEIosAghhBBCCAUWIYQQQggFFiGEEEIIBRYhhBBCCAUWIYQQQgihwCKEEEIIocAihBBCCKHAIoQQQgghkXMid0Hm5IcffpDt27dH8tDz1Nirxg4/28+dO7dcfPHFkiNH1tXgR48ePWH16tXVixcv/mupUqV+5FFFCCEkKJKSk5O5FzIh7dq1kzFjxqT1kBJqPKHGfWrsUqOvGuPU+DeS7RcrVkw2b94sJ598cpbdhwcOHMhbuHDh3e3bt39u6NChj/OoIoQQEhRMEWZSTjrppFT/pEYHNT5Vo70auY3Yghpbqka9SLafK1euLC2uXE488cQjOXLkOMojihBCSKDXF+6C4Nm1a5eMHDkSKai4vcbSpUtDrW6uRi81KroratWqpVOJ33//PRZrqjFXjTfU6KPGxtS2/8cff0iXLl200IqUe++9V84666xM9V0lJSUxhEsIIYQCKzOwc+dO6du3b3q+5CVq9FajobuiXLly0rNnT2nVqpXs2bNHBg4cKKNGjZK///4bf26lRmM1hqsxQo193g3++eefMmTIEF9von79+plOYBFCCCHxgCnCeOzUHDmQekqPl4KaGavGMldcFS5cWJ566in55JNPtLgChQoV0mJp1apVcsMNN7jPzS9OFOsTNVoGotZPpF4nhBBCKLAyL/nEKWBHnRWK2E9QyD333CNr1qyR7t27yymnnHLckypWrCjvv/++TJs2TapUqeKuxizDN9X4SJxIGCGEEEIosLIdiDatVmOgGkWwokGDBrom66WXXpLSpUuH3UCTJk1kxYoVMnz4cClatKi7uoEaH6vxvBpncDcTQgghFFjZgVpqzBMn2lQeKypUqCBvvfWWfPTRR1KzZk1fG8uTJ4906NBB1q5dK/fddx9CYFiNHN8DaqxV4xE1cnG3E0IIIRRYWZEyaryixhI16mIFok6oqVq9erXcdNNNMW38zDPPlLFjx+oIWN26dd3Vp4lT/L5Cjev4FRBCCCEUWFmFAuJYLqxRo7UaSTlz5pQHHnhAPv30U+nUqVOgPlWIgM2bN09ef/11Offcc93VF6sxQ4231ajAr4QQQgihwMqsJKlxpxFWvdUoiJWNGjWS5cuXy/PPPy8lS5aM24vffvvtulAeFg9WofyN4tR9DVCjML8iQgghhAIrM3GlGovVGK+GDiNhth9m/k2fPl2qVauWLm+iQIEC2scLVg+33HKLuxrhsq5G+N1lhCAhhBBCKLASlnJqTFRjgRq1saJ48eIyYsQIWblype1dlb5vqlw5mTRpki6ir1Gjhrsa0xRfVWOh+14JIYQQQoEVd/LmzRvpQ5Fu6y+O2ad2BcXsvscee0zXWT3yyCOSO3fuDP88sIFYtmyZTk+WKFHCXV1HnGgbGkifjRXZoXchIYQQEgm03o4BtJ3p2LGj7ttngzYz//77b1pPhSdCGzW6ueIENG3aVHr16iWVK1dOvAPlxBN1gX2zZs10250xY8bI4cOHkSa8Ww2E2IZ07tx5VNGiRQ/42e4555wj/fr148FECCEka5GcnMwR5UCPv5NOOsnvLoehJ+wPkt1RvXr15JkzZyYHzaeffprcsmXL5G7duiXv3bs30G1/8sknyddee22y/TnUWAed6GdnlC9fPsO+v/379+fNly/fX0oYDuHxzMHBwcER5GCKMAaSkpJCtqRJhQvVeEucljSXYgU8qF544QU9O1CJlcDe108//aTNQ6tWraprqAYMGKCFDCwYggIF90oUaqPTCy64wP6M76nxgRpVItmOj3QqIYQQkmmgwIo/xdQYKo7NwU2uqOjcubOus2rbtm1gTZIRUXvyySe1w/vkyZOldevWuvlzmzZtpF69enLnnXdKrVq1dJucoIDRKQxP+/fvr5tKGxqrsVKN4ebzE0IIIRRYJBDQZuZBcRoyP66GziW2aNFCVq1aJYMHD5ZTTz01kBf6559/dCQMwgrRqoYNG8qwYcPkqquukiNHjuhIGaJXaPKM+rDLLrtM7r77btmyZUsgrw/B2K1bN+2fBRFnQHV+B3Ha7twvTt0ZIYQQQoFFoqaRGsvVGCWmcTJEzZw5c2TKlClaCAXFe++9JxdddJEuQEcaEA2cUYieK1cuOXDAqTc/fPiwLsiH4Jo/f74888wz+nnnn3++FmL4exCgYH38+PGycOFCHSkzwBV1jBpL1ajHQ4MQQggFFvEL6o6mqjFdjapYUbp0aRk3bpzu9Ve/fv3AXgjbu+KKK6R58+baygEpOkSlYBIKYXX06FFdI2azf/9+XXh3//33axNRuLaj5U6lSpW0kWlQ4H0tWbJEf+5SpUq5q9GNeq44fl9leagQQgihwCLhgDnUs2qsUuN6rMifP7/06NFD1q5dq4VPjhzB7Oqvv/5abr75Zrn88svll19+ka5du2rfLLTPQZQK9hBeYWUD4bVv3z5dm/X0009rIQRvqyZNmkjjxo1lw4YNgbxPvAd8bnx+iDhrtiX8vuAG/yR2Ew8dQgghFFgk1P5rJ06d0cPi1F3JbbfdpiNE8HeyCr9jYvv27dp4FB5ZCxYskIceekgXtCMteOjQIV2H5Qc8HkIL25s6dapMmDBB1q1bJxdeeKEWRCiYD4IiRYrIkCFDdN2Z5UgPYdVHHIPVRjyMCCGEUGARG3gMDFTjdCygzgoRG4iV8847L5AX+Ouvv2TQoEHaCuGll17S0SsYfV566aW6gB3iKhYQ9Tp48KCu24JdBETbyJEjdX3WK6+8EtiOqlixou6pOHfuXLtZNXbSUzyMCCGEUGARG5hr7ncXtm3bJt99952uc4p5w2obKBhHRAlpQBSNoyD9mmuu0elGCCOQVjrQz2thdiEK4/FaiL6hjgopvksuuUTXewXBt99+K++++67s3r1bTjjh2KTCIzyMCCGEUGCRkED41KlTR1q2bKln9c2ePTvqbc2aNUsbecLHChYLEFbYLuqYUMAOQRSEsPKC+i20/cFrvvrqq9pIFFEy1Hvdcccd2sA0Gn7++Wed0kQUC/5cd911l46QWSKVEEIIocAix4NCcUScPvroI+3uDmd2+FEhZRgpiBxBqF133XU69denTx9p166d9stKbWZgPIBtAyJatWvX1im95557Tos+1HshXelGz8KxY8cO7Y+F9CYEG9KbqMdCdCyoon9CCCGEAisLg6JxiKCaNWvKjBkzZOLEibJ582YdiYKT+o8//pjqc7///nsd1alRo4asX79eHn/8cenSpYucffbZWswgihSLsIpWzODzIKqFVCHc2vEvUohuPVVqoHgeQgyCbOjQoXL11VcfS28iNehG4QghhJCsyoncBcEC8QAxhBlz8L2C0IK7+htvvKHb43Ts2FEKFiyoH7tz505tDPrss8/q+if0D4RAQ+ucWIvXsT1EoiBkIP7c9CL+70esubYO8NdC9AmpSkTWUBQP4QRHesxEBCiWf/nll3UR/tatW7WgwsBMQnwed9+kRxQu0UBtHsxgExF8RzguCfHyzjvvyJgxYyJ+PCb3jB49Oq7vCeeX+fPno1PEE+L0dUVbrsE4BfH4JhRYWRyIGsz+Q+QIKb6mTZvqVjYQIy+++KI2BYXQ6d27t7ZDwN/r1q2rW85AiECoRCNC8LoQVnhd+Fl98MEH+n3A8BORMNg8IJWJ9J/fCBKiaBBacKHHSRdRup49e0qVKlW0cMT6p556SjZu3KhTgPDmKl68uBZ52VlYuezdu1e76Cci+J4ICQWi636O219//TXu7wllF+o9Xav+29usaqjGejXe5fFNKLCyCW70B6ajffv2lVatWuko0L333qv/jghXo0aNdI0VhBVEUDRCBGIJqTc4uqOgHK7ssFxwwaw91FFBcKEmCv0Q7ZmIfnDFH4xJr7zySi0Y3bqs6tWr67vLs84661jKNLsLKxdr1qQfcqpxihp5xEnno6fRfrFmrgYBjhtCQoEbtlTA8dhMjQpG3KBm4KhlKBw3zPFa2LO6CI9vQoGVDUH0B7PzIDzQdBnRjE2bNmmhhfY10QoRCCsIJZzUEAmDYSiK0i3hBPfR8Wpgyl5tzAJEm5y3335bu8yj5iuatKEboUMqE75ZeL1Ro0bpmYIgSAuJbAauTmgpdJUa1dQobS4kEFhJ5vv8U43tasBy/2M1FqqxmbuOpDOPqTHMWu6vRo90fP1/wywTQoGVnUC6DJEq944K/w/X2iYt8uTJo7eJED6iVr///rv9ZzQXhFs6pjEifIICoJ5qFJ03b558/PHH0rZtW502LFasmBZMftOGeO8QUxBa+Ax4L5wdGBXF1LhfjdslfJ9GFPCdqUYNNVqrgY7e6PH4vPmXkHiTwxx7NnerMcAcj4QQ4SzCdAciBqnDWMiZM6cO3X/xxRc6JQfHdUtcfSpOP8QmRly5d3fPmajIq1iBVN+IESN07Re8qSD6og3vx/p5sjm3m++sr0TXBPtk833PUeNtNUpyl5I4U94MG3SzqM5dQ8h/MIKViYQZIkUQVrB/mDZtmvbNstiqxiA1XhSnVicUP6vRRo03xWnxU+2HH37Q9gtu2rBq1ao6bYm0Jok7SLGkNr0JqcAf1Niixl4jkvOaCxlShyVCPOdGc5G7SZw+j4TEg2tSuTlHX9HF3D2EUGBlGmHl1lnB1gEO8Wj2jHScAQVPSA8NVWNHhJudp8YSNR4Up26i8IcffihLlizRVgLt27eXwoULa6FF4sZwNTqEWP+hGq+JU1+1JZXnoll2JTWaixMBswt8S6mBNgJXqrGOu5nEgcaprMdsvieE9VCEaJgiDAik7U4++eTACrvdeigIK6TgIKxg6wAhZIkrpIRQi9PJh7hywUaeESdtOAErUPAOQ9B69erJnDlzJD1mBGVT7gwhrjaqca2JDkxOQ1yBfUaAodD4IiPIbCC43jJCjJAgcev/QlFBnf8u4C4ihAIrCKCmMJVeR5VgJhpLLZMNtgPRBgd1+EvBsBQzBQ0r1GigRgtxpkjHAmag3WHuPj/TV/qNG+W2227TzZnTmKZNoqOEEbY2y9SoLU7kyS+/qHGXEdk2mDnam7ubBEw9cWa1umy3z4fqZrAhJu/4GYRkVZgijA2cHVAnUxR1URAlDRo00MabcGTHycOKNoUFUSuIKtRaQeSgzurzzz/3iiFMhx4vwYfhPxKnfqIzLsx///13EmYawkDUz2cgYcH+LWQt4/hpqsbvMW53mNluN2sdZo7CVnsTdzsJiCbW/2Eb0sMcY3pq9Pr16xuVL19+qJ8bScxqPuOMM7hnCQUWSQGUB9I6j5hRAKk1RLMgth599FEpV65c2KJx2ygUTsgzZ87U9VDWc5ASetZEPvbE8fOg1cRL4tg5nAiTVHpZBQo8rW73rHswAHHl0kucFONF7vVLnEkN3bjrSQBAwF9uLX+nxhtqPKpGRX3HeehQDXWziTTiL5FsEOcX+PARkhVhijB2dpsLG2qZxkMvQRiNHz9eO52jLQ48puDm7vWIgrDCCQYpRUSJELFCnRUEmiWuXjfbfjLO4solr33yI4FSV1I6UC8Vp6g9KHDQ9Pesu4E3UiQganuOX/iuIYo/z1qXxxznEYGbSp5nCAUWCQfSMK3NSUgbPqJmCvVT8JqC4ILAQr9B94QCo1BErpYtWyb9+vWTt956S/cJNMChu444BdEbM+ID8cQXF4FlMz4OrzFLUhbIl5Po/LUI8dLEszzD869LY+4qQiiw4gEKllMUoKNhKuwPGjdurF3XIaowvvnmGxk6dKhuBL1161b3+d+o0UqcdilLuDuzFFWs/yO9vCgOrwHbjsWe33hF7noSI4hM1beWUdy+0vx/taQsdseNYUHuMpLdYeogfrxt7uzaiTPD6/QVK1boIvhTTjlFpwT79Omj280YdonjjQTH9b+4+7IcSL2eaS3/JI7xazz4xIh0l/O4+0mMwMD2LGt5vvzXdBznK0TcbzXLsAmpJcdHtgjJVjCCFV8QTXhajYvVGKHGQXhaofEzevgZcYW6mbHmMQMprrIshTx39T+b7z4eeGcNcooWiZVGnuXpnmWmCQmhwMoQED6HKeQlarxjrYfv0f/UaCvxiWbgLhI96l7iRTbDyScp/YN+j+Nr7fQsM11DYgHN4q+xljGreZHnMVi2Wz8gnZibu45QYJH04ktx+sRdLU6DXlg8rI7D6yCUj56ES8yJ7h411ohjCcC0cMaQy/N7OxDH1zroWeaFjsQC3NkrWMvL5fjOEXZNFkC/zIu56wgFFklvEFX6IA7bRYQEzYPXqnGv6ImAx2YCoknwKCO6ruRXkOEkp+O2+TsnseBt7pzaucubJryWu45QYJGoSSCTvCbmDhKO3qdiRcOGDXWrncmTJ8s555zjPq6mGgvUeFlSFq2S9CVhPDAwo5WQNI4Nu/4KJ7y5adw4/usRWEk8vkl2hemiWNRpjhxy1lln6SbPNjAJ/e2339LrbWAKfh9x2q1ozj//fG1YevPNN+vlatWq6dmLgwcPlpEjR+oCe3EcvlGIOkCcVhfsh5OIKiwpSU477TRfFwn4r6Fxd6TAe23btm3c2eQ4du3ahZuw6tYq9CtNrfUSLGZgTVPZLFcSZwbrtxn5GXh8hwaz2TEIBVbCHqDLly/Xjuw26CNYvXr1NNvjBACmQsP+4WE1dHfpggULSocOHeSxxx6TfPnypXhwoUKFZNCgQdKyZUvp3r27bsejKCpO+x1Mr+5h7kAPuned3s9F0h84XcM7rVSpUhE/p02bNtq0NlLeeecdmT59eloPQf3NUTW+TuMxqLfBJI5y5tjEMYTOA+i1uNaM/Rm0G0sZkXChOJM9cEcEB/Jf1fhKHFuLeIkARJMhUtBWJrUZwnhPNY0gKWF+z/gdQhWsE6dO88eM2HH//PMPajjtyRkz03g4jpEPLYGF68vVGS2wIji+I7lOwsOuqhGM+E5xx4Nif9itoGEsalx3BXVfJU6Jx6VqTDbn5aB4xNyUT+nSpcvcHj168CRLgZW4eKNXAG1x4hnUEMcxHv0Cz3ZXtmrVSketzj333DSfXLlyZZkxY4ZMmTJFnnzySfnuO5z39cUHzZ5fUWOiOGmAEyiwEgMcT+gAECm5cuXyexFNK9WNxr0dxKnrQksobyueluakfUmYl0Gj8ilqjDEXpfTgOnFm6F4hzizO1ED0Fun1ceaCFlTeHxflGUZAbVCjnhF1LuXV6CJOO6MCaWwHwhQ+U4g0z07nw8/r3j4rzONnmc/kgvTiyIz8/YQ5vsPdxGKC0G1GnKfFDvNdv2DEViz0Fqc1GrjRCO8gBDZupEeY/9998OBBGMLSzDqOsAYrDljmoUGDNjyLxKmf0uLq0ksv1d3oJ06cGFZc2SB9+Mknn+holnXxbmNOkDn12aVIEUaxMuHxBK+1AG/AWpjzBO7Ym1t/KyaO5cibEYgrgFllT6jxqRFs8aS8ibTMMBf4fOE0qThNjNH3E50Y6gT0Pq6S/+xRKkhKR/37jKi7M4y4AnnN58Bv8z2zL9ODwuac44K7sS/CPAfRQLvRMyJzp2fCn92d5lgdFIG4cn8Pbcx3OlpS9mz0SyXr/8jhPRfA5ykuTrbivzv1pKSSPLtSYBFHTEFULTYXAilZsqSMHj1aPv74Y93rMNrICHolrly5Uq6//np3NdIBJxQvXlyuuOIKUXc53PvZF0RLD9nBAPNvWSP0m4d4Dvy90DsTqcE/Urloo2PBVHHMV4MGhYewEQg1g+1HI6DmmDt31BJ51SuiuXAp7xzAe/EqXbdmYIg45sLeUDdSiJvN/kutiLOp+XwN0uH7v9zzHX0k4aN7KPBcYC1D3GamWcs4/yGSP16OnwSE72e9+Xwo9F8d4nvCjUg7c5xFa1OBmlr7xAtxfUeMn2uEEYEuK4xYJxRY2ZaTzIl+jbk7SkL659FHH5W1a9dKu3btApkhc+GFF8rUqVNl2rRp0qJFC11YPXDgQD3zEC19CLEunrgTRpqqvEe49BUnknW+idZcYP5/tblgeZX69SYiUzjA94cLG1J8trEqUjfokFDNvK9a5j3VMcuoF0IhyhbPRXKwEUKx4A3/ItXXVZzaSVt04T3fYPap6zmFWraLzOO9zd4REYJVQrzd0r3pwUgLmTKrq3teI/xbe9YvN+vc46WuEbiXmO8M/5/k+b7PNyLssijex+fm92QzzPz2ogHeiy2sZdw0tQ3xmyQUWNkGnHBXmRM9agHkuuuu00X1zzzzjBQrViz4s2mTJnqWIQRW4cKFdZG+5aNFyEnmzr6MWUb0p58RAr3MHf1uE+Vwi8gRLbrbXIwWebZ3qbkwBVELiovIaM861BOiMLmbOEX23qmVuHtAbVR/87hXPH/v5BFDsXDU3CQNsNYtFSeFhjq2aUbkHTT77w9zoR1k3pu39i232XcXx/G7rmctI1KzMsLnItK+z1pGBCvRp6vhWjjBiG8XfAf3GVGO4/5nOT4quccIqVuN8LIL+gsbwVY2ivczTFKaULsTkvyCC4W3Bg4Rsi95OqPAyo5UNj/K98XUbFxwwQV6VhiK06tWrRrXF9+/35noFcc6MpJ5qS7/pab+NBEOFOPujeC5X5rnvuhZj3XdY3xfuICN86zDNm+XlJGptNhhhGBXz3oInNoBnWvvt5ZfNQImkoJo7GtE2Zp7RGJeIwryxuG7riEpm5MvMO8jEn43UR+X042YTmRQH9jUWsZxgxo6tBmLtBAVExEQGV3hEUao7cvl8/38Y44XO4WA9Hczn9t5WlLWwOGmfShPZRRY2Y1TzYGPu0RdEAVrBdRIwSz0pptu4h4iGY0bzjxiTvazfD7fvWiM96xHhKl8DO8Ld+j5PaJoQJTbGuS5AOEcOSqKC2RaoPaljfj3nnvP7Hf77gcpxcfj8F17mzv77TwxI8z2Egmk/np5BC1uHj6NYlu/mfO37RUGcflgFNtCBPOpEMd6kQifD8HYylp2U4NHhFBgZaPvAFOB15oTpfacufPOO2XNmjXeWX6EJAIQL7HYBaBW6jNrGeKla5Tbgk9TQ2sZkZNYI2JuStEFs7paBLTvkGa6N4bnQ7h4zYselZQFzLHibe6M4u5FPrcx13MhR+otUW2BenkEdCfP8emX38053U4nwroimqbrgz3HImalRlIbWESOTw0+ZUQbocDKFlwhTr0CwtB6xspll10mCxYskPHjx9vtbQhJFH40J/1YOGju6O0LEFIfJaLYVnvP8hNyfJ2MX46EEGn3BbT/eotTpxYLiLDZ0RVcuG8O8Dt2JynYovVXn9tAYb5t6VBOUtoPJAqoJ7zeWv7MnI9jBed1e5beaXL8pIFIQJQTUV979mYbz01FKFDDZdswfBLA75ZQYGU8efLkCfcQ+NigBgM5exRQyplnniljx46VpUuXypVXshczSVjGy/HF4tGAOhU7xYgwbX2f28BFy/6xoCh4aUCfc65HIKAmqVSM29yuxlsBvDekCL0p0KYBfsfeHoLR2KCjbskb5bwmAY9npC7t6NWYAAS6i9e/6voot4MI1kDPOqSt86fxme4KI9JIOkAn9xiAoeO6deuOcwn++eefUzPohO07WtvAeqGQK8YeeOABeeKJJ6Ro0aKBvr/Fixdru4USJUpIr169fLVbISQVPsQxC2sPP2zYsMHtgekVa3ZtDorJX/OxWcygs01EZwX58xan7sht+4JZe3Bmj8WFHlGNoNoFQbyglY4b9atkzil7AhIdLojmRduqBd+Hnc6Es37/BDueL/cIkfkBbhsF5T/Kfx03qhgxdxjnYj/n+7179w7YtGkT7C4uMqsQecMM3kc8Dy1kxJcN9vlnQiiwMhNoIlqvXj3ZuXNnJA9HCgTeJhXcFY0bN5a+fftKlSpVAn1f69ev121z3n333WPrJk+erOu50KcwVHsfQiI5z6ux6eyzz9ZdAPyAY/yLL44zAUfECelCN+R7ns/3c75nOeip56s8y+fGuL0gL3IHzPtzI1eouSkZgMCCGKhmLaNmZ2OU2/rUIzAwBRrR+80Jcjwneb5TCNYtAW7/kNl/7ufHbD6oqq24oW7btm3EG5o2bdqhG264AU9YZl23kR7HSd5ud4M0oH0njejXIJ66MgamCGP9hYb3iYJ6mm5+CFpcVahQQYufDz74IFBxtWXLFnnwwQf1NpFqbN++vZ6JCFHVtWtXLbrw2n4aARNigdqhPxGd9dtCKZXHoxjYdsJ2m0RHStEQ7y9ItnmWTw14e7GyybNcJIBtIk2b21pGFCraflkQGPOs5VziPw0cT/A5C3puIA4F/Bo/W/+Ht1j+NH4P4cANyRCPQIT3m3vHjIkE9gSKUFYPhAIrSwgszOpBSxDYLuiQO8w7kbKD7UKzZs0Cew9//PGHjoTBLwvF8Wj8jNepUaOG9rM65ZRTpGfPnrJq1Sq56KKLdB9C1Hn5jUKQbA9O2P/GcIHwgvST7SaNO3M/rQm8Efijcfi8ab1eNIIjSLy1cEFYSXhd12fGuL3pYbaf0de/HHE8frzHUJLP4zvUDQrSgnakFjftnY148xrtom5rLU9bFFhZCfyAMOMIBoJoapsbIqx169badgGh4aBSdHBaR2E8olJ9+vSRq666SoYNGyZXX321Fn5uzQseh/9jVuKECRN05GzPnj1agN1///2ybdu2cJEGQuJ2jxLgtoJ2x/WmIPdl8e8CETrbVPV7iX1a/8eSMm1ZS2KPBGYmKnrEVqwTRHBD0tZzrOM6A3Nqe9o50tEDhGQorMEKlqvMHcax/lO1atXSZqF16tQJ9IXef/99efLJJ3W9FZoyd+zYUU477TQ5dOiQHDhwQHLkyHFcdA1/w0D0av78+fLmm2/qyBf+RfrwkUce0Q2gCcmkFAng4o1zYgFxiom9F6iNCfZ5g+5jhYJvO2WG5s6xppd2G5HlRq4KGhH3fgIePzkDOH7wnSD1iHorpCnsdkPelHi0YAYubBi6mGW0IbKbfyMyjNTgIZ4SKLCyApjRgZYhxzqeY5ZIjx495O677w60nx9qqyCsFi1apGutIN5Kly6tmzJDWOG1wr0e2uFAgN1zzz3SqFEjGTFihHTq1EleeeUV3UA6Z86cgTSRJiSdeUNin4qOc+LJIc6NiDwsyeL7L9rmzuGYLilTg00SVGDB++vbAAQWUrWh3KHRbiioWaToJwjbi1DeYihqZ/0HBVamBz+mR4240nd+J510ki4079Kli5x6anCRcMxUxHbfe+89KVu2rHTr1k3Kly+vrSLcVKAfIYfn7du3T0esBg0apOu2hg4dqgvjwV9//SX58uXTwo19CUkmIZ4NhWE8ui0L7zuISm9z548D2jY8xRBNcYvn0RQZNUN/J9g+wF1l4ThtG8dO7wC3h32Hzh9eCw0IxF48FSQGrMGK/aTU0xVXl19+uU7ZQagEKa7Arl27ZM6cObqeCoXq5cqV04IKHlyx1E1he9hGpUqV5LrrrjsWvUJ0C3Vd+BuEFiHZiGQjCHYYkYF+biOy+GeGkeoZ1jJMkP+S/wrBYxmYSWcXW6OJdPUsvj//NfsPlhQTxena8X3ArxHKXBapyUr8CScGjGDFRpK5kyiElNu3334rM2bMkPvuuy8SN3dfQFBh+yhiHzlypHz44Yd6NuAll1yiBRFqq/ySK1cuyZ07tyxfvlzPMly5cqW0adNG12K988470r9/f5k4caL+F6lERLIOHjzIb50kKndJMLOmILCQEkRx9t5ssu+8s/vgkL8+wO172yDBdDTRUq5fS3A9J1EHhabRuyTlTNmggCVDuxDrUT/4ohr/Ezq3U2BlFZo3b65tElBsDgE0ePBgvS5IihUrJkOGDNF1XYguvfDCCzJ79my55ZZb9ExCpP28rvKhgCBDA+nNmzfr9CBmFkKoLVmyRGrXdiYRIaJ16623SufOnaVly5bSsGFD/ZpYjxouRL5IzBfxrPhaGck3AYuC7AJSY97edqeZES9QP4QG30cTaD8cyCTHD1Lho9L4O6KDSB8O5KGdsTBFGBBIo2EmHqJAECE33nij1K1bV1szBA2iWZj5t2zZMl3gDpE0fPhw+eWXX3QNGARUqLQhUop4nxBHTz/9tFSvXl2nHVHcjvftiiuX888/X1s6YHz//fdSs2ZNXbgPgQVvrSCL97MB3kK2iD2LIIb9kBN53uPvpoM7aeTIoYevK3j6TJrIxcMsKmAlUD6dX/NYQ+koju9Mfz1E5sAPOK9boCOI7UCPgvZbPE9BXfCFPLQzFkawgrp6/vuvnsVXpkwZHRFauHChnu0HEXPvvfdq8YWegEFy2WWXyYIFC45ZNkD8wIKhSZMm2rLB7v2GlCWEFVKYeNwPP/wgjz/+uHZ4L1iwYJqvg5Y+9evX17MNEcWCuOvXr58WkZ4fPkn77viwJQIKRnpcwfUf0ctIUd+t12vjryA/CCZH4D35EVm7d0dssu4n2uZ9bFwVP6xWihSJ3Cz9q6++km+++SYzHJvXePYdHMO1Azkm1FSsWDHiDe3du1efk1KhvPzXKgwHT0N1fK+P4vjO9CcD3NCiy0akwCTagNTfw57fAKJVSLfCqqGNe8pX4wVxar84S4kCK2vgek3Bm2revHkyadIk7TWFfyGCMEsv6Pqspk2b6hqpcePGaeGDVN8NN9yg+yQicgARhJN9hw4ddMQKgmnatGk6pRkpeM8wSUU6EjMYUQT/2muvybPPPkuRFRl/GKHjzlI6I5InIeXrp2eZoaRn+bcgP8jWrVu1uA4A/BDye0Son4uB17Qxrk02n3nmGT3BJFLwW8RvPhNgN3dGyu52Nb7DAr7nAQMi96vEeQblCqmA2YN265xG6vgeFsXxHRSopzjkOX5OSA9B8tJLL+kRxe9ltKSMtI2W/2rZ4Oh+tXVuqWXE2DM8/WYMTBHGCaTREH1A0TjuPuCYDmGCu0FYLQQNwubwsMIJDq+DInjUTyGqhogaLgxIISKChZSfH3Flg0a/iGDBqBTNrpFWfOONN7Q7PV3gwwosW+iUlvhNCffOIgqquW6yBFvPhdlkdj/BrX61nme5dDy/QDsiHKk4zgRgn9nNnVGDtCnazxBmH632/AZqhLgZSG+B9bu1jBl4hRL4u3rC89v+SY0e1vIuSRnd0jpf/DdRJxRYCYMOrYeqR3K9plCvBENQhIUvvPBCXfyO6NLatcG3iUK6DxEz2EVgliHSgjt27NBF91988YW2YggCtOX57LPPdPQMaRAIPKSMKLJSBXfFtokhTuRV4vRal3uWNwS03QLmLjoo6krK3myf+nz+157lWon0hWeS3wKaL9u1ax+KVXge8GfArDo7f3iSOQYykq89x3fFBP2ecK7o6lkHMeWd5Yq798nWMgrcRkuc0+eEAite4irsgQuRg4bMqM+C7QEiSPC1qlat2nG9AIMCkSaEoD///HPZsGGDPPbYY4EWh/722286Yob6LzjKI2Xot/A5G+I1brwpDq+B/MzFnrvaoGZGFQ/wgoiDpY1n3Ryf21gnjleVC9IjhXmY+cLr3j4rzq/3gWc5o5s/L/Qst0zA7+gEI5JsITwpxL50eczzu8Bv9n4e6hRYWRrUZsEhHYXoqM8aNWqUTJ06Vc8KhL9VNF5W4UDELOjiesw6RKoTNViwcoB4QyNpOr6HJUV0wJzMSwT8GugsYNdWLpZgvZz6SDC1m/jsdkHTV2qs8rmNfR5BgAr09jzMIgbpWTvqt0Xi32JlkaScdIEmrQUycB/MkZRNvG8Vp/VZIvGIGjWtZaQ1O6bx+F9D/B3tc87mIU+BleVBfRbSh259FoxJUUAOMRSP+qygQEoQqUH4cKGQFZ5cKOZHnQbEIW0bwoJUnW2uWMCc+IICF8u7vHo44M8AUdQ3xm1AVA7zrINTejRFS897ltEAtzoPtYjwihuk7w7E+TVx8V9uLaPlxf8ycB+gJmyitYyU2pgEujaWDfF766TG9jDPw2f6wHOueZ6HPAVWtsCuz4JTOoRWvOuzogXF7BCAsJzYuHGjdO/eXVtPwFMLRfSA4ipivOZ/t4e5G/VzIkazYzu6hKLiD+PwGVAL0i7K5+IChhqR0611X6jxWpTbW+N5Lup6cJcSVC3NqVn4POlND85Ip9dNtDQhpknusZbRk3FcQN/7CeYYipbnJWXj6Nk+fiuI5trR62tD3IARCqysS0bUZ/kBNVaVK1fW/RVRNI8CehiQYrYQUoIUVr5BSmKSZx2iOf0leqNM1FjMV+MsW8OLky4MMm9rR5hQE9LT5/NPNxdX29EWJqiYp384hvcFHyB7pmRJsz9iaaWAO37Mo8fEBDQrzmq1XXklZT0dCtAXp+NvwD6WGkjGmsRiNqp39l1rNaZLbGk1TDZZZY6hDlE8/x5xJiG4/CX+UuDwMusS4lxzhhAKrOyEtz7rueee0+IGYiZe9VlpsWnTJmnWrJkeMFeEwMIMRMwqYj/CmMFJ0utA2U2cIniIgkj9nCqL03cMAuBMz98wpXtFwO97vXk9F6QuZpn3EQ40pl2mxlWe9SjIXRnj+9opzoQB+24d9UXviBMt85syvF6cNNY9RljhPd+axY7BSyRl/R8+7470Or2o8bm1fI6krMfLCJBS8xp+IeKDKDD8pfy0DcKx95Q4nl9VzTE0UFJakoQDNwmDPetwQ+O3YbR7fnBBneJInoLTBxqNBrUjTzwxkHYgqM/CbDzUOcE8FH0NkZ4bO3asrnmCLUI8QT0VDBXh2A5zURSwX3zxxcec6hGxijVqhSbT2XzGIWb2IT2DcL9dUFvdiAJYVaNWC3niH8Xx0PrXCC/M5EMLjFrmIhnqoMOJeWgc3ndOI4hKW3fW15hICCJT04wI221u3nBRgtdRCwltodBL0u6p5gfsK3iQvO0RDjeb118qTroUF8yfzD79x+y/vOY51c3j/5eKuMxKeNNyM9PxtZPN69nC9zrxP8khaLqb99bdI5bwe0KUFJG3+eZYQC3ZfnEixYi+FTS/ZaQXW5rfqQ3S4H46KjwrKaOmuFl6LsrP9aA4Fij5zHIzcVrrTOaVmwIr0dFGMVu2bNG1SqhLgkiKxT/Grs+CizJm6sFHC9Ek1GfB0wqiJ2jQ4gJu7/DLQrsdCDwYiLoRq1iEFfaHK6xWr16tTU+ti3aWJ8QMy41qXClOEXo9z9/OMeMuv/pcnMjVqDh9DHxXB8wJ+jXzr5gLzI1mALhN4mBJzTMLBxRSJi8E/P4QhUH6EenLq631eC+Xy3/+YP+Yi50rsCBcU2tHgMeg3mxRFO8nR5jlWEkKs5wauY0wdjki/i0yYgUCq7e1DDf5vhJ538x47VsYd2JG63BJWScIodXKDPe39rclsPKlcT39woj8SJ1qW1q/LYD0+QMSfbof5xpEv2xHd0wqQUT5F17CKbAS9rrpCoSPPvpIz7BDtAnCRF9lfDo/e3Hrs84991ztlg4B1LNnT6lataquz+rVq5cUL1485g+xfft23Z8Q9gvly5fXRffw0UJaEp8hVmGFyB6am0JUIe1p9dUSE63J8sAqo2PHjto/DLV2hl+MELjPCI6yUW4eJ+D3xUlLrEcqF6nlSIEpLY7fCDnBiBOkMjuau32v+3VavZOWmmjA6rReBI3S4a8WKUhpo/2TOZ4aqnGHeZ2KqQjFSBy7F5vPtyzK7+VgmOVY+SfMcmoUMALeBWab36XzTwKiA3Vzrvt+SSPII43yHIp038JSpkGDBhG/sT179rw5fvz4xepGF6nBOyW0jUReSVl8HgrUtaFYHtYmf/jYN509y0PKli37OW56I77TUjf5L7/8su3EP9L8Zt1IMqLLt8nxk24IBVbCgLv59ubCVmbdunXSqlUrueaaa47NuoNAibVlhtvfEPVZaFHj9jdEyxqIrIceesh3d3YXmJGi4TPeJ0QbGkjrDxZjOhDCCs9Fn0LUlk2fPl2377FEJ06kT5uR5SlZsqSupfv2229tgSXmDhjTwieIU/OBkyA8b86K4OQN2wekvd4Ry60dth9+TsaTJ0/2I7BscJePGXttzR33uak87i8TXRpn3mvY8C5+R61bt474jaDHphFYLq+LkwJpaCJrSPudHSbScdRc9BGtelNSuo5Hw3vm+6xsxNrCgA8rvEcoB6jp+eFEqwV8lB41F/Kc5iKb3rbzOCkONlErzODrKv5SaLNNFOxScVKLqRqk1qpVS//2IuXXX3+V119/fasSWI+YY7y5ibBB8Yeb7IDPgBQiUuZToryBnCz/dXn4Uo3+yFj4+QwQWLgpt649OLYRicWs29zmfS7iJZwCK9GZbC5yj5mTVv7Zs2fraBN8rh5++GEpVaqUFhlI/cVCqPqsLl266PospA391GetWbNGR1TQGBqRN6Qf0WYH6UBXHMUStUI6ENtAtAreXmgQ7LnwIGT9VXY7WHAcpPb1ilM/9La5My5j7u6LmztoRI6gTlHQjdlBKHbdElL1H/BnZRRjpBWCBDOVeovjIo+L/enmwr3P/H29ec+Rh358TqRI5TMfNhe6D0xU7RyzT0uYfZrTXOgRXdhm3uv3AUaa4LGE9C8Ki3fF4XDCe61tLvq7/fxExUmjvmaOq30Z9HMYa0TI3yEiUuHYbURP2H17+LC/Caoo9bDAcfuMGcXMMQShjpShW9P0t3kPiEhvSu136YPB5jdTzpwPDvq9SUeJSYgyFWwTtZOofZsjWa+ukAIri4LZSyjYfcMIh9sQcXrhhRd0SgyF4nfccYeuqcro+iykHPv16ydPP/20nHnmmTrliHQSTkJuOjCWqJWbDty8ebP+7B4/L/ygUeMwjYdM2lra3Ll+mYne89/m7nhNAr+/DRJcX0Y/7Irz9nfHcJwlwrkzkfetzQ4zVqbDa82U+Ew8WGoGSQdo0xAsqGOAceRV7kGMcDOiTA0bNtRpMszMQ9osVrz1WUiP/P7777o+Cz0CUVfl5e2335ZKlSrJiBEjdAqmd+/eUrZs2Zg9rVzBiM+FyMOUKVO0iLPEFSIEqGW5hOKKEEIIBRaJFtRaoA0Fikh0Dh4z81q2bKkjTmjAnD9//kCaL7v+WUjzoT4L/lnvvvuu7m84fPhwHZlCATBqclq0aKGL4uFphToxCKMg/LUQscJnWbZsma4Ng1mqtV2YaiIkDY+ZAzw0CCGEZAeYIowfCOuMFydigxliKJg8ZebMmdpINL3qs8aNG6dnriF19/jjj+uZWYh+BVHEDu8v1FpBwKHOCiLS4jNxolazeSgQQgjJbjCCFX8wQwZ1WdXEqdEStz4LswIRcUJ6Dv5ZsRp4euuzEFGCuDrjjDN0bRZa3iCFB4EV6+xA+GNBGCI9iRowS1yhJgLNSGtSXBFCCKHAIvEG9VnwHYHrNVqiHFefhRqmoOqzILQuuOAC7b8EgWUbhsYC0oGIlC1atEinA2fNmmVPBX7NCEnMJz7Er5wQQggFFkkv4K2D+qy7xTSoteuzvvzyy8Dqs1B/hagWImT4N9bZgRB/SAfCjwX+WSiqN8CHBtPR7xKntQshhBBCgUXSHRRcoUUKGoHCpFQbr8yYMUPq168vnTp1kp07d2qhlZE9++x0ICJi48eP1y7vGzYcm+kOnx90oYc78Hx+rYQQQggFViACxGNK5xe3Pguz7ODKrNN4zz//vK7Pwr+IPAVRnxUNsJTA66IoH82f586d6/bUQwE/urQjHYgGpEeifY00jDezJCF6EgZOrJ0DEgG/s1vT4zMj9R7Pz5CI+C0rSI/j2y9+jXRxzvX7Xccbv+bB+Azhzq1Z4fhMdDiLMAYQ2YEIirXnoOLbAQMGtNq6dSuiWuhb9b9t27bpSBba4aDtjmurEMBrhRWNSE9ihuBXX32lLR/Q3sUC/l7dJYRZHZzhzznnHF+vV6xYsWx1zJQuXVofM/GkZs2acd3+aaedpntXxjO6WqdOHV+Pr1atWtz363nnnefr8TfeeKPu6ZmZ8dMPMr2Ob7+gFtUPp59+up6EFOvM7iApU6aMr8cXKlRIXnzxxTRvPPCbIfElKRZXcRIccF//7DM4G+ioYmsjYtxGqNK4cWPp3LmzNhKNpL8hIk+om6pdu7Yuckdft7TEGY4DXDARtdqxY4f2slq8eLF9kkGvG/QNQz+5kGce+HthpmJmQd0V5lVi4bcHHnhg9ODBgztn12Pv1Vdf1bYhIUAhIPLBbhNqKO0K5cuX/xfimxBCSOowRZggWKF1iJeXxUm/9RfTABWzDONZnwVhBdCQGQ7vCxcudMUVYuVIA6Je7MXUxBWAFxfJ+uC4SKS7e0IIocAifkB/MfTtQ30W3NADr89yzUIhrtatWycDBw6UCRMm6BY8BhSuo4Adhey/8SshhBBCKLCyCt+ocas4XdCXY4Vbn4W6LDjDwz7BjUBFKqzc2YGIho0dO1aGDBmiLRgMP4pjuQDrhVX8CgghhBAKrKzKPDVqq3GvEUC6Zuvmm2/W/lnr168/5p8Vrq4OggzRL9hCYHbg0qXH6tUxrQQmoUhPvsZdThRJPF8QQggFVlYHhS8oMkc91EAx9VmufxZc4RGRKlCgwHH1WW46EE7sEGbws5o0aZJtM4G2NpeJ0+ZmF3d1NjqoUq+nwh9stY5CweREnIpPCCGJBm0aMieoz+qmxgQ1nlTjFswQRF9DNF3u0KGD3H777bonoVbRSmzlzZtXvvvuO5k6daqsWLHC3tYms41J3K3ZEzTsRi1fCKCkeqsx3Igt/P8oIqWEEEIosLIyX6vRUhxXePhn1dy6dav2o4J/Vvfu3XXUCi1zILzgaWUZ1uE/I9QYqsZe7srsS/PmzaVu3bqp/RkGuLPEiWTp2Q84pjKywwAhhFBgkfRirjg9DmFmBP+sUmvXrpVmzZrplCBSOh5n4mnizFBcz11HMNkBIw0owAkhxCe8Dc06IJ3zkjj1WYPU0KZUaIdgiStEvJqrcQPFFSGEEEKBleXx2/MrDVCg3lWNGmpMMetQDN/LrHsvbgovExY/JycnJ/HoI4QQEjRMESYIL7/8suzbty/ix2P2XxjndPQyuUWN0Wr8nidPnq8LFiwY189QsWLFTLffDx8+nOvIkSP8HRBCCAkU9iIk2ZajR4+esHTp0lolS5bcWqZMmU3cI4QQQiiwCCGEEEISFNZgEUIIIYRQYBFCCCGEUGARQgghhFBgEUIIIYQQCixCCCGEEAosQgghhBAKLEIIIYQQQoFFCCGEEEKBRQghhBBCgUUIIYQQQiiwCCGEEEIosAghhBBCKLAIIYQQQiiwCCGEEEIIBRYhhBBCCAUWIYQQQggFFiGEEEIIocAihBBCCKHAIoQQQgihwCKEEEIIIRRYhBBCCCEUWIQQQgghFFiEEEIIIYQCixBCCCGEAosQQgghhAKLEEIIIYQCixBCCCGEUGARQgghhFBgEUIIIYRQYBFCCCGEEAosQgghhBAKLEIIIYQQCixCCCGEEEKBRQghhBBCgUUIIYQQQoFFCCGEEEIosAghhBBCKLAIIYQQQiiwCCGEEEIosAghhBBCCAUWIYQQQggFFiGEEEIIBRYhhBBCCPHB/wUYAPSB8wd8GsOzAAAAAElFTkSuQmCC;fontFamily=Helvetica;rounded=1;" parent="1" vertex="1">
          <mxGeometry x="840.5" y="375.46" width="199" height="66.33" as="geometry" />
        </mxCell>
        <mxCell id="1TfECa-dX_d4Ddrjt1kj-36" value="" style="shape=image;verticalLabelPosition=bottom;labelBackgroundColor=default;verticalAlign=top;aspect=fixed;imageAspect=0;image=data:image/svg+xml,PHN2ZyB4bWxuczp4bGluaz0iaHR0cDovL3d3dy53My5vcmcvMTk5OS94bGluayIgeG1sbnM9Imh0dHA6Ly93d3cudzMub3JnLzIwMDAvc3ZnIiB4bWw6c3BhY2U9InByZXNlcnZlIiBzdHlsZT0iZW5hYmxlLWJhY2tncm91bmQ6bmV3IDAgMCAyMDAgNjcuOTsiIHZpZXdCb3g9IjAgMCAyMDAgNjcuOSIgeT0iMHB4IiB4PSIwcHgiIGlkPSJMYXllcl8xIiB2ZXJzaW9uPSIxLjEiPiYjeGE7PHN0eWxlIHR5cGU9InRleHQvY3NzIj4mI3hhOwkuc3Qwe2ZpbGw6IzRGNTg1OTt9JiN4YTsJLnN0MXtmaWxsOiMzREIwQzc7fSYjeGE7CS5zdDJ7ZmlsbDojRDZEMEMzO30mI3hhOwkuc3Qze2ZpbGw6I0ZDQzYyRTt9JiN4YTsJLnN0NHtmaWxsOiNFNjM2NDI7fSYjeGE7PC9zdHlsZT4mI3hhOzxnPiYjeGE7CTxnPiYjeGE7CQk8Zz4mI3hhOwkJCTxnPiYjeGE7CQkJCTxnPiYjeGE7CQkJCQk8cGF0aCBkPSJNNzYuMSwzNy41Yy0wLjQtMi42LTIuOS00LjYtNS44LTQuNmMtNS4yLDAtNy4yLDQuNC03LjIsOS4xYzAsNC40LDIsOC45LDcuMiw4LjljMy42LDAsNS42LTIuNCw2LTUuOUg4MiYjMTA7JiM5OyYjOTsmIzk7JiM5OyYjOTsmIzk7Yy0wLjYsNi42LTUuMSwxMC44LTExLjYsMTAuOGMtOC4yLDAtMTMtNi4xLTEzLTEzLjdjMC03LjksNC44LTE0LDEzLTE0YzUuOCwwLDEwLjcsMy40LDExLjQsOS41SDc2LjF6IiBjbGFzcz0ic3QwIi8+JiN4YTsJCQkJCTxwYXRoIGQ9Ik04NCwzNS45aDV2My42aDAuMWMxLTIuNCwzLjYtNC4xLDYuMS00LjFjMC40LDAsMC44LDAuMSwxLjEsMC4ydjQuOWMtMC41LTAuMS0xLjMtMC4yLTEuOS0wLjImIzEwOyYjOTsmIzk7JiM5OyYjOTsmIzk7JiM5O2MtMy45LDAtNS4yLDIuOC01LjIsNi4xdjguNkg4NFYzNS45eiIgY2xhc3M9InN0MCIvPiYjeGE7CQkJCQk8cGF0aCBkPSJNMTA2LjQsMzUuNGM2LDAsOS45LDQsOS45LDEwLjFjMCw2LjEtMy45LDEwLjEtOS45LDEwLjFjLTYsMC05LjktNC05LjktMTAuMSYjMTA7JiM5OyYjOTsmIzk7JiM5OyYjOTsmIzk7Qzk2LjUsMzkuNCwxMDAuNCwzNS40LDEwNi40LDM1LjR6IE0xMDYuNCw1MS43YzMuNiwwLDQuNy0zLjEsNC43LTYuMWMwLTMuMS0xLjEtNi4xLTQuNy02LjFjLTMuNiwwLTQuNiwzLjEtNC42LDYuMSYjMTA7JiM5OyYjOTsmIzk7JiM5OyYjOTsmIzk7QzEwMS43LDQ4LjYsMTAyLjgsNTEuNywxMDYuNCw1MS43eiIgY2xhc3M9InN0MCIvPiYjeGE7CQkJCQk8cGF0aCBkPSJNMTIyLjQsNDguOWMwLDIuMywyLDMuMiw0LDMuMmMxLjUsMCwzLjQtMC42LDMuNC0yLjRjMC0xLjYtMi4yLTIuMS02LTNjLTMtMC43LTYuMS0xLjctNi4xLTUuMSYjMTA7JiM5OyYjOTsmIzk7JiM5OyYjOTsmIzk7YzAtNC45LDQuMi02LjEsOC4zLTYuMWM0LjIsMCw4LDEuNCw4LjQsNi4xaC01Yy0wLjEtMi0xLjctMi42LTMuNi0yLjZjLTEuMiwwLTIuOSwwLjItMi45LDEuOGMwLDEuOSwzLDIuMSw2LDIuOSYjMTA7JiM5OyYjOTsmIzk7JiM5OyYjOTsmIzk7YzMuMSwwLjcsNi4xLDEuOCw2LjEsNS40YzAsNS00LjQsNi43LTguNyw2LjdjLTQuNCwwLTguOC0xLjctOS02LjdIMTIyLjR6IiBjbGFzcz0ic3QwIi8+JiN4YTsJCQkJCTxwYXRoIGQ9Ik0xNDEuNiw0OC45YzAsMi4zLDIsMy4yLDQsMy4yYzEuNSwwLDMuNC0wLjYsMy40LTIuNGMwLTEuNi0yLjItMi4xLTYtM2MtMy0wLjctNi4xLTEuNy02LjEtNS4xJiMxMDsmIzk7JiM5OyYjOTsmIzk7JiM5OyYjOTtjMC00LjksNC4yLTYuMSw4LjMtNi4xYzQuMiwwLDgsMS40LDguNCw2LjFoLTVjLTAuMS0yLTEuNy0yLjYtMy42LTIuNmMtMS4yLDAtMi45LDAuMi0yLjksMS44YzAsMS45LDMsMi4xLDYsMi45JiMxMDsmIzk7JiM5OyYjOTsmIzk7JiM5OyYjOTtjMy4xLDAuNyw2LjEsMS44LDYuMSw1LjRjMCw1LTQuNCw2LjctOC43LDYuN2MtNC40LDAtOC44LTEuNy05LTYuN0gxNDEuNnoiIGNsYXNzPSJzdDAiLz4mI3hhOwkJCQkJPHBhdGggZD0iTTE1NiwzNS45aDV2My42aDAuMWMxLTIuNCwzLjYtNC4xLDYuMS00LjFjMC40LDAsMC44LDAuMSwxLjEsMC4ydjQuOWMtMC41LTAuMS0xLjMtMC4yLTEuOS0wLjImIzEwOyYjOTsmIzk7JiM5OyYjOTsmIzk7JiM5O2MtMy45LDAtNS4yLDIuOC01LjIsNi4xdjguNkgxNTZWMzUuOXoiIGNsYXNzPSJzdDAiLz4mI3hhOwkJCQkJPHBhdGggZD0iTTE3NC4xLDQ2LjhjMC4xLDMuMywxLjgsNC45LDQuNyw0LjljMi4xLDAsMy44LTEuMyw0LjEtMi41aDQuNmMtMS41LDQuNS00LjYsNi40LTksNi40JiMxMDsmIzk7JiM5OyYjOTsmIzk7JiM5OyYjOTtjLTYsMC05LjgtNC4xLTkuOC0xMC4xYzAtNS43LDQtMTAuMSw5LjgtMTAuMWM2LjUsMCw5LjcsNS41LDkuMywxMS40SDE3NC4xeiBNMTgyLjcsNDMuNWMtMC41LTIuNy0xLjYtNC4xLTQuMi00LjEmIzEwOyYjOTsmIzk7JiM5OyYjOTsmIzk7JiM5O2MtMy4zLDAtNC4zLDIuNi00LjQsNC4xSDE4Mi43eiIgY2xhc3M9InN0MCIvPiYjeGE7CQkJCQk8cGF0aCBkPSJNMTkwLjgsMzkuNWgtMy4xdi0zLjVoMy4xdi0xLjVjMC0zLjQsMi4xLTUuOCw2LjQtNS44YzAuOSwwLDEuOSwwLjEsMi44LDAuMXYzLjkmIzEwOyYjOTsmIzk7JiM5OyYjOTsmIzk7JiM5O2MtMC42LTAuMS0xLjMtMC4xLTEuOS0wLjFjLTEuNCwwLTIsMC42LTIsMi4ydjEuMWgzLjZ2My41aC0zLjZ2MTUuNmgtNS4zVjM5LjV6IiBjbGFzcz0ic3QwIi8+JiN4YTsJCQkJPC9nPiYjeGE7CQkJPC9nPiYjeGE7CQk8L2c+JiN4YTsJPC9nPiYjeGE7CTxwb2x5Z29uIHBvaW50cz0iMCw2Ny45IDAsNDcuNCAxNi44LDQxLjkgNDYuNiw1Mi4xIiBjbGFzcz0ic3QxIi8+JiN4YTsJPHBvbHlnb24gcG9pbnRzPSIyOS43LDI2LjEgMCwzNi40IDE2LjgsNDEuOSA0Ni42LDMxLjciIGNsYXNzPSJzdDIiLz4mI3hhOwk8cG9seWdvbiBwb2ludHM9IjE2LjgsNDEuOSA0Ni42LDMxLjcgNDYuNiw1Mi4xIiBjbGFzcz0ic3QwIi8+JiN4YTsJPHBvbHlnb24gcG9pbnRzPSI0Ni42LDAuMiA0Ni42LDIwLjYgMjkuNywyNi4xIDAsMTUuOSIgY2xhc3M9InN0MyIvPiYjeGE7CTxwb2x5Z29uIHBvaW50cz0iMjkuNywyNi4xIDAsMzYuNCAwLDE1LjkiIGNsYXNzPSJzdDQiLz4mI3hhOzwvZz4mI3hhOzxnPiYjeGE7CTxwYXRoIGQ9Ik02MCw1LjRoMy41bDMuOSwxMWgwbDMuOC0xMWgzLjR2MTRoLTIuM1Y4LjZoMGwtMy45LDEwLjhoLTJMNjIuNCw4LjZoMHYxMC44SDYwVjUuNHoiIGNsYXNzPSJzdDAiLz4mI3hhOwk8cGF0aCBkPSJNNzguNCwxNC45YzAsMS42LDAuOSwzLDIuNywzYzEuMywwLDIuMS0wLjYsMi41LTEuN2gyLjFjLTAuNSwyLjItMi40LDMuNS00LjYsMy41Yy0zLjIsMC01LTIuMi01LTUuMyYjMTA7JiM5OyYjOTtjMC0yLjksMS45LTUuNCw0LjktNS40YzMuMiwwLDUuMiwyLjksNC44LDUuOUg3OC40eiBNODMuNywxMy41Yy0wLjEtMS40LTEtMi43LTIuNS0yLjdjLTEuNSwwLTIuNiwxLjItMi43LDIuN0g4My43eiIgY2xhc3M9InN0MCIvPiYjeGE7CTxwYXRoIGQ9Ik04Ni4xLDkuM2gxLjd2LTNIOTB2M2gyVjExaC0ydjUuNGMwLDAuOSwwLjEsMS40LDEuMSwxLjRjMC4zLDAsMC42LDAsMC45LTAuMXYxLjdjLTAuNSwwLTEsMC4xLTEuNSwwLjEmIzEwOyYjOTsmIzk7Yy0yLjMsMC0yLjgtMC45LTIuOC0yLjZ2LTZoLTEuN1Y5LjN6IiBjbGFzcz0ic3QwIi8+JiN4YTsJPHBhdGggZD0iTTEwMS44LDE3LjJjMCwwLjUsMC4xLDAuOCwwLjUsMC44YzAuMSwwLDAuMywwLDAuNSwwdjEuNWMtMC4zLDAuMS0xLDAuMy0xLjQsMC4zYy0wLjksMC0xLjUtMC4zLTEuNy0xLjImIzEwOyYjOTsmIzk7Yy0wLjksMC45LTIuMywxLjItMy41LDEuMmMtMS44LDAtMy41LTEtMy41LTNjMC0yLjUsMi0yLjksMy45LTMuMmMxLjYtMC4zLDMtMC4xLDMtMS40YzAtMS4yLTEuMi0xLjQtMi4xLTEuNCYjMTA7JiM5OyYjOTtjLTEuMywwLTIuMSwwLjUtMi4yLDEuNmgtMi4yQzkzLjMsOS44LDk1LjYsOSw5Ny44LDljMiwwLDQuMSwwLjgsNC4xLDIuOVYxNy4yeiBNOTkuNiwxNC40Yy0wLjcsMC41LTEuOCwwLjQtMi43LDAuNiYjMTA7JiM5OyYjOTtjLTEsMC4yLTEuOCwwLjUtMS44LDEuN2MwLDEsMS4zLDEuMywyLjEsMS4zYzEsMCwyLjUtMC41LDIuNS0xLjlWMTQuNHoiIGNsYXNzPSJzdDAiLz4mI3hhOwk8cGF0aCBkPSJNMTEzLjUsMTkuNGgtMi4xdi0xLjRoMGMtMC42LDEuMi0xLjksMS42LTMuMSwxLjZjLTMuMiwwLTQuNy0yLjQtNC43LTUuNGMwLTMuNywyLjItNS4zLDQuNC01LjMmIzEwOyYjOTsmIzk7YzEuMywwLDIuNywwLjUsMy40LDEuNmgwVjUuNGgyLjJWMTkuNHogTTEwOC41LDE3LjljMiwwLDIuOC0xLjgsMi44LTMuNmMwLTIuMi0xLjEtMy42LTIuOC0zLjZjLTIuMSwwLTIuOCwxLjktMi44LDMuNyYjMTA7JiM5OyYjOTtDMTA1LjcsMTYuMiwxMDYuNiwxNy45LDEwOC41LDE3Ljl6IiBjbGFzcz0ic3QwIi8+JiN4YTsJPHBhdGggZD0iTTEyMy44LDE3LjJjMCwwLjUsMC4xLDAuOCwwLjUsMC44YzAuMSwwLDAuMywwLDAuNSwwdjEuNWMtMC4zLDAuMS0xLDAuMy0xLjQsMC4zYy0wLjksMC0xLjUtMC4zLTEuNy0xLjImIzEwOyYjOTsmIzk7Yy0wLjksMC45LTIuMywxLjItMy41LDEuMmMtMS44LDAtMy41LTEtMy41LTNjMC0yLjUsMi0yLjksMy45LTMuMmMxLjYtMC4zLDMtMC4xLDMtMS40YzAtMS4yLTEuMi0xLjQtMi4xLTEuNCYjMTA7JiM5OyYjOTtjLTEuMywwLTIuMSwwLjUtMi4yLDEuNmgtMi4yYzAuMi0yLjYsMi40LTMuNCw0LjYtMy40YzIsMCw0LjEsMC44LDQuMSwyLjlWMTcuMnogTTEyMS42LDE0LjRjLTAuNywwLjUtMS44LDAuNC0yLjcsMC42JiMxMDsmIzk7JiM5O2MtMSwwLjItMS44LDAuNS0xLjgsMS43YzAsMSwxLjMsMS4zLDIuMSwxLjNjMSwwLDIuNS0wLjUsMi41LTEuOVYxNC40eiIgY2xhc3M9InN0MCIvPiYjeGE7CTxwYXRoIGQ9Ik0xMjQuOSw5LjNoMS43di0zaDIuMnYzaDJWMTFoLTJ2NS40YzAsMC45LDAuMSwxLjQsMS4xLDEuNGMwLjMsMCwwLjYsMCwwLjktMC4xdjEuN2MtMC41LDAtMSwwLjEtMS41LDAuMSYjMTA7JiM5OyYjOTtjLTIuMywwLTIuOC0wLjktMi44LTIuNnYtNmgtMS43VjkuM3oiIGNsYXNzPSJzdDAiLz4mI3hhOwk8cGF0aCBkPSJNMTQwLjYsMTcuMmMwLDAuNSwwLjEsMC44LDAuNSwwLjhjMC4xLDAsMC4zLDAsMC41LDB2MS41Yy0wLjMsMC4xLTEsMC4zLTEuNCwwLjNjLTAuOSwwLTEuNS0wLjMtMS43LTEuMiYjMTA7JiM5OyYjOTtjLTAuOSwwLjktMi4zLDEuMi0zLjUsMS4yYy0xLjgsMC0zLjUtMS0zLjUtM2MwLTIuNSwyLTIuOSwzLjktMy4yYzEuNi0wLjMsMy0wLjEsMy0xLjRjMC0xLjItMS4yLTEuNC0yLjEtMS40JiMxMDsmIzk7JiM5O2MtMS4zLDAtMi4xLDAuNS0yLjIsMS42SDEzMmMwLjItMi42LDIuNC0zLjQsNC42LTMuNGMyLDAsNC4xLDAuOCw0LjEsMi45VjE3LjJ6IE0xMzguNCwxNC40Yy0wLjcsMC41LTEuOCwwLjQtMi43LDAuNiYjMTA7JiM5OyYjOTtjLTEsMC4yLTEuOCwwLjUtMS44LDEuN2MwLDEsMS4zLDEuMywyLjEsMS4zYzEsMCwyLjUtMC41LDIuNS0xLjlWMTQuNHoiIGNsYXNzPSJzdDAiLz4mI3hhOwk8cGF0aCBkPSJNMTQ4LjMsOS4zaDEuN1Y4LjVjMC0yLjYsMS40LTMsMi44LTNjMC43LDAsMS4yLDAsMS42LDAuMXYxLjdjLTAuMy0wLjEtMC42LTAuMS0xLTAuMWMtMC42LDAtMS4xLDAuMi0xLjEsMS4xJiMxMDsmIzk7JiM5O3YxaDEuOVYxMWgtMS45djguNUgxNTBWMTFoLTEuN1Y5LjN6IiBjbGFzcz0ic3QwIi8+JiN4YTsJPHBhdGggZD0iTTE1NS4yLDkuM2gyLjF2MmgwYzAuMy0xLjEsMS42LTIuMiwzLTIuMmMwLjUsMCwwLjYsMCwwLjgsMC4xdjIuMmMtMC4zLDAtMC42LTAuMS0xLTAuMSYjMTA7JiM5OyYjOTtjLTEuNSwwLTIuNywxLjItMi43LDMuNXY0LjhoLTIuMlY5LjN6IiBjbGFzcz0ic3QwIi8+JiN4YTsJPHBhdGggZD0iTTE2MS4yLDE0LjRjMC0zLjEsMS45LTUuMyw1LjEtNS4zYzMuMywwLDUuMSwyLjIsNS4xLDUuM2MwLDMuMS0xLjksNS40LTUuMSw1LjQmIzEwOyYjOTsmIzk7QzE2My4xLDE5LjcsMTYxLjIsMTcuNSwxNjEuMiwxNC40eiBNMTY5LjIsMTQuNGMwLTEuNy0wLjktMy42LTIuOS0zLjZjLTIsMC0yLjksMS44LTIuOSwzLjZjMCwxLjgsMC45LDMuNiwyLjksMy42JiMxMDsmIzk7JiM5O0MxNjguNCwxNy45LDE2OS4yLDE2LjEsMTY5LjIsMTQuNHoiIGNsYXNzPSJzdDAiLz4mI3hhOwk8cGF0aCBkPSJNMTcyLjcsOS4zaDIuMXYxLjRoMC4xYzAuNy0xLDEuNS0xLjcsMy4xLTEuN2MxLjIsMCwyLjQsMC41LDIuOCwxLjdjMC43LTEsMS43LTEuNywzLjItMS43JiMxMDsmIzk7JiM5O2MyLjEsMCwzLjQsMC45LDMuNCwzLjR2N2gtMi4ydi01LjljMC0xLjYtMC4xLTIuNy0xLjgtMi43Yy0xLjUsMC0yLjIsMS0yLjIsMi43djUuOUgxNzl2LTYuNWMwLTEuNC0wLjQtMi4xLTEuOC0yLjEmIzEwOyYjOTsmIzk7Yy0xLjIsMC0yLjIsMC45LTIuMiwyLjZ2NmgtMi4yVjkuM3oiIGNsYXNzPSJzdDAiLz4mI3hhOzwvZz4mI3hhOzwvc3ZnPg==;fontFamily=Helvetica;rounded=1;" parent="1" vertex="1">
          <mxGeometry x="870" y="86.20000000000002" width="140" height="47.6" as="geometry" />
        </mxCell>
        <mxCell id="1TfECa-dX_d4Ddrjt1kj-41" value="" style="fillColor=#F6F6F6;strokeColor=none;shadow=0;gradientColor=none;fontSize=14;align=left;spacing=10;fontColor=#717171;9E9E9E;verticalAlign=top;spacingTop=-4;fontStyle=0;spacingLeft=40;html=1;rounded=1;dashed=0;fontFamily=Helvetica;" parent="1" vertex="1">
          <mxGeometry x="60" y="10" width="170" height="30" as="geometry" />
        </mxCell>
        <mxCell id="1TfECa-dX_d4Ddrjt1kj-42" value="&lt;font size=&quot;1&quot; color=&quot;#333333&quot;&gt;&lt;span style=&quot;font-size: 18px;&quot;&gt;Transformative agreement and hybrid journal data&lt;/span&gt;&lt;/font&gt;" style="text;html=1;strokeColor=none;fillColor=none;align=center;verticalAlign=middle;whiteSpace=wrap;rounded=1;fontSize=14;fontFamily=Helvetica;" parent="1" vertex="1">
          <mxGeometry x="60" y="50" width="450" height="30" as="geometry" />
        </mxCell>
        <mxCell id="1TfECa-dX_d4Ddrjt1kj-43" value="&lt;font color=&quot;#333333&quot; style=&quot;font-size: 18px;&quot;&gt;Article-level data&lt;/font&gt;" style="text;html=1;strokeColor=none;fillColor=none;align=center;verticalAlign=middle;whiteSpace=wrap;rounded=1;fontSize=14;fontFamily=Helvetica;" parent="1" vertex="1">
          <mxGeometry x="717.37" y="50" width="170" height="30" as="geometry" />
        </mxCell>
      </root>
    </mxGraphModel>
  </diagram>
</mxfile>
